<mxfile host="app.diagrams.net" agent="Mozilla/5.0 (Macintosh; Intel Mac OS X 10_15_7) AppleWebKit/537.36 (KHTML, like Gecko) Chrome/135.0.0.0 Safari/537.36" version="26.2.14">
  <diagram name="Page-1" id="G2JBihj3mz_vLXmrCChw">
    <mxGraphModel dx="831" dy="559" grid="1" gridSize="10" guides="1" tooltips="1" connect="1" arrows="1" fold="1" page="1" pageScale="1" pageWidth="1654" pageHeight="2336" math="0" shadow="0">
      <root>
        <mxCell id="0" />
        <mxCell id="1" parent="0" />
        <mxCell id="VzEyl7pLeXNEImk8ZBch-151" value="" style="rounded=1;whiteSpace=wrap;html=1;" parent="1" vertex="1">
          <mxGeometry x="331" y="1270" width="688" height="110" as="geometry" />
        </mxCell>
        <mxCell id="VzEyl7pLeXNEImk8ZBch-139" value="" style="rounded=1;whiteSpace=wrap;html=1;" parent="1" vertex="1">
          <mxGeometry x="330" y="1130" width="690" height="120" as="geometry" />
        </mxCell>
        <mxCell id="VzEyl7pLeXNEImk8ZBch-116" value="" style="rounded=1;whiteSpace=wrap;html=1;" parent="1" vertex="1">
          <mxGeometry x="330" y="960" width="690" height="150" as="geometry" />
        </mxCell>
        <mxCell id="VzEyl7pLeXNEImk8ZBch-75" value="" style="rounded=1;whiteSpace=wrap;html=1;" parent="1" vertex="1">
          <mxGeometry x="330" y="790" width="690" height="150" as="geometry" />
        </mxCell>
        <mxCell id="VzEyl7pLeXNEImk8ZBch-66" value="" style="rounded=1;whiteSpace=wrap;html=1;" parent="1" vertex="1">
          <mxGeometry x="330" y="380" width="690" height="120" as="geometry" />
        </mxCell>
        <mxCell id="VzEyl7pLeXNEImk8ZBch-34" value="" style="rounded=1;whiteSpace=wrap;html=1;" parent="1" vertex="1">
          <mxGeometry x="330" y="520" width="690" height="250" as="geometry" />
        </mxCell>
        <mxCell id="VzEyl7pLeXNEImk8ZBch-61" value="" style="rounded=1;whiteSpace=wrap;html=1;fillColor=#ffe6cc;strokeColor=#d79b00;" parent="1" vertex="1">
          <mxGeometry x="707" y="530" width="253" height="110" as="geometry" />
        </mxCell>
        <mxCell id="VzEyl7pLeXNEImk8ZBch-72" style="edgeStyle=orthogonalEdgeStyle;rounded=0;orthogonalLoop=1;jettySize=auto;html=1;endArrow=none;startFill=0;" parent="1" source="a8CHna9Du4veWzm3w8Nn-1" target="VzEyl7pLeXNEImk8ZBch-28" edge="1">
          <mxGeometry relative="1" as="geometry" />
        </mxCell>
        <mxCell id="a8CHna9Du4veWzm3w8Nn-1" value="" style="image;html=1;image=img/lib/clip_art/networking/Switch_128x128.png" parent="1" vertex="1">
          <mxGeometry x="639.1441176470588" y="624.5914285714285" width="55.29411764705882" height="56.410714285714285" as="geometry" />
        </mxCell>
        <mxCell id="VzEyl7pLeXNEImk8ZBch-40" style="edgeStyle=orthogonalEdgeStyle;rounded=0;orthogonalLoop=1;jettySize=auto;html=1;entryX=0;entryY=0.5;entryDx=0;entryDy=0;endArrow=none;startFill=0;" parent="1" source="a8CHna9Du4veWzm3w8Nn-3" target="a8CHna9Du4veWzm3w8Nn-1" edge="1">
          <mxGeometry relative="1" as="geometry">
            <Array as="points">
              <mxPoint x="386" y="653" />
            </Array>
          </mxGeometry>
        </mxCell>
        <mxCell id="a8CHna9Du4veWzm3w8Nn-3" value="ENT-AD/DNS" style="sketch=0;pointerEvents=1;shadow=0;dashed=0;html=1;strokeColor=none;fillColor=#505050;labelPosition=center;verticalLabelPosition=bottom;verticalAlign=top;outlineConnect=0;align=center;shape=mxgraph.office.servers.domain_controller;" parent="1" vertex="1">
          <mxGeometry x="369.9958823529411" y="572.115357142857" width="31.10294117647058" height="38.30357142857143" as="geometry" />
        </mxCell>
        <mxCell id="VzEyl7pLeXNEImk8ZBch-47" style="edgeStyle=orthogonalEdgeStyle;rounded=0;orthogonalLoop=1;jettySize=auto;html=1;entryX=0;entryY=0.5;entryDx=0;entryDy=0;endArrow=none;startFill=0;" parent="1" source="a8CHna9Du4veWzm3w8Nn-4" target="a8CHna9Du4veWzm3w8Nn-1" edge="1">
          <mxGeometry relative="1" as="geometry">
            <Array as="points">
              <mxPoint x="386" y="653" />
            </Array>
          </mxGeometry>
        </mxCell>
        <mxCell id="a8CHna9Du4veWzm3w8Nn-4" value="ENT-SQL" style="sketch=0;pointerEvents=1;shadow=0;dashed=0;html=1;strokeColor=none;fillColor=#505050;labelPosition=center;verticalLabelPosition=bottom;verticalAlign=top;outlineConnect=0;align=center;shape=mxgraph.office.servers.sql_server;container=0;" parent="1" vertex="1">
          <mxGeometry x="371.43034482758594" y="677.3500000000001" width="29.67310344827586" height="38.68" as="geometry" />
        </mxCell>
        <mxCell id="VzEyl7pLeXNEImk8ZBch-42" style="edgeStyle=orthogonalEdgeStyle;rounded=0;orthogonalLoop=1;jettySize=auto;html=1;entryX=0;entryY=0.5;entryDx=0;entryDy=0;endArrow=none;startFill=0;" parent="1" source="a8CHna9Du4veWzm3w8Nn-5" target="a8CHna9Du4veWzm3w8Nn-1" edge="1">
          <mxGeometry relative="1" as="geometry">
            <Array as="points">
              <mxPoint x="480" y="653" />
            </Array>
          </mxGeometry>
        </mxCell>
        <mxCell id="a8CHna9Du4veWzm3w8Nn-5" value="ENT-IIS" style="sketch=0;pointerEvents=1;shadow=0;dashed=0;html=1;strokeColor=none;fillColor=#505050;labelPosition=center;verticalLabelPosition=bottom;verticalAlign=top;outlineConnect=0;align=center;shape=mxgraph.office.servers.web_server;rotation=0;" parent="1" vertex="1">
          <mxGeometry x="466" y="574.63" width="33" height="43.32" as="geometry" />
        </mxCell>
        <mxCell id="VzEyl7pLeXNEImk8ZBch-1" value="Internet" style="image;aspect=fixed;perimeter=ellipsePerimeter;html=1;align=center;shadow=0;dashed=0;spacingTop=3;image=img/lib/active_directory/internet_cloud.svg;" parent="1" vertex="1">
          <mxGeometry x="679.14" y="416" width="47.62" height="30" as="geometry" />
        </mxCell>
        <mxCell id="VzEyl7pLeXNEImk8ZBch-44" style="edgeStyle=orthogonalEdgeStyle;rounded=0;orthogonalLoop=1;jettySize=auto;html=1;entryX=0;entryY=0.5;entryDx=0;entryDy=0;endArrow=none;startFill=0;" parent="1" source="VzEyl7pLeXNEImk8ZBch-2" target="a8CHna9Du4veWzm3w8Nn-1" edge="1">
          <mxGeometry relative="1" as="geometry">
            <Array as="points">
              <mxPoint x="570" y="653" />
            </Array>
          </mxGeometry>
        </mxCell>
        <mxCell id="VzEyl7pLeXNEImk8ZBch-2" value="ENT-SIEM" style="sketch=0;shadow=0;dashed=0;html=1;strokeColor=none;fillColor=#505050;labelPosition=center;verticalLabelPosition=bottom;verticalAlign=top;outlineConnect=0;align=center;shape=mxgraph.office.databases.database_server_blue;" parent="1" vertex="1">
          <mxGeometry x="560.0000000000001" y="574.63" width="33" height="44" as="geometry" />
        </mxCell>
        <mxCell id="VzEyl7pLeXNEImk8ZBch-56" style="edgeStyle=orthogonalEdgeStyle;rounded=0;orthogonalLoop=1;jettySize=auto;html=1;entryX=1;entryY=0.5;entryDx=0;entryDy=0;endArrow=none;startFill=0;" parent="1" source="VzEyl7pLeXNEImk8ZBch-4" target="a8CHna9Du4veWzm3w8Nn-1" edge="1">
          <mxGeometry relative="1" as="geometry">
            <Array as="points">
              <mxPoint x="864" y="653" />
            </Array>
          </mxGeometry>
        </mxCell>
        <mxCell id="VzEyl7pLeXNEImk8ZBch-4" value="ENT-WIN7" style="points=[[0.03,0.03,0],[0.5,0,0],[0.97,0.03,0],[1,0.4,0],[0.97,0.745,0],[0.5,1,0],[0.03,0.745,0],[0,0.4,0]];verticalLabelPosition=bottom;sketch=0;html=1;verticalAlign=top;aspect=fixed;align=center;pointerEvents=1;shape=mxgraph.cisco19.workstation;fillColor=#005073;strokeColor=none;container=0;" parent="1" vertex="1">
          <mxGeometry x="844.56" y="680.0000000000001" width="39.22" height="31.38" as="geometry" />
        </mxCell>
        <mxCell id="VzEyl7pLeXNEImk8ZBch-46" style="edgeStyle=orthogonalEdgeStyle;rounded=0;orthogonalLoop=1;jettySize=auto;html=1;entryX=0;entryY=0.5;entryDx=0;entryDy=0;endArrow=none;startFill=0;" parent="1" source="VzEyl7pLeXNEImk8ZBch-7" target="a8CHna9Du4veWzm3w8Nn-1" edge="1">
          <mxGeometry relative="1" as="geometry">
            <Array as="points">
              <mxPoint x="480" y="653" />
            </Array>
          </mxGeometry>
        </mxCell>
        <mxCell id="VzEyl7pLeXNEImk8ZBch-7" value="ENT-KALI" style="sketch=0;pointerEvents=1;shadow=0;dashed=0;html=1;strokeColor=none;fillColor=#505050;labelPosition=center;verticalLabelPosition=bottom;verticalAlign=top;outlineConnect=0;align=center;shape=mxgraph.office.servers.server_generic;" parent="1" vertex="1">
          <mxGeometry x="466.00000000000017" y="677.3499999999999" width="20" height="39" as="geometry" />
        </mxCell>
        <mxCell id="VzEyl7pLeXNEImk8ZBch-57" style="edgeStyle=orthogonalEdgeStyle;rounded=0;orthogonalLoop=1;jettySize=auto;html=1;entryX=1;entryY=0.5;entryDx=0;entryDy=0;endArrow=none;startFill=0;" parent="1" source="VzEyl7pLeXNEImk8ZBch-8" target="a8CHna9Du4veWzm3w8Nn-1" edge="1">
          <mxGeometry relative="1" as="geometry">
            <Array as="points">
              <mxPoint x="950" y="653" />
            </Array>
          </mxGeometry>
        </mxCell>
        <mxCell id="VzEyl7pLeXNEImk8ZBch-8" value="ENT-WINXP" style="points=[[0.03,0.03,0],[0.5,0,0],[0.97,0.03,0],[1,0.4,0],[0.97,0.745,0],[0.5,1,0],[0.03,0.745,0],[0,0.4,0]];verticalLabelPosition=bottom;sketch=0;html=1;verticalAlign=top;aspect=fixed;align=center;pointerEvents=1;shape=mxgraph.cisco19.workstation;fillColor=#005073;strokeColor=none;container=0;" parent="1" vertex="1">
          <mxGeometry x="929.9999999999999" y="681.0000000000001" width="39.22" height="31.38" as="geometry" />
        </mxCell>
        <mxCell id="VzEyl7pLeXNEImk8ZBch-55" style="edgeStyle=orthogonalEdgeStyle;rounded=0;orthogonalLoop=1;jettySize=auto;html=1;entryX=1;entryY=0.5;entryDx=0;entryDy=0;endArrow=none;startFill=0;" parent="1" source="VzEyl7pLeXNEImk8ZBch-9" target="a8CHna9Du4veWzm3w8Nn-1" edge="1">
          <mxGeometry relative="1" as="geometry">
            <Array as="points">
              <mxPoint x="780" y="653" />
            </Array>
          </mxGeometry>
        </mxCell>
        <mxCell id="VzEyl7pLeXNEImk8ZBch-9" value="ENT-WIN10" style="points=[[0.03,0.03,0],[0.5,0,0],[0.97,0.03,0],[1,0.4,0],[0.97,0.745,0],[0.5,1,0],[0.03,0.745,0],[0,0.4,0]];verticalLabelPosition=bottom;sketch=0;html=1;verticalAlign=top;aspect=fixed;align=center;pointerEvents=1;shape=mxgraph.cisco19.workstation;fillColor=#005073;strokeColor=none;container=0;" parent="1" vertex="1">
          <mxGeometry x="760" y="680" width="39.22" height="31.38" as="geometry" />
        </mxCell>
        <mxCell id="VzEyl7pLeXNEImk8ZBch-59" style="edgeStyle=orthogonalEdgeStyle;rounded=0;orthogonalLoop=1;jettySize=auto;html=1;entryX=1;entryY=0.5;entryDx=0;entryDy=0;endArrow=none;startFill=0;" parent="1" source="VzEyl7pLeXNEImk8ZBch-10" target="VzEyl7pLeXNEImk8ZBch-58" edge="1">
          <mxGeometry relative="1" as="geometry">
            <Array as="points">
              <mxPoint x="817" y="560" />
              <mxPoint x="778" y="560" />
            </Array>
          </mxGeometry>
        </mxCell>
        <mxCell id="VzEyl7pLeXNEImk8ZBch-10" value="ENT-PROXY" style="sketch=0;pointerEvents=1;shadow=0;dashed=0;html=1;strokeColor=none;fillColor=#505050;labelPosition=center;verticalLabelPosition=bottom;verticalAlign=top;outlineConnect=0;align=center;shape=mxgraph.office.servers.web_server;rotation=0;" parent="1" vertex="1">
          <mxGeometry x="810" y="570" width="31.05" height="42.93" as="geometry" />
        </mxCell>
        <mxCell id="VzEyl7pLeXNEImk8ZBch-60" style="edgeStyle=orthogonalEdgeStyle;rounded=0;orthogonalLoop=1;jettySize=auto;html=1;entryX=1;entryY=0.5;entryDx=0;entryDy=0;endArrow=none;startFill=0;" parent="1" source="VzEyl7pLeXNEImk8ZBch-12" target="VzEyl7pLeXNEImk8ZBch-58" edge="1">
          <mxGeometry relative="1" as="geometry">
            <Array as="points">
              <mxPoint x="912" y="560" />
            </Array>
          </mxGeometry>
        </mxCell>
        <mxCell id="VzEyl7pLeXNEImk8ZBch-12" value="ENT-VPN" style="sketch=0;pointerEvents=1;shadow=0;dashed=0;html=1;strokeColor=none;fillColor=#505050;labelPosition=center;verticalLabelPosition=bottom;verticalAlign=top;outlineConnect=0;align=center;shape=mxgraph.office.servers.trusted_application_server;" parent="1" vertex="1">
          <mxGeometry x="894" y="568.27" width="36" height="46" as="geometry" />
        </mxCell>
        <mxCell id="VzEyl7pLeXNEImk8ZBch-85" style="edgeStyle=orthogonalEdgeStyle;rounded=0;orthogonalLoop=1;jettySize=auto;html=1;endArrow=none;startFill=0;" parent="1" source="VzEyl7pLeXNEImk8ZBch-15" target="a8CHna9Du4veWzm3w8Nn-1" edge="1">
          <mxGeometry relative="1" as="geometry" />
        </mxCell>
        <mxCell id="VzEyl7pLeXNEImk8ZBch-15" value="" style="sketch=0;pointerEvents=1;shadow=0;dashed=0;html=1;strokeColor=none;labelPosition=center;verticalLabelPosition=bottom;verticalAlign=top;outlineConnect=0;align=center;shape=mxgraph.office.concepts.firewall;fillColor=#DA4026;" parent="1" vertex="1">
          <mxGeometry x="652.1060774058578" y="810.004449339207" width="29.911861924686196" height="24.62555066079295" as="geometry" />
        </mxCell>
        <mxCell id="VzEyl7pLeXNEImk8ZBch-81" style="edgeStyle=orthogonalEdgeStyle;rounded=0;orthogonalLoop=1;jettySize=auto;html=1;endArrow=none;startFill=0;" parent="1" source="VzEyl7pLeXNEImk8ZBch-16" target="VzEyl7pLeXNEImk8ZBch-15" edge="1">
          <mxGeometry relative="1" as="geometry" />
        </mxCell>
        <mxCell id="VzEyl7pLeXNEImk8ZBch-16" value="" style="image;html=1;image=img/lib/clip_art/networking/Switch_128x128.png" parent="1" vertex="1">
          <mxGeometry x="640.0541176470588" y="879.4214285714286" width="55.29411764705882" height="56.410714285714285" as="geometry" />
        </mxCell>
        <mxCell id="VzEyl7pLeXNEImk8ZBch-76" style="edgeStyle=orthogonalEdgeStyle;rounded=0;orthogonalLoop=1;jettySize=auto;html=1;entryX=0;entryY=0.5;entryDx=0;entryDy=0;endArrow=none;startFill=0;" parent="1" source="VzEyl7pLeXNEImk8ZBch-17" target="VzEyl7pLeXNEImk8ZBch-16" edge="1">
          <mxGeometry relative="1" as="geometry">
            <Array as="points">
              <mxPoint x="445.06" y="908" />
            </Array>
          </mxGeometry>
        </mxCell>
        <mxCell id="VzEyl7pLeXNEImk8ZBch-17" value="IDMZ-RDP-GW" style="sketch=0;pointerEvents=1;shadow=0;dashed=0;html=1;strokeColor=none;fillColor=#505050;labelPosition=center;verticalLabelPosition=bottom;verticalAlign=top;outlineConnect=0;align=center;shape=mxgraph.office.servers.server_generic;" parent="1" vertex="1">
          <mxGeometry x="435.0600000000002" y="841.4399999999999" width="20" height="39" as="geometry" />
        </mxCell>
        <mxCell id="VzEyl7pLeXNEImk8ZBch-78" style="edgeStyle=orthogonalEdgeStyle;rounded=0;orthogonalLoop=1;jettySize=auto;html=1;entryX=0;entryY=0.5;entryDx=0;entryDy=0;endArrow=none;startFill=0;" parent="1" source="VzEyl7pLeXNEImk8ZBch-18" target="VzEyl7pLeXNEImk8ZBch-16" edge="1">
          <mxGeometry relative="1" as="geometry">
            <Array as="points">
              <mxPoint x="562" y="908" />
            </Array>
          </mxGeometry>
        </mxCell>
        <mxCell id="VzEyl7pLeXNEImk8ZBch-18" value="IDMZ-SQL" style="sketch=0;pointerEvents=1;shadow=0;dashed=0;html=1;strokeColor=none;fillColor=#505050;labelPosition=center;verticalLabelPosition=bottom;verticalAlign=top;outlineConnect=0;align=center;shape=mxgraph.office.servers.sql_server;container=0;" parent="1" vertex="1">
          <mxGeometry x="546.930344827586" y="841.4400000000002" width="29.67310344827586" height="38.68" as="geometry" />
        </mxCell>
        <mxCell id="VzEyl7pLeXNEImk8ZBch-22" value="Malicious site&lt;div&gt;&lt;span style=&quot;background-color: light-dark(#ffffff, var(--ge-dark-color, #121212)); color: light-dark(rgb(0, 0, 0), rgb(255, 255, 255));&quot;&gt;(Kali Linux&lt;/span&gt;&lt;/div&gt;&lt;div&gt;&lt;span style=&quot;background-color: light-dark(#ffffff, var(--ge-dark-color, #121212)); color: light-dark(rgb(0, 0, 0), rgb(255, 255, 255));&quot;&gt;222.222.222.222)&lt;/span&gt;&lt;/div&gt;" style="image;html=1;image=img/lib/clip_art/computers/Virus_128x128.png" parent="1" vertex="1">
          <mxGeometry x="557.71" y="408" width="36" height="36" as="geometry" />
        </mxCell>
        <mxCell id="VzEyl7pLeXNEImk8ZBch-24" value="Remote User" style="points=[[0.35,0,0],[0.98,0.51,0],[1,0.71,0],[0.67,1,0],[0,0.795,0],[0,0.65,0]];verticalLabelPosition=bottom;sketch=0;html=1;verticalAlign=top;aspect=fixed;align=center;pointerEvents=1;shape=mxgraph.cisco19.user;fillColor=#005073;strokeColor=none;" parent="1" vertex="1">
          <mxGeometry x="460" y="410" width="36" height="36" as="geometry" />
        </mxCell>
        <mxCell id="VzEyl7pLeXNEImk8ZBch-28" value="" style="sketch=0;pointerEvents=1;shadow=0;dashed=0;html=1;strokeColor=none;labelPosition=center;verticalLabelPosition=bottom;verticalAlign=top;outlineConnect=0;align=center;shape=mxgraph.office.concepts.firewall;fillColor=#DA4026;" parent="1" vertex="1">
          <mxGeometry x="652.7460774058577" y="594.0044493392071" width="29.911861924686196" height="24.62555066079295" as="geometry" />
        </mxCell>
        <mxCell id="VzEyl7pLeXNEImk8ZBch-30" value="Trend Vision One" style="shape=image;verticalLabelPosition=bottom;labelBackgroundColor=default;verticalAlign=top;aspect=fixed;imageAspect=0;image=data:image/png,iVBORw0KGgoAAAANSUhEUgAAANwAAADWCAYAAAC6weznAAAMTWlDQ1BJQ0MgUHJvZmlsZQAASImVVwdYU8kWnltSSQgQiICU0JsgIiWAlBBaAOlFEJWQBAglxoSgYkcXV3DtIoJlRVdBFDsgYsOuLIrdtSwWVFbWxXWxK29CAF32le/N982d//5z5p9zzp259w4AjA6BTJaLagGQJ82Xx4YEsCckp7BJXQAFhoAGDIC2QKiQcaOjIwAsg+3fy5ubAFG11xxVWv/s/69FWyRWCAFAoiFOFymEeRAfBABvFsrk+QAQZZC3mJ4vU+E1EOvKoYMQV6twpho3q3C6Gl/pt4mP5UH8BAAyTSCQZwKg2QN5doEwE+owYLTAWSqSSCH2h9g3L2+qCOL5ENtCGzgnQ6XPSf9GJ/NvmulDmgJB5hBWx9JfyIEShSxXMPP/TMf/Lnm5ysE5bGClZclDY1Uxw7w9yZkarsI0iN9J0yOjINYBAMUlon57FWZlKUMT1PaorVDBgzkDLIjHKXLj+AN8rEgQGA6xEcQZ0tzIiAGbogxJsMoG5g8tl+Tz4yHWh7harAiKG7A5IZ8aOzjvzQw5jzvAPxfI+31Q6X9R5iRw1fqYTpaYP6CPORVmxSdBTIU4sECSGAmxJsSRipy48AGb1MIsXuSgjVwZq4rFEmK5WBoSoNbHyjLkwbED9jvzFIOxYyeyJPzIAXw1Pys+VJ0r7IlQ0O8/jAXrEUu5CYM6YsWEiMFYROLAIHXsOFksTYhT87i+LD8gVj0Wt5flRg/Y4wHi3BAVbw5xvKIgbnBsQT5cnGp9vFiWHx2v9hOvyBaERav9wfeCCMADgYANlLCmg6kgG0jauhu64Z26JxgIgBxkAjFwHGAGRyT190jhNQ4Ugt8hEgPF0LiA/l4xKID852GsipMMceqrI8gY6FOp5ICnEOeBcJAL75X9StIhDxLBE8hI/uGRAFYhjCEXVlX/v+cH2a8MFzIRA4xycEY2Y9CSGEQMJIYSg4l2uCHui3vjEfDqD6sLzsE9B+P4ak94SmgnPCLcIHQQ7kyRFMmHeTkedED94IH8pH+bH9waarrhAbgPVIfKOAs3BI64K5yHi/vBmd0gyxvwW5UV9jDtv0XwzRMasKM4U1DKCIo/xXb4SE17TbchFVWuv82P2tf0oXzzhnqGz8/7Jvsi2IYPt8S+xw5g57CT2AWsGWsAbOw41oi1YkdVeGjFPelfcYOzxfb7kwN1hq+Zr09WlUmFc61zl/MndV++eEa+ajPypspmyiWZWflsLvxiiNl8qdBpFNvF2cUNANX3R/16ex3T/11BWK1fuYW/AuBzvK+v78hXLuw4APs84Cvh8FfOlgM/LRoAnD8sVMoL1ByuuhDgm4MBd58BMAEWwBbG4wLcgTfwB0EgDESBeJAMJkPvs+A6l4PpYDZYAIpBKVgB1oIKsBlsBdVgN9gPGkAzOAnOgkvgCrgB7sLV0wlegB7wBnxEEISE0BEmYoCYIlaIA+KCcBBfJAiJQGKRZCQNyUSkiBKZjSxESpFVSAWyBalB9iGHkZPIBaQduYM8RLqQP5EPKIbSUF3UGLVGR6MclIuGo/HoJDQTnYYWoovQZWg5WoXuQuvRk+gl9Abagb5AezGAaWAszAxzxDgYD4vCUrAMTI7NxUqwMqwKq8Oa4HO+hnVg3dh7nIgzcTbuCFdwKJ6AC/Fp+Fx8KV6BV+P1+Gn8Gv4Q78G/EOgEI4IDwYvAJ0wgZBKmE4oJZYTthEOEM3AvdRLeEIlEFtGG6AH3YjIxmziLuJS4kbiHeILYTnxM7CWRSAYkB5IPKYokIOWTiknrSbtIx0lXSZ2kd2QNsinZhRxMTiFLyUXkMvJO8jHyVfIz8keKFsWK4kWJoogoMynLKdsoTZTLlE7KR6o21YbqQ42nZlMXUMupddQz1HvU1xoaGuYanhoxGhKN+RrlGns1zms81HhP06HZ03i0VJqStoy2g3aCdof2mk6nW9P96Sn0fPoyeg39FP0B/Z0mU9NJk68p0pynWalZr3lV8yWDwrBicBmTGYWMMsYBxmVGtxZFy1qLpyXQmqtVqXVY65ZWrzZTe4x2lHae9lLtndoXtJ/rkHSsdYJ0RDqLdLbqnNJ5zMSYFkweU8hcyNzGPMPs1CXq2ujydbN1S3V367bp9ujp6LnqJerN0KvUO6rXwcJY1iw+K5e1nLWfdZP1YYTxCO4I8YglI+pGXB3xVn+kvr++WL9Ef4/+Df0PBmyDIIMcg5UGDQb3DXFDe8MYw+mGmwzPGHaP1B3pPVI4smTk/pG/GKFG9kaxRrOMthq1GvUamxiHGMuM1xufMu42YZn4m2SbrDE5ZtJlyjT1NZWYrjE9bvobW4/NZeeyy9mn2T1mRmahZkqzLWZtZh/NbcwTzIvM95jft6BacCwyLNZYtFj0WJpajrecbVlr+YsVxYpjlWW1zuqc1VtrG+sk68XWDdbPbfRt+DaFNrU292zptn6202yrbK/bEe04djl2G+2u2KP2bvZZ9pX2lx1QB3cHicNGh/ZRhFGeo6SjqkbdcqQ5ch0LHGsdHzqxnCKcipwanF6OthydMnrl6HOjvzi7Oec6b3O+O0ZnTNiYojFNY/50sXcRulS6XB9LHxs8dt7YxrGvXB1cxa6bXG+7Md3Guy12a3H77O7hLnevc+/ysPRI89jgcYujy4nmLOWc9yR4BnjO82z2fO/l7pXvtd/rD29H7xzvnd7Px9mME4/bNu6xj7mPwGeLT4cv2zfN90ffDj8zP4Ffld8jfwt/kf92/2dcO242dxf3ZYBzgDzgUMBbnhdvDu9EIBYYElgS2BakE5QQVBH0INg8ODO4NrgnxC1kVsiJUEJoeOjK0Ft8Y76QX8PvCfMImxN2OpwWHhdeEf4owj5CHtE0Hh0fNn71+HuRVpHSyIYoEMWPWh11P9omelr0kRhiTHRMZczT2DGxs2PPxTHjpsTtjHsTHxC/PP5ugm2CMqElkZGYmliT+DYpMGlVUseE0RPmTLiUbJgsSW5MIaUkpmxP6Z0YNHHtxM5Ut9Ti1JuTbCbNmHRhsuHk3MlHpzCmCKYcSCOkJaXtTPskiBJUCXrT+ekb0nuEPOE64QuRv2iNqEvsI14lfpbhk7Eq43mmT+bqzK4sv6yyrG4JT1IheZUdmr05+21OVM6OnL7cpNw9eeS8tLzDUh1pjvT0VJOpM6a2yxxkxbKOaV7T1k7rkYfLtysQxSRFY74u/NFvVdoqv1M+LPAtqCx4Nz1x+oEZ2jOkM1pn2s9cMvNZYXDhT7PwWcJZLbPNZi+Y/XAOd86Wucjc9Lkt8yzmLZrXOT9kfvUC6oKcBT8XORetKvprYdLCpkXGi+YvevxdyHe1xZrF8uJbi70Xb/4e/17yfduSsUvWL/lSIiq5WOpcWlb6aalw6cUfxvxQ/kPfsoxlbcvdl29aQVwhXXFzpd/K6lXaqwpXPV49fnX9GvaakjV/rZ2y9kKZa9nmddR1ynUd5RHljest169Y/6kiq+JGZUDlng1GG5ZseLtRtPHqJv9NdZuNN5du/vCj5MfbW0K21FdZV5VtJW4t2Pp0W+K2cz9xfqrZbri9dPvnHdIdHdWx1adrPGpqdhrtXF6L1ipru3al7rqyO3B3Y51j3ZY9rD2le8Fe5d7f9qXtu7k/fH/LAc6BuoNWBzccYh4qqUfqZ9b3NGQ1dDQmN7YfDjvc0uTddOiI05EdzWbNlUf1ji4/Rj226Fjf8cLjvSdkJ7pPZp583DKl5e6pCaeun4453XYm/Mz5s8FnT53jnjt+3ud88wWvC4cvci42XHK/VN/q1nroZ7efD7W5t9Vf9rjceMXzSlP7uPZjV/2unrwWeO3sdf71Szcib7TfTLh5+1bqrY7botvP7+TeefVLwS8f786/R7hXcl/rftkDowdVv9r9uqfDvePow8CHrY/iHt19LHz84oniyafORU/pT8uemT6ree7yvLkruOvKbxN/63whe/Gxu/h37d83vLR9efAP/z9aeyb0dL6Sv+r7c+lrg9c7/nL9q6U3uvfBm7w3H9+WvDN4V/2e8/7ch6QPzz5O/0T6VP7Z7nPTl/Av9/ry+vpkArmg/1cAA6qjTQYAf+4AgJ4MABOeG6kT1efD/oKoz7T9CPwnrD5D9hd3AOrgP31MN/y7uQXA3m0AWEN9RioA0XQA4j0BOnbsUB08y/WfO1WFCM8GP0Z+Ts9LB/+mqM+k3/g9vAUqVVcwvP0XtjqDBHOoMmYAAACKZVhJZk1NACoAAAAIAAQBGgAFAAAAAQAAAD4BGwAFAAAAAQAAAEYBKAADAAAAAQACAACHaQAEAAAAAQAAAE4AAAAAAAAAkAAAAAEAAACQAAAAAQADkoYABwAAABIAAAB4oAIABAAAAAEAAADcoAMABAAAAAEAAADWAAAAAEFTQ0lJAAAAU2NyZWVuc2hvdMR0js4AAAAJcEhZcwAAFiUAABYlAUlSJPAAAAHWaVRYdFhNTDpjb20uYWRvYmUueG1wAAAAAAA8eDp4bXBtZXRhIHhtbG5zOng9ImFkb2JlOm5zOm1ldGEvIiB4OnhtcHRrPSJYTVAgQ29yZSA2LjAuMCI+CiAgIDxyZGY6UkRGIHhtbG5zOnJkZj0iaHR0cDovL3d3dy53My5vcmcvMTk5OS8wMi8yMi1yZGYtc3ludGF4LW5zIyI+CiAgICAgIDxyZGY6RGVzY3JpcHRpb24gcmRmOmFib3V0PSIiCiAgICAgICAgICAgIHhtbG5zOmV4aWY9Imh0dHA6Ly9ucy5hZG9iZS5jb20vZXhpZi8xLjAvIj4KICAgICAgICAgPGV4aWY6UGl4ZWxZRGltZW5zaW9uPjIxNDwvZXhpZjpQaXhlbFlEaW1lbnNpb24+CiAgICAgICAgIDxleGlmOlBpeGVsWERpbWVuc2lvbj4yMjA8L2V4aWY6UGl4ZWxYRGltZW5zaW9uPgogICAgICAgICA8ZXhpZjpVc2VyQ29tbWVudD5TY3JlZW5zaG90PC9leGlmOlVzZXJDb21tZW50PgogICAgICA8L3JkZjpEZXNjcmlwdGlvbj4KICAgPC9yZGY6UkRGPgo8L3g6eG1wbWV0YT4Kb298hAAAABxpRE9UAAAAAgAAAAAAAABrAAAAKAAAAGsAAABrAAAsO0WML64AACwHSURBVHgB7H15cBzXeecHYDAYnIP7JEgAvO/7FiXHsmxH0VqOHclO5NjeOLVx1VaSytYmf2zt1lZtJXvYSarWe7jWUsV2pJQsxzblSy47OklRvEnwvkDcNzC4gRkMBsD+fl/PA4ZDkJwBBiAG6Cc1u6e70e/11+/3vvN9L2ESRexiU8CmwIJQIMEG3ILQ2a7EpoBSwAZcnHSE8fFx8fvHZGRkxNq8XpmYmJCEhARJSkqStNRUSUtPk/S0NHE4HJKYmBgnb7a8mmkDbhF/b0r7ZvP5fDI4OCStrW3S1t4hXd3dAKBfgeVyuaSwoECKi4tkRVmJpAF0ycnJkgDQJeD9CEq7LA4K2IBbHN9hxlYMDQ1LX3+/dHZ2ST/2Q8PDMjo6is2vYAvlcE5nsqSkpIgrxSUZmemSnZUlBYUF4saeALTL4qCADbjF8R1UPKTY6IWo6COofKMyMDgovX190tXVrdyNYCO3CudY/G04IV+HHC8rM0MKwPWy3W7JzMqU1FQXwAhA4hrFzfBnLBIyLPlm2IBbJJ+Y+pnXOyItLZbI2NnVpdzMcLHQZvIcwWmuEUBmC7+PoiU5XFlpsYqcRYWF4nQ6Vc8Lvdc+XhgK2IBbGDrfUwu5USAQUONHX/+A9IGLUXz0Qk8bgdjo9fr0mIDivSzckyu5XCmSBTExNzdXUsGteM/Q0JD09PaBCw7K2NiY3kcA8hr3DgeNKmniApczxpWM9HTJyc7GszIlHcc2x7vnE83bDxtw80ba6QcTLGplBBjGYOggN6MRhPpZT0+vdHd7ZBCgoRGEHZ8gMQCgucMBLkUdzZXilPSMDCnMz5fikhK1SE5MjKvY2d7eKd0ej4qkfH4ggLrGAlONYBsMgMnx3ABaXn6e5OXkijs7S7meE/Ukg/sl21bOKbrF+sAGXKwpOsPzyHVozvd4eqQT1kUCbBgczY/zBgQEBDdTeJ4gTQEACosKpaykWIqKiiQ1LVXPhZr+eR85pg96X19fP6yYlljKY56n24AgNsUAGtjWa9TryO0KCvLV2pmd7VYDjLnf3seOAjbgYkdLfZJyMnCqkREvrIpDauxQERHGkBFu6kfz3mNlNE0g4AgkWhszwIWy3FnixpaVmYm9WzLA3ZKTH+xjY92si8YWgm1oaFAGBgZV5BweHpFRtItANtzT1JsEMFLcpA+PHJSiqhpZsM+E8YUiJ0XRUJCbv7X30VHABlx09Jq624ho7OQWN7I4EsVCgqq3D6KixxIXh6GXGd2K3Ca0w1siJMXIJLE6fqoCrKAgT0pLSyQPulood5pqwCMO2CaCr6enRzrgVqDfju1g+wKBceWe4RyVv81GrpcNUTMvN09yc3IkJydbLZw0wlAnTMR7sL2GWz6iOfblIAVswM2yKxBA7ND9AwNqrKDhohdcxQcuRlGRQBxHxw4EAWk4i+nQprOTa+RDl8rPszo2TfiGm6RAZ+P1UIBG2lw+f2KCxpmxKZBxIOiHkaYLFlAPgMj2mnaFgpp/m5SUiM2hIicHCQe2NIizNNgQfNxnZqQr92Mb7RIZBWzAPYRO7HjUgcgVuFEko9OZBg/6xKgzqYhI3xnOUWwjENmJWcKBwk6tzmlYGlNdqSq2pUJUo3Oa4mMmxDlyFoqN81GMLknL6AAGCraXznQvgGgMOfQBhhczONCdQNBR9KQumYZ3oNXUCRGY70VRVH/T8KKccHaDRXj9S+n3sgec6Uzch2/j4xMKJOpEjPRgaBU5BK2LdFCzA3P0Z7FEw2nroukkfCaNExQZ2QlzYJCgcaIgvyDIKTLNrY9lTwNOR2en9MKtQPGTYCR3NnQJHzR4ngOKoRUbbayeObk56minvknuRxDyvRMTLWc9nxW6PZYXfsyVLnvATYVKjUH3wojPUX8YDmgvjB70ixFUFMuo9wRgZifHo5hoOmVohzSdkHtyAxobGOlBX1cGOiCNHhQTU5zgCjDzLwYHNDk2aTBGNwLdFTgewsBCNwUHGQKQXDyUa4e+M/svxU+Hw9LtKF7SrUBxNFldGSnKFcnJSQ/daGkFGM1g9ZgxsKDVL0nAsXOoDgUONT5ugUT1GRxTr+I1gobgYQiVH2Cj3kWQ0bpI8ZBgY0c0ozm/CoFkRmjzlSgmknOpDwt7ioMEUgrEKzqXNbRKLX0Qw9DpQnUl84zFtOf70rhCRzwtnNRRjbHFD3qMgk7073Eg4mYK6WIGHHOOgCItKCZT1CQnTAfYKE4TcI6gxVV1RBhiCFaH6o0EMK2xMMyoLmkZmsKBbuqJp/2SBJzqW+wcGL2po7DD8Fj1LYzWo9S3YPCgoYOdBFACkKb9VA8aeQ1X4wc2Iz7BRh2MhoS8vBy16uXAqkdOZp4Tjx1FPYJKG1FgUYTuhh/RA+c69xpMDVCSDmYQ4vvO9K68x9xnQMmBh6AiIOmC4GDEASodU4wsYKYpKElHAtYC4PQ3iieQhbZ1wQBnCG0q5wfgOfMxrG9rRWRY16w7oVnJpFrbLE41jsgK6lYT2FQM4kgb5FQccfm35h7lZLhGLse/Uashfk+gMl4LHaFNu8w+tL3sSASWBv+ic7BjsFNYRgKXgosjNjflbkGwzdT5zPPjaU+aUqQeHQXXp+GIUkHQiERLrTEcjYwM49inEoL1Dacd+aRnOHfnbwt45GR0M1hcznA1nqP7weJ8PLZASi5I14SeV04IKYPcERzTPIPXEqA7Jgb1RtKb30OfGayXdZvBwlyf728WE8BZHyQwrfNA5CCBWcxIyU4+SZDxHI8ncQwgKUAABgKL/wcADoKJ162/xz08TzEGeoYRCQ1gCBoVB/Hh2Qn4PP27YP2GgKY9vGYIbc4ZoutH50fGh+AxTeFJDn5MiogpKg4RaHREZ2KjxY4g4/3LsZDWlB4sa+cQRNChoNWTrhE/vpWl7/J7juNe61tbIr35TqHfx5wLp2Xo9+HAZ4DmBMB4bBmkoDPiWhKAmKz6JM8TZAA1pRcYrnjMb0rg0ofI+YIKSB6jUv0dPNb7rX94Bc9K0Lr4bHJk9g/T9vD2Pux3TADHTk95v6m5GQ5Wjx5b4heBQ/GLzmELcASeIos7HX2mf041lIAM/iAheJ9VCNTgkTnAT3Z4C8Tmr4K3B3e8xo9pAGaumvP8e34sFWUg0qiZPisDRg7L2EHO5oShw1jbeL9+yKD1zTxvOe4NXbmfGlRBb+rADF+jDkj3CUVSSx+kYWpY9WfS34AplHY8FzqIhXZsc8y9BVDtSAoY059CukbwPJ8OCyn+1buD3Un7Q/AE6yNnJXjZ3QhSclcesy7q5vQ9MhChfMUKNYKFtjG0/Q87nhPgDJdpaGyS1rZ2GRzoR/gSdafRewDAFzMbG6Mvir0h3sMayGu8L/TvQ+/nNXM9/LxFREv0oMiR7OQoaAXnEmAU/7jnRhHFiWtmIqcRD/mboyhHNLtETgHjv6QIqtIJBmW1COM3raGWOmAMWhRZp/2dxihjrMG8ZoDNFph+Y/pReKvM9dDz5lzo34Qes6/wHnMf9wZQOFQgWgagFI07LUVsa3n5Cu0X5r7Q+h50PCfA0aLHaPer169Lc3OL1hHa6AdVGn4+9G9CX5j3mWsqgmI04stb50ggvUMfF3qeYoIl7xNsmAkdtJRRMae1jGCiIs6IDuOoJajssjAUYEdXVQDg05kNUCP8NGoxgACblwEFcM3wGu/jRtBxgNeCfqAykO6DA3hwUCeXtfrCtNTD+kK32b4ln0Hgc/BdubJctm7epLGu7EuRljkBrh25Nc5frJYB+GooQrCoaIFGsZiX1B8z/MORgRtfgJs5nj5vsXkqyVbsHu8LmuHBeXhOWT9EOzVWqH+LXMuS5wkiKs78j+Ign2vkdlOHnsMXMkCfoZn2qXmggOm8po+Y36b/GI6GPj5tHOO0o6A7R/2iAXBL6PYmNtTikryHdgC6fqxrUxwzCFpTh3ktM6ib36H70GvmmHuCjIHlu3Zs14m9oX/zsONZAY7EIcAaIUqePXdBRx9TCad20PeknR0ciASzrEUEl7Ikcys6ucXGpzu/1fHNi5nztDyRY+lvvGwSgKTKb4gYQLGQoGW9FA8NgKcqsw/ilgIECLkbgUV7gFqpYVSbjlXF+aBhhoYaNdDob2PRxt78HZ5lSUvomCiW3kl+if/UiGdxMcvuAMaB/kbwaugegyHAgdkPWdjX9u7ZpdyOFmv220eVWQOOIUF19Q1y+cpVrYgdnBWuX7dW1q1do6Zy0zDT+dlAu9gUWEwUIJiNjkhQG2DzHDfCkjonc8s0t7RIR0enAs5w5m1bt0hlxSoNQJ83wLGRLa2tUl/fKLfv1Cj96KBk8O06AG51VZWKfoawhmNF0iDzN/bepsBCUMAAh3WZY+7Vqk7xDJDjMfXIm7duy/UbN7VZxAALmUtFxUrkjCmd4nx64QH/zIrDsbLGpiYF3N3aOm0oZVrOm9qwfq1UVVU+oDr7tE2B+KUApbnqS1fUTmEMOKvR1wm4leXlCwc4ApCWv/y8XABunQ24+O1TdssfQoErV6/LpctXVNS0AfcQQtmXbArEggI24GJBRfsZNgUipIANuAgJZd9mUyAWFLABFwsq2s+wKRAhBWzARUgo+zabArGggA24WFDRfoZNgQgpYAMuQkLZt9kUiAUFbMDFgor2M2wKREgBG3AREsq+zaZALChgAy4WVLSfYVMgQgrYgIuQUPZtNgViQQEbcLGgov0MmwIRUsAGXISEsm+zKRALCtiAiwUV7WfYFIiQAjbgIiSUfZtNgVhQwAZcLKhoP8OmQIQUsAEXIaHs22wKxIICNuBiQUX7GTYFIqTAogIcc5rkYUE+O8VChF/Pvi3uKLBoAEfKMYNxTradRCjuepHd4IgpsKgAx0SY2VgjbQPS5NlZuyL+hvaNcUSBRQU4ipRcv3o9snYxdZhdbAosNQo8VsA1tzARbIPcqbmrdGWavCwsrbtx4wZZu2b1UqO1/T42BeSxAq6ltU0BF5p5mYvGbwLgmI3WLjYFlhoFZgLcmtVVmgiWa8aZ1P4Pe+9ZZ142gLtTU6MLdjDVuQ24h5HavhbvFLgfcJNgLmsBuFVIdV4yv4BrbSOH49oCd2zAxXtPstsfEQUuX74qFy9d1tT+JvOytbbAAgCuDSue1jU0yO3b5HCTuj5bRka6ipRcQccuNgWWGgWY5vxitQU4pvdPwOpUa6E+Va5aJaXzzeHuBxwXG0+TLZs3qvN7qRHbfh+bAgTchYuXlBAGcFwtqoKAwxLE86rDhQOOCyLSNbAFy7Bu2rje/jo2BZYcBaohTp6/UK3rIFKq4/Jr69ZZHK5kvgHX3tGhOhzXzGLlBBxdA1z3eNOmDUuO2PYL2RS4WH1Jzp2/qKvrGsAxlJHLVRUXFc0fh2NlXAG1vqERvolrNuDsvrgsKHAB69lziW2zki853NYtmyFSrpzfFVAJOE9Pj3I4yrUsbAQXtmcDqMfZZW4UII0DQ8MS8I7IhN8v4yMjMo71pSe5DC6WxtU9jqm5J4LuGF4lEd8gEe6ZJOjSSWnYIOLrBsnDLnOnAMXJs+fOqzRnnrZ921blcHm5uSpimvMP2s/KD2cBrheAq9cVIYl0ruPNbQcasHXr5gfVZ5+fgQKTsHgRQBMEE5a2ncA2PuYXf1eXjHZ3S2B4RPwY4Px9vTIxOmptvlGZBBAlEYBLT5cE0h8AcyDax4mPn5KTK06E2iW7s7G5JQFgTEgCICH6J2BLxP0Eq10ip0A44IiDHdsJuAqdKRPJktqzBlxvb5/UIbSLci0rooWGDdi1czsasS3yt1jmdxJsY0OD4uvsFG9Ts4zU1oqvsV7G2prA0SzupoAcx1rT41hXmuDEpnvQW4CZhEQLPPwOCQBggiNJuV2CI1G5XWJmjjhLSsW1cpWkV1ZJ2opyScnLkyRwQxt0kXfAmQC3c8d2qYTjOweB+/MKuP7+fgWcMZOysgBG6D27dynoIn+N5XcnOZm/r09G29vF39YKLtYho10AXHunjLa2ir+zQwKeLgALIiMWdcdwBk5GUGF7WCEAJ8e5Orz+HSAKAIKjpaRKcn6BOKHYuwi8wgJxFReLs6BInMUl4iooEEeQSz7s8cv5GpmJ0eFoIGThud27dijg3JQigIFHlVlzuIGBARhNGmC1qZ6qYwyi0N49u7URUyftA4sC+Dj8QORMY0NDMnDzpvR8dEL6PjwO0DWAmw3jgwEcEP0kiXuC69EfMDLyou4AgDg+Zul+k2PiyM6V1E07JPfQE5Kzew+4Xpk4UlNRd1JEHSeyepfGXfxu9LsZK6UBHAe2Pbt3CkO7srKyIqLbrAE3PDysHO7M2fNTVLUBN0WK+w4CoNdIS4sMVF+UwSuXxN/RIn5Yev09fdDFoI9RTATAEhLIzQC0CEbL+yp52AkFO0HPesA1AeykzEzoedDxCvLEVYpOs2WbZO7YKa58iJvQB+1iUYBgY9+uvsRIk0v3GE327d2tHC6dEkIE32zWgPN6fTCaNMhHp05rq1gZG2VEyki87kv9g9KaOA4jhw9iorehXgZrbsvAxYsyfOOGTHgHrNdPdKrBI+YAexRxAUC2DyZQgDtRHDn5krF5q7h37oSet1pSy8sBwlJtWyQd6VHVxfN1As7n88klxFJevnJ1yi3Adzq4f59yuNRU1/wBjhWNoiPV1dXL8RMntSIDuF07d8jOHdu0Ucv9QwVgyh/1eKTt6E+k9/j7MtpSD+YCDgaRkVzGKrESG4OPi3pHvQ//E3yTAbgYHJK2fpvk/dbTUvKZ55XTJSZDzF3GhYHKI/iWnC1w9dp17duqHoAmhw8dUA7HoI9Iyqw4HB9MAwkB9/6xD6cAx3MEG30TlHOXK5ejiX8Q1sbBa5el/+wp8dbWiQ8GkgmfF9wEOhJN8ouqULcEx5sA6IB/R5YbxpUySa+qkmzoeBmbNksqjCwJsEQvx8J+PQSfKMF2/cZNBRy5HsuTTxySysqKe8RMnn9QmTXgWCHdAu+9f0yfTXCxYdu2btGNSYWWG+A46gVgTPJChOw9e1r6zpyU/lPH1VKohhAF2mPkaNTj8L/F0vQAP639VAfhPbCOTo7DQorDvE89K7mHn4R+t1VS8vPFgUnGy61QVRoYGJRr128IQxkZ5GEA99STTyiHM9Enj6LNnABHHY4cjh2N4iMBx+BlRpukpaWqI/xRDVhK1/kRek6dlNajb4qv5qqMwWk9OQ6AGWXa7B/XS6N9k7BUCkQk5WZEFIwodB/cUwi6IBAdGVniWrVaMvcdlqKPPy3urVvvuXU5/PD7x6S/vw/c7Zbcun1nCnDs8x976ogCLlLmMmvAEWQNiKX84PgJfD+IIigEHFMsEHScGxcp6uP9o9Hk7odfsvf0KWzgaufOSqC/V6NGEpLhXF7oYsRDWiQJHmLeiSgUiIoORKHQ55aUjtAvuAHUSU5XAPQ0iozsROpoxzsx4mUM1lW1oCanSvqqCsnauFGy4Wt1ZGTqvQv9ao+jPj8ienoQ6HHz5i3N4cOIKhaCjByOsZSR2itmDThW2NjYJMc+/EitkypOAXCMnuZsATf8ElP+Ct68RAvf2+/pkaFbN6X5tVdl+OZ1xD0OQU+DYYTm/YUqypVQGZkTVC3qiQzfosGD8ZWJGTD/Qy9zIdIkBY5uJyJNGALmgPk/AQp/EjYN/0KbJxHRMjHK+E2vjPZ4YGVtkWGk0hgfHJQUOM9LPvc5dZwnQU+PtKMtFBnmo55R0KIbxi9yt7t3a1Vy43uzf1OHW7myPOJq5wS4pqZmOXHytFosyeW4MWPXhg3rJRehLgxmXsqFYOM7d/7qLen86ZvibayXcXAELYq1BQQc2mGJiwFJLkY0CcTAtDVrJL2iQtLKyiQRAc0Mcp5ExEqiEwYtgsWRDCskdG2cp/+PLkCyQ74XOaMCL4DYTlikGThNAE4gxnMCdTkLC8UF8HG0X+qg88IlwPmfNTV3pQFMxsQN0zJ5+OB+KS9fYX3zCP6dE+CYKu/0mbMwmXqVy7HzVVVW6LTzQoYPRWgqjaCdi/IWf2+P9J4/L13/8hvpP3lCozi0oQtlzaOljFwMYFJulZVpgcmdg0gSOK8hOjrgH0om9yK3xfchYIx+RnARbIku6NtpGQj/yocTvEADnx2YbWBFu0yTfmIsoLMWRvHeSTCeJMNpvhwAR5dAI5hLLazyLejzfGdyN9op9u/bKyvKSqeJ9IijOQGuFag/h+kKgzCZ0i9HwBHtTATLRqQyVGiJFuo3g9evSe23voWA4zsygY+iYVkLZRhhPQBcImcI5BVK+pYtMOOvVhCwbRwMhpHgabSuVvzNTeBSnNpDsFGvo6GEhi66KMDtUtNV3EzbsFmyEIzrXr9BUktK1CJpiZn3uwPIBbmRuy11DjcEqaW2tg42iybhxGsCjtwtE3aKPXt2Ib1CScS9fE6A6+jolOrLl6Wvt1+G0eEIOFbOGbDM85AOxXyplm7EQXZ/8L70Hf8ABpL+oO403yKkJeYlQgxMysq2jCDQlRPBnSaGhwD6IViuECYWgA4GfZpi4ATEIYqEAr3MCuviF6GixxIESxLESYzYNKbQGOLITJW0dRvFDcskjSQuiI8zFQO4ma4tpXODg0PITlcjTRi4uro8CjimE8mCRMHg5RL4KCMtcwJcF8ze16/flE7M26KfgmbxIoiSVCKZIJN5Kpda0egRvHfbT38invffk7GOdnUaw2Q1v6+K55s4SxUBMwE0fPREiosAix/tCHR3IWQMOiRFTSpk0NfUyf6otpFb8W/o+MagCc1UUpDYNGPbLsndf1CyEPKVhlCvxeewn1+Sm6ezb99AsDlzsfb09CpHZ+xkbm62BnkUPWBAMn8fup8T4Fg5LTdsSG9vrz43H4GvK6Ckb1i/VjIRHLvUykhzs3SdPCmet47K0OWL6PB4x0d16BgQgQaOxBTM4E7HIMaZBADImKcTXI3RK8QXwq9iaBWdHCOnHJGM7fsl7+OflBWf/7y6EWLwKnH3iP7+AY0yoTjJYzIWzg4oKS6UjRs2aHqFSF9qToDr6+OcuHrNbeKBaZyyPBtSXFSIaJPNwjlCS6aAC5C79V04K03fe0V8TU2IKqH5Hx2d+tR8FepIAJtOMiWwTVVoD/Uy4bQbFrYhlu1Ap6LVMwkzyDO2bpfiz3xeMiFeMsRruRX2cyYPomuABhQCjhNOyVjWrl0Ni3xOxCSZE+CI9iaM+FQoO7u61RFIvY1cbveunZK9hABHkWvg5g3xvPu2tL72D9CHqPdEFrAa8deY6Uaa6yEyKpgo+sFMryLjTPfOw7kJ/4i6ALL2HJSS33lOsnftAfgJfIP86UpprGFRQ8sM16fvjK+jHkhvJ0+dVSmOTnACLj8/VxPAci5cNIxlToAbgCO0FeLknTt3pQMpAuh55zSFPDhV98J6kwOz8VIp7EwNr7ws3e+9gxQIdehVQf1oIV4wtPMCdAtatD7odxKQin/7F1L82RfUd3dfIDPu8w/0qzmGhhf2haVivaTqdOIjRBFhlj6jqYytYg18zmWwxmdFoTrNCXCchNrR2QWF8pYCz/gnuE7coYMHoFRGzmoXtBNFWdkYA5KxlkLjK9+WfoRuTQbQ6QmCUCBE+cx4ul0zhPmGpOSlr0rhZ35XMioqNDLlnncA4MYwAPu5IeFRGowuKVGIWvc8axH9oCWWouSHH56UPlij+Vut8UhtvhEBHjQS0oASaZkT4DgJlai/fPkKRMuWKSeo250lRxDykg9OtxRGuSFMtfEgKLn75z9BiNMtOItB4GUCNnYkxopO+r2S/fQnpeATn5L8gwclGbr6PYUdESFQQ3V14kFMKe/JWr/+nlvi8Qe5WSeYyrHjJ+Bvhs6O767+5hVlsg3T0CjFUaqLtMwJcJRnh5HC7fyFizpVhxyOIwDdAU8eOSSFiFrguXgv3e+8LfX/79uImeyG2R2GCuowy6mg000iQiUdxpOcJ56Sss9+ViNbwklAPbfv7Fmpf/k7Uv6HX5b8p54KvyXufnNqDv3NxxEzTAc4+zMBx0xdtFPQZhFNCOOcAMeKGdjJ8K6aYFAnR4QMsFjOhC2CtTKaxiy2r8FZ0KMQjzp/+TNp+Pb/gtqG2NDlBjZ+FAIOFktXxRpxHzwkq176kgZAz/S9PMePS83fflNKXnxR8jGdJxWDrkbgzHRzHJzzYoBta++QU6fOaHCHARyjqZgwi9wtmlkxcwIcuRkBRoWS/jg2hr/TEIe3f98e9cAz3ixeyziiNPoQSdP5619I549fh6MZU1IcSzsge8Zvxek+AJyzdIVk7d0vlX/8x4g+KZrxVs+xY3LnG/8dwDwseU8+KXm7d2sW6BlvjoOTzE5HP/NFrJozAvDRGERGs2ZNlRxAHCUZSjRS3JwAR3oRdB9hxgABZ+RbxlAy1UIZktBQn4vXMgYlufmNN6Tnww+Q+OcKwIaojiUgIkf9PYKA4ywE9559Uvlv/kRnCsz0nB6k/bvzd38rycj87N61W1Z+6Usa3znTvfFwjmto0PXF1Ao+ZLs2fZzT0A5hpkC01tg5A45EY6o8Ao7Ip9nUWrZqo3Dd47y83Hig631tpBuAeUhq//f/lIEL5zAXjE5u6KOxMJZgkOLUF/yDeoNmfg3DWqTJegyHKysX994DUvG1r80YX8nBt+f4Man55jcwK2FUMhFQXfXn/w5z57AcL32JcVgYoN/Q2Kjz4Kg+EWAs6xFJdejA/qjfKCaA47pZd2ruTk3TYST1urVrZBViKouLZxY9om7pAv8BTdwjdXel9ht/LYOYXJqYEsO4UHZgWP0mJ+AoNqBLRlwkrZ+LsQQB56qCDnfgMHS4lzS/SXhTqU543ntXav7rXyMKp1syMOug8q/+o6bdS47CVxX+3Mf5m5OsmbuH8+BoQKH4SJ2N/Zs5KaMtMQEc2S1nwnrgIGSjCDiCjZacaGbDRtv4+bx/qLEBYVznpf2172lOyYSU2Mx8YIyiIyNN3IeelLRVFeJEiBAj+gcw1cfzzjsxj4mMCY2CRpOM7bsl+wislM89h3aH+VjB3cZhte5++zdy52/+s1pzUwHQ4t//suTs2QPfXWVMmrLQD6mtrZO7tfXCNe0pvSUDbBkId1uDjGbbtm2JujkxAVwNuNtdTM7jrFg2yokZxYUFhbJ6daVwBng8lt5z56QdnWfg2HvIkNyNnCBzCONCZzSSo7MwT9LXrZOCTz8n6Ws3iBPhb972NunGJNaW737HChdbbHoip/YEfJL9sWck/xOfnNEPR3HSjwG3619+JXV/9zcaHOAshpEFboTiT35KcvfujcdugDwmt+XO3bs6S0ABB9E4H2pSFayU1OOiLTEBXH19owYxc1asaVRWFkaB1as1oVC0jVoM97f//OfS/E+vYsGNFnAgKMsY2WZbNOUcuARL8e+9KMXPf04neHINN6791n36NDjDr8UD9wMX3phLXbNt48P+TiNNRoel6MWXpOi55yUTqRuYgCi00IUycPu2dL/zG2n9/ssYYLCEWaZbnOWYjPzFL0rxs78TenvcHFNdunW7RjMvs287MBiWIMqkqrJCp6BF+yIxAVw7HIOUdW+B4EwpRjmX5lJO0WEm5ngqHKmpi7S+/k/S9Mp3NHOVcqdZTH1hJyRnSMpwS9rKCsk5cFCy9+2XjA0bNaMxjTC0hDZ+/3uwhB4XX0MdDDMA9izqmk8aW4AbkvKv/6kUff4L4kJ0BRd/DC00MnW+/750v/u29L77a1yygq45paj8q38kZS/+vgZha6qH0D9c5MdnkNHgBtLjsU9wS0ZSpsqKCmHQcvmKsqhbHxPAMcasqakFudevaKoFWnLYcZkyj/64eArvYoKcMfhbWv7xe9L88v+VBJe12GHElKX4CCMDS4ITCnaGS1zlq5Gzfy84GyI0II4Yi52uO4Dlqu5+83/omgOLDWj6EnyfBMAHa82t+tO/kCJwZw6o4d+UPstGZC3zfPCu+JDagQEC7AOTvmEp/9rXZcUffhW0iJKW2oDH84+2He0/dfoMEsDe1HfmOapLnAO3cuUKjaSKtnUxARzDu1qQbZjuAS56YJyDDO4k4PiBjDk12gYu9P3jEB9HMHu67QevYfs+nN1YhohcJ8IyOcZVTH16dxp0tLzfflayt2DGNIwGXIlUOUPQtTDc3Cz9l6ql7dXvIi9KDQB6r5gWYZXzehu5WzIMJKkbNknZ770geYcO3wc2NmB8ZFhu/Zf/pG4BZDZSkJLDT/gGZMWXvyalf/BVDWbW5ZHntcWxeThdXDQAsk+HZlumQZA+ZnK3aKblmFbFBHAUI9tgxTlxEnn0EdDM0Y/yLifn7UG8GR3h0YS/mMY9jn2Aa7fVYLrR0Tek62c/BodDdMkjAMeOpekJIHsm5+ZJCvxVTElAs3jGToT/YNImjSPhpefUKWn7xc9l8OJZzN72QHdbfL4qui/SqlZLAabl5FIchnUuvNCF4sVSXPV//9/UspsIqYCIo+5KDlf4uy9ICUTR9MpKYTaweCgEG2fDcMFRhi2y/1KkpI/54P69UoqgjmiCls07xwRwbAgDPJkUlo1kIeDoFuBaA9mYrsORIR6KZlCurpauX/5Uet7+FYwYGZbDO7TxFLNMoXiFY6YQ4RK+qRsx0/3gk5KLkCZOUZlxnTX8PXWetjePSuM/vKIZv8hJtPBhLEEuaP14TP+inZPjfkSX7JaKP/tLSSvFoo0z5KkZqq9HusBz0vmjH8hIzW3QLAgqcjjMSs95+tNS+Ny/kpwdO2YceB7T2z20Wp0Jg4mnV65eUx+cARzDFhmYz8RBlNyiLTEBHCvtwozvk1grrh8JVzg6kCVzch5Np0yyEi8ZvPwgcjc4T/ev35K+Y+9q57knnEudwBi5J2C5RB6RJHeepK1GwtVNm8SNzYVOybAmTl8h2O6bqAlaUXcbgQje8eY/S9vrrzJrnVr1SEeti1EnYUYJXlvQwvdEUiEnBo3cw0dk1b/+I0lG4qJ7aBFskAcGn+YfvC4jd25KANO1ptK7YyBmaj73wSckF9N6Cg4flhRke46HwtVy2qFa3Lp1Bz649im9lYH5RwA49ulwPTaS94oZ4DgrlnkfPEiNzcSw5HqcnMd0eauQez1eYip98Ll1vA1L23tvy+D5M+g8mOuENHIsFB1pDncWQkTMc0N8zBVnfomk4h1TkUKcIhMjKh71IZgbhXPsek+fwITWj/BkjpRB1gb0BRBG5mtpsowvj4nTqSsD3C33mWcR9f+MFBw5okljSQdTSA9OOO186xfS9N2X4eyG7kqDUTD8SZfAwjMyduyWnKc+LsXPPKPriZu/X8x7rmHPJbW5YE1nMDUek79mIzb4IEK6mEZkNiVmgKOl8irYL6cyMOkKSzbMx6UlxTozNl5mf3Nmd/PRo8ik/KF4b9/AiI7ZAUEz/eSoD+njEE/4W5+QnJ27JBMO7BRMsg03kT/qQwRgBR2uq5NRcFMuRRxaxgHG4VvX1Sc3OQbdcBZiS+jzZncM7sbcKZN+qfr3/0Hyn/ltcWIhkHBuTcskfW+dv3xT2t941TIwheqhKg34hQlm3YeOSNnzz8dNEiIPpmXRHdCGeFrm7qHRjzO7mctkJ5LlRpM4KPQbxAxwgxjpatGJmJ2WaRfYQMq7XGOADWTq83goXNut6Uc/koFTJ8R7F/pICOASwd3cO/fIiq/A4oa8+snQZzQvZJRciJyBQGMolBpcDGGgM/Vfuya9Jz+Snrd+BjvMhPquzOUF2VNvQ/iZE++XtmmbrHjhBXFv22G5MsLecxQTcptee0360F5vPaysXMAk9B4F3JikrlmnYiVT7TGjczwU5ug5f6FamQfnxNElwAiTsrIyWbcOMaXhM94jfKmYAY5iJOPNGOZl0i2QBVN3O7B/n3K6CNv0WG9TwP3whyrq+ZDCXAEXlPaSIUq698BCBfM4dSyuTMOc/knIzR8pl6OO6IeeQ6DxI5pibCVcX64PKQoGz5/FdfRf5qBcqMIKtVJByvOdUvCZz0n29u0zciVaJrmiTv3/+ZauHKR/F95OPIuc0lW5RrL2HZCVX/iCpKLDLvbC78LkWCfhg2O/pgGQKlIxBiE6vLk8FZdjm02JGeA4daGvr1edhMaMygYRdB/DGlrRrDAymxeJ1d9MA+6kKOAoIrHjwIDgqlqLbQ2MJKth+PCpvpa3f792yGRkqoqk9Fy4IL2wglKPsxZFtP6K4hozKw+dgWulod4S6SJ5YCzvwSDA4sjLl8JPPysVf/J1DDgw4BidLKSu/lu3pAecresnbyD8rW1mH2IQcCmrKiUT8+hW/cFLarkNecyiPCS4mpqaYXU/AQOgZT3mOeah5MRTqkmU3mZTYgY4WiU5GjDahEuzGr8bTadMt8DZA/GQbmFGwJGy6DxcMYaZj5M4ix0zv9PWrJWVX/kKxKTSqeiRB30EugEoRrYd/WddbQePwzND7oYoRmlsDAl1rSWvQi+G3DePhxQlk1xO5Wz5Tz2tUf7h1TFvCd+l45e/kPajPxJfc5MwWGAm66UOVFMcbj843BfjgsOxHzdiDtypM5gHiX5NIxj3TN+/eRMWpISba7Z9OWaAIxtmoy5crJbqS1cUcDxHXY4LHqxaGR+WSjWa/PjHWJsbOtydW5ZeYowmeD9BqoFJ/6jm9+CC8zSXc4HDRxWm2huGv6rl9X8UD1I2JDhg/aTzLqws+EKOrB/fiUBypLskFQMjQ7Gytu+Ejno/1+agMYLO2PbDH0jHz47CcjltxQ17FbVYMjUDdbgszKMrpw5XGvnSTvc9b4FO9GK103qs7lt96RL6NFYoQh+mWMmVfbcjUxfXr5+ND47Njxng+DAC7GL1ZeVy/E02zMbSF0e5txis2OgqvL4Yixf541sxevd9eExGrl22dLipYGIaFLhA4aAUv/AlRM5/Vi2V4ZHzM73XCCIx2pH9q+/9d2T4Kp7L3ChkaeFlpnPh98T4N0XbydEhyT7whBTgnXKQGiEF06tmEiUJtib43AbOnUGwdW0YfcIaFmqlhC+O2b4We6p0dGFYJtvgDmjUkC72aRM5xZAuZupin55t+f8AAAD//5J3RpEAAC0YSURBVO2deXBd133ffwAe9n0hSJAECIAA912kSFGSZVmyZFuVXXuaxk4b23VTTyfpNDOdSScziafjJn90Om3HnUk6rZt0GmfiOHbiekls2ZKsneK+7wtAEARAAMS+7/1+zsOhIAggAOK9h/eAd6TL9959D/ee+zvne3777yRMqFkI25Wr1+zKlWvW09trIyMjlpiYaOvXrbWK8g1WVbXREhISQni30F9qsLXV7r32mnW8+br1njpuCSlppocI3mh83Cwp0RIz0qzsq//Kij/9kiVnZ1tCUtJDOwKJuy9dtNvf/lPrv3nTxjq6gteMAlpMjGqMkgOWWlpqRc+9YMWfeslSCwstKU3PPa31NzRY5+lT1vQ337XBhrs2MTRsGtDgMe237qPoNTE8aFmPPW4FH3/OVj//vKWtWjXTL6PmHGN18+Ytq71dZ3cbGo3PgUCSjmTbuWOb7dq5Y1F9TdAFQwq4ujv1dvNWjTU1NtnA4KDmZ6Ll5+dbRcUG271rZ9QDbqi93Vrefdfaf/lz6zrytiWkZjwA1IQWkEBenqVv2mKlv/4lK3zqqXkRf3RgwDqOHbGbf/SHNtrbbwnJ6fP6u7D+iGHnSBi35FVFlv/si7bq6Wcsf9++j9x2QsAZ17Pff/cdu//G69b1zhs2Njik50j9yG+nnpgYGxMo+y3vY5+wohc/Y0WHDlmK5kI0N+Bw7vwFq62ts46ODgMcKSkplpebY5s3b7JN1VWL6n7IAdfc3GKA7lZNjfX19VuSVv9AIGCVFeV2+ImDUQ+44a4uaz992lp/9hPreP0XAlzmB4DT5Mmo2mTFv/Yly39sv2Vt2DAv4neLq7W986Y1/d//PTlRP8o95nWhUP4IMIwMWFpltWWLA5W89LJl6nkC4tjT22hvnw00N1vj975j7W+8ZmMDI8GfzMGhg4Drs8IXX7Liz37B8rZvt+ScnOmXj6rPAO7I+8espva2jY6O2rgWm7S0VFu7dq1trKywstL1i+pvyAHXpQnb2HTPzl+4ZD09PQ5wPET5hjJ76qnDFhAAETOjtY329VnPrVt274fft9Yf/60lpGUJcAF1d8LGB/ssd+8+2/Bvf88yysosJTd3Xo/R8sYb1vqr16zzzddsfHhUnCF5Xn8Xrh85MTIlYMmFRZb35MfEqZ+xXIFhJrBNaNL1ih6tr75qHUfesv5b1y0hoAVjDrDR94mxUZsY7LXVX/h1W/NPvhgEdEZGuB5r0dcFXKNaiN5994jdrrvjmMOYPmeqz9XibGVl6614kSJxyAE3KFHjflubHT123Do7uxzgWClYGQ4/ccjS09Mcx1s0dcJ0gfHhYUOsbPjuX1jDX/65JablfAC4oT7LP3TYqr/xx040SpwPcLTY1P3ld6z1F6/YYF2N2ZiEFOmBS9N0b/4fHbLk4lWW/fjTVvKpT1vBgQMzd0d9H+7stPa337Kab/0XG0dnW8BiCeDGB7tt3W/+S1v3G1+x1IICS5R4Fq0NmwNq0PvicHfq77p5CuCys7OcOlRSssZyF8mhQw44VgmA9s5771lbW8eDVYLO7tu7x8nC6elRoMPMMuroK6MiesNf/B+78+3/IQ73gUgJZyp46mmr/r3ft6Qscb45Jh8i1Zgmac23/rMA9zNN9MmbzoM7zNK9RZ12HGe439I3b7ec/Y/bmudfsPSyDZYivXR6QyoZ10LZ+P2/sbY3ZEC6fCn4kzmeeep1nEgpqaDs679t677yNQvIEDMXzab+faTf98rQ13q/zS5evGTNLa2OWQC4/Pw8e+Lg41ZYWGCpqQ/XW+fqc8gBxw27u3vsyNFj1tp638nBdLqoqMCqq6qcxTJ3nqLYXJ0P1/csGo1//Vd258++LWPBsESjcUvQf+kbN1rBM89a2W9+eUYr3vT+jGoABzRwdX/yX639rV+JW0o/WhKwTegZxiwpM81Siost77CMI48fsrzdeyxphgkE2Aals/VevWJNf/sD6z53RovFiLoua2ziPK3MuoZIJgtoipX91tdt7Zf+WVSrEoxde3uH7A93nMGkXQYT7A9Y1QvFmZ968pAxbxerDoUFcKwUp8+et3v3mmU46TMAlyWOsGZ1sW3Zskmvq6fPzaj7fO9n/2B3v/c9G7p728a7ZcZXK3z587bquU9a4cGDmkhz62ED9+5Zx7lz1vKDv7LuM6cFuMylARzcarDHMjZvsaLP/poVqf9Z5RWz9oUF5/6bb1rd//qfNtLSZGP9WFbRY+cJNv0S3S8xI91S15fb+i9+0dZ85iVIGNXtnhaZq1ev2z0Z/pjDAA4LZbHE74OP77ecGQxKC32gsABuYGDQbspKeUfWyiYZUFglUjRB0zUA+x/b5wwoC+1opH/ffvKE3fvlL6z73bdsuKlBelyClXz16wLcC5azadMDy+XD+tVbW2stb79tHa/93PqvXQ2a0SPF4QQyxGMbH7NE+ZDynv6Y9M9DlrN7n/OFBbQAztTgyi2vvWrtcgF0nzrh3AE2Lm41X842edGJEemJhUWWI4PMmhdetIL9s+iJM3Viic4xX0+dOeuYxBD6qhri5DpZKHds32aZmYs3+IQFcMNSPltaWuRArLHrN24+YM08AK6B6qqN7hyfo7X11tVZ56mTdk/Gk74bV6XsJ8k6+e+t6JOftnSJZfPRRbqvXbOmV16x7iPv2ODtGln3xBUjATiAJutIgsRF/F5p60pt9cv/2LL37FXfZ3A8T4Jz6P59Pet1a/jB96330gUbk5XZWWgXCDbGdGJowNLlZljzG1+xvAW4UJZqPiCF3bpVa+/L2Of0V9GQc+vXr7MKPUd5eZncA4t354QFcHS0V76bq9eu25mz5yxZ3I2HwFr5xMEDijipsgxxu2iOOhmVGNV/u9Zu/advSoc5JcClWtUf/JGtev5TFmClmwdwui5ftoaf/tR6Tx61oTt1EQPcxPCA+jdhqRuqrejZ52yNfGwpWqmTZN6eKSoGTjgmQ1GrOFvTD/9OYnSdjcmH6iyS83jOmUAyPtRr2Vu32cbf/w+WUV5hgSh2BzA3+/sHFLBx094/esLNV56Jebx1y2bn7C6QHpfsxOqZnnb+58ICOB5gZGRU8vBVO35SuossWx5wsGYciKsU3YCMHK0NIwOGg5r//t+s88T7NiEAVn3jP1rR8y9aANP2PNSZrkuX7O6PfmR9Z07YUL38OuHkcAKNs0LKFJq+odwyt2yznF17LXvbDsuulgis8KSZuDJAG7zXJKPOW9Zx8rizRo4PDUoU1cg8AmcjegUAJ2VlWO6+A1b5u//O0qSzzwT0aBl7gNXW1u6CNfAfE6hBg0GgAgE6nN+LNZhwzbAAjgvTrl2/YadOn3ExlaOjimzQYJSKRcOeKysqHqwkwV9H378jcuLXy3DSIT1uQA7fqm98U4B7wQLzMJjwNA843AlxuPowcDjR0/nVJsbFgZMtMTXFAlnplnvwSct/+llFduyw5FkswlhescD2ayHoPntG8ZHfs8HGBoFlLChGPiJnU2iG8/NlyPWQL/2tVAaT2foQLSOO/81ZJ2/fsduKofTWSebroccP2LZtW0LW1bACDufhlStX5Qhvt0GtpIiQKKHIxbt2bF+0TyNkVJjlQqz+nRcuWMsrf2/3//7vrPoP/1iAk0ip1W4+IqWLWHldsYe/etUGbipCI3V+ERqzdOcjp+HCNia3xeigpVVts+zdj1nxMx+z9NIySy4odGLcbJxlVCLjgAxazT/5obX/6pc2It8pIFyMGEkHcR+MD/VY8Re+pEDof2R5O3fOy4XykYeL4ImhoSG7cPGy1d+9q/jJTjdP4XIZEoP37NphGzdWhqw3YQXcfTkRg3GVtfLNdbuVA31u7doSO3jgMfdA0azHMaGJOmn+6Y+sXpH+VX/wTWelTFK0zHwAR/whYuW9v/6OdZ8+IbeALIOPyjn8kE+Kjsh8gfxCS12zxjIUNpexcZNlbtoqvWmrJWfKKS8RcrZG1H/fjWsyCp2w7pOnrL/mpvqVqP8X4Geb6eL0TdyWvm341//Gij/zsosumQ30M10i0ufgYljVjx0/YQ0KuIfb4RYBbKtlYNq8qdrWKdslVC2sgMNw0irL17nz5+UEb3sQKrNaVr4n5UjMll8jeVJeDtUDheM6LT//B6v9k29Z+e/8rhU8/XFLzpqfPw3Dy5AcqHV/+i0X9Cu/QBBwCwEdYuOUliC9SthQ2lCiZVTvsJzHDmoReM7SiookTs5s6nd/rusQtkbmQtvR9xVM/ZZ1vvGKuJqulbx46xv3mJCImihLXnJhsVX89u/IwPTJKT2PzrdBA1+vvfPu+/K/NTumwLlcZQdgTS9VSCKO71C1sAKO1aKnp9dFneAERzbmYRArMZ7gAOfBor31yLx//8i7lrmxWhY3GSTWr5/RADH9OeCQpLU0/vj/2f3Xf2l9F85KR2KCzzM8yHOzsRFsEdLR0i1jy1bLkm6Wq9ys1OISS1lVbCmaEESMzMpJ9MdjAluvjFjNr79m/ZfP24Ac+mPdskS6cJAQxHY6QPdZRkWVFX7qs1b09NMy1lRPJ0nUfSajpU2xv/jfMJz4OVq8qtD27tljBQrnIng5VC2sgIM1o7sdPXbCJfMBNs5liUNsKCu1Ck3e1Yo+ifZGys5AU5ORSRDIzLQcTaRZJ/cMD4PxpOvMKes8Kn9cfYMNK4RoYnhILAHxa4YmDpiQGLAkBc0GcnJldMixgIwfyRIh0wX6LDnes6qqnY42V8QLfUYs7r9y2TplHGk/fsxGW5sUeTIgsXN+ovEMPfzwKVYDHQnyVeYeOGSlX/0tS9eiNN9sig9fLLKfUHvu1NfbDfmMp2a3rC0psScOHZCzO/OB1TIUPQsr4OggTvCzCvPCgMID0QgAzc/LdebWcmWCx0LD1N0tDsHEytmyZUGA4/mY9B0SrdvEYbqOvifucl8GhmA0A5ZG1yZdDYAtIZCuRNetlrljl+Xs3CX9TNxVWdko8/PSe9VP+uyytBVedu+737G+64p24e+TJNouIAh5snezv8jYgu6WuqHSij7xnJV/7WvzCn2b/YKR+war5GVVKGjT+GA8gcNB41ItGE888bil4gIKYQs74PBlkMxHflG9QMdkwZ9B2jrZA9u2bgnh44TxUprAg+J0AC5V0fXzmvRTujOuwRzS3w8rvnKktUXxiX3KSugXpxl0GQUYU5Jk/UQ0TJLomKjXQK6c1XC4vHzlqmUFHddwPx0Pa2PS0wZ1j45jx6xHESMDt67ZkCySo73iavjW+Ps5rvGw60//Dt0tIWHM1nzxy7bqE89bzg5l9ocS0NNvGMLPl2VFPy1xEr8x0hetWPrwhg2ltlVzEyNfKFvYAcdDEIUN6M7LxJ6Axq+GePnYvj22XboccZahcCqGkjAzXYs+01gFF9PgPOPDIwKawKb8QcAIADzgEuU+SJJfbSGgwNoG0IakjwzK54cVsv3oMVkgb9hoW4v0xpmjTBbzHCw++O0CcnKnyvJc9i++brlK+8FKupC+L6oPj/jHzEukr4uXLtvp02cfjCljjGWyoqJcMZQlD84/4m0+8mdhBxx3hMvdqqm1t995zwGLFZpzZA5slj5SICNKqFeSjzxptJ1gstInvbqD96LLA+61QA7EROlvbLT7Cpbuekf5a+dP67paGEip4VoLvB7dmbOxcMjnlr13v6363D+1gsfk6pHuE5Z7zdmZhf0Ag167fG7XFH5ICCKLKIsW8/KQwg83VlY6W8OD8VjY5Wf9dUQAx4MQiX30+EkblrEA9s25kjWrlbZeapUK9cqI4qTUWam3xF9AQ9wO/cpK6Ll43vquXbVBOW+HmmXg6eyQnkY41yTgQtzXCUUOIZ6mrF9rhSoStOZzn3fVvqI5ZnIqCfolDdTU1DpVh4wWAAe4OAiwp8oclbpCvU5FBHA8KD4OvPntUk4xxfJgWIBwLu7ZLcNAjsrNhfrpplJ4ObwXwMZVtgDRkcI+Iyp/MCDxsfPiReuRb416I7SEQIpEyNDqHh8in/pBC2jMXEWuZz5uRYcPf+gn0fyBhYok6bPnlLOpeYnrirmHMQ8XwP79+1wIYjieIWKA65TBAC5Xo9X4/v2gv4MHQpw8fPiQXvNDLi+Hg2BLeU38esM93danMoSd585a7/GjNlBX6yL9SficoF4KTRJkyJdmd2H9o8lK+FagoEgB0lut7J9/2bJktcVdEisN8ZuM7iNHjjqxEgCi0+XJ9UIUFKXwiooKw/I4EQMc/jhWEhyMd+82OHDxkGSC792zy4mXRJ7EYhtR2BoRHNQGoUhOqDg1ICJaheK0Q/IDDjU1SlxstEG9DjY1u4DoUSynas7UH+biRF6MTNI45apEQ5E4W570tpT80EViRGL8mYdwtjNnzrmCxRjs0N0IxNi+basyvIvcvAxHXyIGOL+KUPMPA4r/TFIf8jJl9FhdYrERMzkkUOCcplAOzmh/OPM4JnKJLNOBCA1c08ID93KRKXAqHVguKW0w3N5m3ddvWI+K+PRfvWzDjXXuu4QAkSX402BnYW70k67K14YzPkP+wTUvf85Wv/himG8cnsujsxHjW6N5SJUuAAfXYw4+fmC/qywXLiNexAAH6ZhgFy5eUpGW285VMK7POBnhcphid2zfGh4Kh/mqowIHuXMkcI7IuY/fLEvRKGkKLKbwaaIMQpQOZ2A96ODubtHRQI8P9NtIV7eLQBlqaZbho976lSk/2n7Pxro6xT0FPnFQQDgxaXByQHZYiwDgWAxUNDZ5XZllK8durcCWqSRiQspisVGO/7oWsS7pcXA2xoV5SJ7mgf2PSfr6YJxC/XwRBRydx/mNd5+aJ2OKUPA+LRzgiJY8OASIpQZwECvb3z9ivVpMsBwmJWkxIT9Nme2J6XJaAzr2KcAwpN+PM4kVaTIuqy0Jn6TLjGgCALyRtvs2pMj1sZ5OfScDk8nSCE2c1THILSNFH/S1xLQUlUMvtlwFSucflL6tOpaBrNgT/1nkANi58xcN0PGZg/mGzlZZXh7S3LeZxijigMM6BOhOnDr9YHXBJ7JJHAHAUaglXOx8JgKE+lynwreaXv2F9bz3hg3ekeisZ0P8S0zJUBUrGRYAjorycJ66++OqEzlByL5gRVBAUBfDyriwKlmhfg4nQyJJjg3Jqb3Wsp981ko++aLl7doV+ltF6IrMMyzkZxRqeP3GDTfPWCxZ5Lds3uSiS8JdUS7igGOFQYY+duKUq46E7MyxRik7FRXl7qFj1XjCvAkGOjda9/mzClY+YuzC4zgTpnrVRXEiJROZwGViEMd9dVj+elLPIxonEroZt/xIwwqpBWCcDAVldsjHlnfwCZVr2GPpJWtjIiD5I480eYJY3rq6eqfS3FORK+/sphQeZfCoRhDuIsURBxzPTqDoebF1qtz6gGYS/oqUCoFPDvbudZ3ZiBfN5zF+EPXRffastWs/gUFtezTU1mpjKkFHW1BB1Ug9KFzXcVqFrsnEn6Itq9LWlVjhsyoLuGefZYjLLSRDIlLdnu994GSk38DdKMXfL4MUDWkqR4agg4ougbuFe94tCeAossneW7fY1kp5cl5no1DLU4efcNZK2HwsN2cQkZED3azxJz+2NgFv4Mo5cTSlsSSp5DfPhz4XDU2TMejHUxkMMdf06p0C2vO29vNfcBXKCKQO90QMNxnQ1RqlF7/97hGXMsb9OIfvjTL82BDI0wx3WxLABWXpPnn6LygP6dYD1k4Zsp2qdVKmNBTquMd6I0gZbtd3+7YrY9CrgOJeKev9NbdstOM+EdwSHRU+RDB0pMEHyLi/REcNgMo1FFlG5UY5sTcr126T3ldZZkWF65uziMb4YBDhRIoYVbmYfywgqDJsMoP+RnXlcIuTkHBJAMfqz0HNykuXr7oH99YifHGV8stVV1fF+BB/uPskgvbLed2tCBGOofoaV7hnrH/QxiXesHEGzXESwBdqAIreIrqjO/dJFIdNlBifpN1ck5WbmFpaqarMe9xBAHIsRY7wPHO1Gzdvuj0D2EqNuQadmYOAjY1Cka68xXyuay3m+yUBnO8w3O3GDe09pronU/0hVVWVbrcS/7vl8Oq4nUCFLw1f3YCCjMkE7z5/zvrPq5Rge6seUxMBZ7YOJ3LKiBKaFhQZjVINOgQ3VfVaZRnyqeXs2m2527a5DG22T3bio8C4HLjaVNpRdYCdeeFuNNQYgi62bpb/V1KVsxCHitxTbzzt/ZICjvR2XASXJWYNyLHLCsPqg7Vo797drshQmvSH5dbQl4alxw5p0wjCtQYbFeEvh/ewFp4RiT7Dogu+uPGBPnG+Qff4StvVK4ea44CT74NnPvgX6yeHQkP4j+xxaqHgR0tR8d0U1ftP1aaCqcWrLbVknY61lqoyFykKPgiC/INLLYd3g1rgMMwRxlWvkEKAxhwjUJl5VlFRvuhdTRdCpyUFHCntbGl1XC6CLjmOacjV6G8+3CtP8YnLvcHdKcEwqHCjPpVXH1BQwGBtUM8bH+iedJILPgQnIxrS8OdNb5NiIxuPBCstC6ZpEhuz8iyterOiQ6otU3pahkR2tzniTNeYfs0Y/8xehRR5JQGaBd67Aqirg0W8RNFAZKpEqi0p4FhpcIRTRq+5RRtJSM9BrsYvkp2dqYzwfW4/uUgRY6nuwzOjw41PZn+PqcCPK70g3W6sr9ftQgogh5Uw6aJTtLPLmMoaTG/kviWJdmzgkaJFK1kTKUVlGihElJimSBdFu7hscukrcxUfmn7tWP2MZfK0uFu3uJwvRgyXy9dCfuiQNlksiGyWypICjkFElKxTvZNalZlukO8KYqDQ8rpPYiUBpcRaOmNCrI76I/bbgVBSABkD6H348VyAs/QQb2SZemlHN/mV2J2V/bpJBg2oaG2SwLbSGosYgcnMrVMqoYAUwQLPeaQmyieQGcB2wpFsSw44CIFfjmIuJKh6/xvEqara6ERLZO1IWJAiSfj4vcJLAeZPS0urEyUvXb7yYCFnvhGkzNxig9DFbiG80KdYcsCx4kCEq9duqKDLJZVgUHEd/ENqyNb45IixjOX4yoUOSvz3i6cA1kiClKk5iR5HQwIAiHt273QVuTDIIUlFsi054PzDkpR6Xb6SZlnuqPUOcTjWqO7Jgcf2WZZYf6hrBPp7x1+XFwWGqDLd0+sC5Kn4zaLOwaKdq0UcUXLjxsoleeioARxiJSIA0SfEWiJawvkItyFXbr3EShTdeItTYC4KdKjWCws426WxG46fS7nKTdwsvxtFXgtkLFmKFjWAo5IXoDt5+rTjcr6yV4rqM7KZ+c6dO5w+txREit8ztihQq3zLCxcuOsskKoqXltgElA0W81Q6PtK6m6dg1ACODuGXIzGQYkNkEnhCIQ7gM9lULR+SLG+Rlrs9seKv0U0B9DOyAK4reomKXMwfL07miLutV0m/vZpHodir+1EpEVWAw1iCCEAIDgRDFABcEBIxgJ1TcRMs1er0qESO/11kKMCCTUl9OFy9Ipi8k5t5hc5WWbFBft11S2qAiyrAsRoNyalLCYbTCmweVXq/36qYGpYUjoXT4TuJc7nITOJYuQugohqXrzXpa58yTzjYybS8otyyNI+Wcu5EFeD84JIjd0U71bCJI9EniAZwuTxFtWOxLCpSKolqhcRbnAKeAswTjG44uamB6rkb4iPGkt1yBaxft9b/fMleoxJwyOGIlmTnNmm3GURLAIcouW7tGjkuK12J9CWjWvzGUUcB9H5UkUbqd0pKgoth5abG5FYVqiWbO5Ixk7MRKCoBh3gA0dhtp+7O3QcxlpQvS9POMpvkJti8qcopv/EIlNmGdmWcp/IbuhsuADbmGGRHIp1DKsLv5jJPFDiBsS0agieiEnBMFfQ5IrzR5yjayWcaq1ZlRblLHMTMu5QWJ9eh+D9LSgHARq0SNlW8pSwLpCHfiorIOil3VQQAYDS0qAUcxEEuJy3+5KkzDmicQ7QkmLlYYMOAEok6FNw33qKTAji5zylYAv2tR35cREnmCADbt2e3qsCVOd0/Drh5jB9cDUKeO0/0ibZlkm4HQSEeVsvdcoZTACbSEd/z6Hr8JxGgQLdyKCmZQDVvrJLMFw50ffQ1fG6EBk7lehHo1kNvEdUcjp4TfYLVEhnd7+MFUSFiqQrABBNVNwiED33O+JfLjALMgVu3aqV21Lp5MSq9n4UY7sYWaBUVwUxuHN7R1KIecOhsBDNflpuAPQkwpmBUgbipKiVeqcpSu3Zud6ta3IASTVMrfH0hE6C/f8BtF4yTm88AkDmBBFRZWW67duxwrqNoMJRMpUTUA853FuNJjY4G1bOEwDSAh8iwRdsWrylZbdnS7eJt+VOAKgF3Gxrs5s1bqhTQ+iBXkgW3UBuMUISKalzR2GIGcKTHk2rx/tHj1iddznMzREt2raRU9boocGxG4yAvtz6x6LJ9NTo9EhCNVyzWGEqImcxVgddobDEDOGTzLu0sQ3AzuhzWKW9AAXxuMwbtF05BT0SLeFt+FEBsxIiGm+iqfG5IOJzjQLrBTUQFZVJvok2U9KMRM4Cjw/hcqGF582aNC1D1xOY7fC5lpWUCXrUrQuQ5IN/FW+xTAHANK7GUygB36u+4bat5Ku8GwIC2Ufr8WkUiRaKC8qNSNKYAB8AQHa5rs0JWOIJVGYggR5uQdWq1i5nDN4eYGW/LhwKoEYT74XNr1uaXGnQ37ow9i+uO7duUya29xqViAMJobTEFOE9Edj8ho5eqzTg7ITrAY2+5YhU53aSwL+oNMhBx8dJTLTZfWWQZW9SIa1poWyVSeh0eNYOQLfYHqKgot7XyyUZ7i0nAMQD4506cPK3N0VucqAGwGBwGgQiUalmq2Gcumle7aJ8c0dA/4iKpnExZfFJv/CLKWCeJkxUWFdp+1S9FqsFNFO0tJgEHsZHn2fKKeMuamtoHogTfFYj465Wwyp7h8VjLaJ+CD+8ftSXZSxA3AEYzFlYWVRZd6txskKGM4AfGORYW15gEHEME0XsVa8mOltev35CY0Sf/XHCDdFZBCg5t2RLchoh8qHiLPQpQ/r5FEgxBDx0dXQ8skgALbrZZ/leqADC+jHkstJgFnCcu9eKDafW33QoI4QFjilIz8mUe3qJUnoqKcrf6xfU5T7XofkVKYQyJLLqqxbRDcbTDCnYAaJzPUMl23D8sqOu0M2sstZgHHKFe6HMXL11WqfQmVzqdAWBwAJ9TqCVyrFYCInuAxVv0U2BQeyxgiSRsi2wRxEdAyILJuFIxmT3dcG6nq5R7LLWYBxzEZkAYHDgdmb++cZ6yDICtemOlU6zjOp2nTnS+ElFEUAO+VgxinXo/VVxcXVyslJtSZXFv/tD56Hyaj/ZqWQCOxwJcAO69I0fde/+owZCfVDdAZUSiyG0Qb9FLgZbWVi2ad52fFfB5sCFKwuUOP3HQJSCTghOLKsKyARyDQX4Ug1WrPbWpa+llfl7JmSvfoK2M5S6IlnT76J32ke8ZAekYweBs7OfW26vNKAUyQMViSlAyC2a5uBu733ggRr6ni7vjsgEcZICbEf51WfuGw+0YQIDovyuRaFm5kfCfEhd7F02Jia6TK/QfAEXUEPparTakbG5u/VDSaLpM/oANN096eoZC97Qtc4y2ZQU4wMVBjQsGj0xgQMhqyHk4HUr2LmWKUzINx3i8LT0F2CMQnyqlNBAjGSvP2Riz6qqNrgAw2SCcj0VR0lN5WQHOPxRWrnZtCMJuPESX4zD1IggDuErRCaXaBouBZLX03/m/j79GhgJwNmr/k7WNKnBPlknARkOcpIwGkf+UuF8l3ZsirrHeliXgGBQiFNg//ObNW47bMYA0Vke4Homr1ERxgc5LXI3XdWyF/QOwKBLVroDk8xcuulxHL4mQXJWghZF4WBzbSCOAbzm0ZQs4AIYijmh5Wy4D6qIQDuYHNTkQsDTES6Xil5Wtd6FBsSyqxNJkBGyMTb0C0Nk0kURSxgb6w/XIZaMqW0VFuUK3yixFUSXETS6HtmwB5wenS2WvScOvqal1qyn6ggcWA8/quX79OlcwlDyqaE1c9M8T668shICrXgshiyEHjbHgSElJ0XZSudp8Q8YtRf9jkVxObdkDjsECZDU1t61O289SpoHmQceKisl5547t0hMKnSElIYFSfO5n8X9CSAEAhVEEnfrU6TPWIpHfNw+4VUokXr9uvTZO3OTSrfz3y+V1RQAOUFHliRy6WzW1CoTtMLal9eIl7gEU8kpVe0KEwWcXdxmEdooDKMRIyiNcU9Y2PlPGgAbXCwSS5B/NlIGk0vlLKfa7HI1ZKwJwfuqQMdzQ2OjEGN6z2npOx6ATNkQBGvx0Odk5MRen558z2l7J4kBPa2lpkZRx14mT9NFzNRY3diVdJ9F+g6zH1CZZrm1FAY5BZJUlU7y2Llhyj1UUVwEtGAaW5uqi+DAwD0j3g/g/j0QBnNoEI7MbUreSST29WeSQPrAUQ28Sh1Olwy3ntuIAxyCTQUxgLNEobQoBI2WfVZbvACAmaCLS14nTrZFpOr4X3aNBgKifzs4uZ41slGTRKd2NRY1FDFpDcwxV+NnY4RbgeTA+2h2j/69WHOD8kFBMFEcrOsV9Ke/47Xxj1aVENg5yVl5e+Rzndp5Cc7+iMxPpT6Y2aVPkLU7VychXzJUYWayFrUr7/RUWFsx90WXwixULOPQHgMUGfnC6G9dvGjEOflLwPastm0JslDFlx/bt7nMcdPOb9USO3JbYjg90RFzNcy5oTkNfxqlN1jYGE//9/K4eu79asYDzQ0aAMxnFGFOamprlq+twgw/gaEwG/ELk1OGzI9SInLo48DwFP3iFZlgfiYvE/dKm8Dqi/jnvxUgXrpWf74IN2JUUMXIltRUPOAYbRyyKPVvWImIOym83Jh2DiYKuwWRB3yD2kgDaAk0YQJec/MHmfytp0kx/Vmg0Oorrpc+JjzcUw9rd3esyN7zEAA0JKoCzEdlDaYSsrOURrjWdHg/7HAecqAOwEHUAHXuKk96DNY2JhKjjuRmTJ1/crkw5WSj5cLt4M+deQSemDD16MfobNKVBOwwlRJDg5ywT3ZAWCBpfKWLk1DkSB9wUauAvovpXQ0OTxMsmFxIG9/PAA5SYrRExV6mIDdnj+IxI+YEDrrQGkNoljhMkTgl6srW9CAktABsHZQuL8XFKOsiXdLASOZufG3HAeUpMe8WQwibtRLNPzdHyYiYp/ljWNqsqGKFhuA4CAVbt5R0T5p8fQ0i/dh2lLujdu6TWtDiREa7luVtSUqJE73RXT6ayssIBbSUuTFOnVhxwU6kx5T2bQHb3aEtbmbQJCWNrWyaLn1C8+owDOB3RKQTbRvNGElMe75HfIgVQJQ1zP8YRfJosSJyHm3lAwvWLCgtd2fnggpQp+sVLz8cB95CphwiJ1bL5XovT7TrkxCVECRHTN97jo8OQQkpJgbgelcLSxAGXy2oOiKAFei0hcWTUk9gLbRAraYANWmAYYY+HVUVFLuewVOFaSAMrUV/zc2TqaxxwU6kxy3v0ODZtJ1GSVd3HYDLJaEw0JiVGFayYiJkYVChWlKjf+N/NcvmoPs2zASqiRmqVmX1bla6J8ud5py8oExPjrlYkAeDlqgVatEKc2QsZwDjg5kEtP+m6ZImj9DY5XB2dHc4aN3XlBlhwNlZ4jANUB8b8TQHa6ZNzHrdd0p940RB/GvmErRhE5LPEAkk8Ks1zNWgAFyvfUCYLZLHj9iw2sbC5RqSJHAfcAimOWMWWt1jkcJhjlcOAwAT1E5D3vh4HZQJI92GHToCIedz7phZ467D/nH4jOgKq/oF+92wADgsk1kj/jL4jAI2KWll6PvZyYFMNDEmAL95mpkAccDPTZdazTDoOjAUYUq5cva6Eyi4ndgGkqeKjn8BMxtVriq2yvNxFVrD6R2MDbBRgqpfVsb4eo0jDA33Vc3KeCY7PweJRpnQaQrSIOUV89r+LxueLhj7FAfeIo4BYhQEFtwEbROKLwpiAvkfzwGNiIlphvcxUgiWxmQTtEtZEkuVS73cAyMiIJ7iYEuNE92OFJIMCvdU/i+fevPIsGIgQHwnNIncQLh5vc1MgDri5aTTnL7DWsUMnLgQiLoJm8hEXHsYE5fDcjpCwXIEumI6S7yYqURdwCw5+G+7GosCBKX9gcMD1mf6zcFD+gEY/4Fb027+nf5kZ6r84Nv0nfQmrZJyrzX/E4oCbP61m/SVcgsk7NDTozOV3JI4RIkYZOCajFzWZvHx2E1gTOk2cAi63tqTY7U9O1Ir/ftabheALTPrNyr6Gq3VKHO6THsozjKt/9JHmgY+Fkv4jBrP5IVZY5/YgllR+Sf+7EHRrRVwiDrgQDjPiI0YU8sCwYra3y2eliPlgGbgRNzn9BGViM5HhGtkypmQKeIQ8YWzBwJItLpiWmqbvgxzE/91Cuss9EH3Ry3p6e6xH3BdLIzGjvCJK8h3cjuv7g+cA+PQN/2J+fq44cbZcHQWOO8Ol+T7eFk6BOOAWTrM5/8JPdHQ6ttFqk6jWIyCOjkrM1J7V07kIE5yD84Xy3+E8x3GMQx3LJi6FQFJAAE3URE+afP0gqJoOjY97Y8aY7jOm+4y6ewGqHulkcLX7sjayyQkNcAF4mu8PIPIHoGIBwNRfoqK58QRcR6pF/xMH3KJJOPMFPOjQ5wgTwyCBjoc7AT3JT2xe/YTnSg5cCoFKAlh6JTMacY4JnyMuk5Wd6cTQTJ0DMPw9DU4FuMhH88YPDB9BXW3EcbogEIMJoPwNoPNg55X7UMynpKTEmfcRHVNTUh2XjTU/Is8XjS0OuAiMCnpQv8DQLo6HzgTgsARyDp8X+pMHHSCgAQAaoHJWTgUBUykazoNlE/8XBgt+/4EOGQQdumOfrkt0iNPNdC1/XXfRyX8AK9fDEIJIm52V7Yw4xD5idVzucaFTaRGp93HARYrSk/cBSHA9uB1+PIwXcEAfk8jPZgKH50QA0x+Ahd8CLM7xnsNzz+mP5kHNeac/CrA4qnFRlCoplNqcgDjewkeBOODCR9tZrwzXoWgRQHFZCeJ4cD4K1FLZCtHQg8ODx3/2r1yc7wAY1/ONzzRePUj9ZzgWIiNhZ/gCEVEBLbX72ah+qojqLhL/J+QUiAMu5CRd2AUBBQ5mIlcAHToYlk7AOCIjy8jwaPBVboeHcUEPRF4BTkBHsqyMJMxi6STcCiMIuiAJtFgdMcgA2niLHAXigIscree8kwcNBhDnWlAUS7uMLe2ychLDOT3yY+oF+VsOABwEV5aL1i8qKnQWTzbF8FEtngtO/fv4+8hQIA64yNB5QXdBRPTRIEPasBBu5z7rdWho2BlbEDspdAR4cEDjM8O4Ath4zwHA8OVxns9wvnhbWgokaCAn4ory0g7CfO4O93K636Rls7evV58nASdDh7dcoqdhwo+LivOhauR/8/8BEdXsT+10DEEAAAAASUVORK5CYII=;" parent="1" vertex="1">
          <mxGeometry x="814.1" y="416" width="41.12" height="40" as="geometry" />
        </mxCell>
        <mxCell id="VzEyl7pLeXNEImk8ZBch-79" style="edgeStyle=orthogonalEdgeStyle;rounded=0;orthogonalLoop=1;jettySize=auto;html=1;entryX=1;entryY=0.5;entryDx=0;entryDy=0;endArrow=none;startFill=0;" parent="1" source="VzEyl7pLeXNEImk8ZBch-31" target="VzEyl7pLeXNEImk8ZBch-16" edge="1">
          <mxGeometry relative="1" as="geometry">
            <Array as="points">
              <mxPoint x="789.0600000000001" y="909" />
            </Array>
          </mxGeometry>
        </mxCell>
        <mxCell id="VzEyl7pLeXNEImk8ZBch-31" value="Patch Server/WSUS" style="sketch=0;pointerEvents=1;shadow=0;dashed=0;html=1;strokeColor=none;fillColor=#505050;labelPosition=center;verticalLabelPosition=bottom;verticalAlign=top;outlineConnect=0;align=center;shape=mxgraph.office.servers.database_server;" parent="1" vertex="1">
          <mxGeometry x="773.1600000000001" y="841.12" width="31" height="42" as="geometry" />
        </mxCell>
        <mxCell id="VzEyl7pLeXNEImk8ZBch-53" value="" style="group" parent="1" connectable="0" vertex="1">
          <mxGeometry x="559.9967647058825" y="681" width="70.56323529411748" height="26.450000000000045" as="geometry" />
        </mxCell>
        <mxCell id="a8CHna9Du4veWzm3w8Nn-2" value="Network Sensor" style="strokeColor=#666666;html=1;labelPosition=center;align=center;spacingLeft=15;shadow=0;dashed=0;outlineConnect=0;shape=mxgraph.rack.general.1u_rack_server;verticalLabelPosition=bottom;verticalAlign=top;" parent="VzEyl7pLeXNEImk8ZBch-53" vertex="1">
          <mxGeometry y="16.00357142857149" width="65.66176470588233" height="10.446428571428571" as="geometry" />
        </mxCell>
        <mxCell id="VzEyl7pLeXNEImk8ZBch-52" value="" style="shape=image;verticalLabelPosition=bottom;labelBackgroundColor=default;verticalAlign=top;aspect=fixed;imageAspect=0;image=data:image/png,iVBORw0KGgoAAAANSUhEUgAAANwAAADWCAYAAAC6weznAAAMTWlDQ1BJQ0MgUHJvZmlsZQAASImVVwdYU8kWnltSSQgQiICU0JsgIiWAlBBaAOlFEJWQBAglxoSgYkcXV3DtIoJlRVdBFDsgYsOuLIrdtSwWVFbWxXWxK29CAF32le/N982d//5z5p9zzp259w4AjA6BTJaLagGQJ82Xx4YEsCckp7BJXQAFhoAGDIC2QKiQcaOjIwAsg+3fy5ubAFG11xxVWv/s/69FWyRWCAFAoiFOFymEeRAfBABvFsrk+QAQZZC3mJ4vU+E1EOvKoYMQV6twpho3q3C6Gl/pt4mP5UH8BAAyTSCQZwKg2QN5doEwE+owYLTAWSqSSCH2h9g3L2+qCOL5ENtCGzgnQ6XPSf9GJ/NvmulDmgJB5hBWx9JfyIEShSxXMPP/TMf/Lnm5ysE5bGClZclDY1Uxw7w9yZkarsI0iN9J0yOjINYBAMUlon57FWZlKUMT1PaorVDBgzkDLIjHKXLj+AN8rEgQGA6xEcQZ0tzIiAGbogxJsMoG5g8tl+Tz4yHWh7harAiKG7A5IZ8aOzjvzQw5jzvAPxfI+31Q6X9R5iRw1fqYTpaYP6CPORVmxSdBTIU4sECSGAmxJsSRipy48AGb1MIsXuSgjVwZq4rFEmK5WBoSoNbHyjLkwbED9jvzFIOxYyeyJPzIAXw1Pys+VJ0r7IlQ0O8/jAXrEUu5CYM6YsWEiMFYROLAIHXsOFksTYhT87i+LD8gVj0Wt5flRg/Y4wHi3BAVbw5xvKIgbnBsQT5cnGp9vFiWHx2v9hOvyBaERav9wfeCCMADgYANlLCmg6kgG0jauhu64Z26JxgIgBxkAjFwHGAGRyT190jhNQ4Ugt8hEgPF0LiA/l4xKID852GsipMMceqrI8gY6FOp5ICnEOeBcJAL75X9StIhDxLBE8hI/uGRAFYhjCEXVlX/v+cH2a8MFzIRA4xycEY2Y9CSGEQMJIYSg4l2uCHui3vjEfDqD6sLzsE9B+P4ak94SmgnPCLcIHQQ7kyRFMmHeTkedED94IH8pH+bH9waarrhAbgPVIfKOAs3BI64K5yHi/vBmd0gyxvwW5UV9jDtv0XwzRMasKM4U1DKCIo/xXb4SE17TbchFVWuv82P2tf0oXzzhnqGz8/7Jvsi2IYPt8S+xw5g57CT2AWsGWsAbOw41oi1YkdVeGjFPelfcYOzxfb7kwN1hq+Zr09WlUmFc61zl/MndV++eEa+ajPypspmyiWZWflsLvxiiNl8qdBpFNvF2cUNANX3R/16ex3T/11BWK1fuYW/AuBzvK+v78hXLuw4APs84Cvh8FfOlgM/LRoAnD8sVMoL1ByuuhDgm4MBd58BMAEWwBbG4wLcgTfwB0EgDESBeJAMJkPvs+A6l4PpYDZYAIpBKVgB1oIKsBlsBdVgN9gPGkAzOAnOgkvgCrgB7sLV0wlegB7wBnxEEISE0BEmYoCYIlaIA+KCcBBfJAiJQGKRZCQNyUSkiBKZjSxESpFVSAWyBalB9iGHkZPIBaQduYM8RLqQP5EPKIbSUF3UGLVGR6MclIuGo/HoJDQTnYYWoovQZWg5WoXuQuvRk+gl9Abagb5AezGAaWAszAxzxDgYD4vCUrAMTI7NxUqwMqwKq8Oa4HO+hnVg3dh7nIgzcTbuCFdwKJ6AC/Fp+Fx8KV6BV+P1+Gn8Gv4Q78G/EOgEI4IDwYvAJ0wgZBKmE4oJZYTthEOEM3AvdRLeEIlEFtGG6AH3YjIxmziLuJS4kbiHeILYTnxM7CWRSAYkB5IPKYokIOWTiknrSbtIx0lXSZ2kd2QNsinZhRxMTiFLyUXkMvJO8jHyVfIz8keKFsWK4kWJoogoMynLKdsoTZTLlE7KR6o21YbqQ42nZlMXUMupddQz1HvU1xoaGuYanhoxGhKN+RrlGns1zms81HhP06HZ03i0VJqStoy2g3aCdof2mk6nW9P96Sn0fPoyeg39FP0B/Z0mU9NJk68p0pynWalZr3lV8yWDwrBicBmTGYWMMsYBxmVGtxZFy1qLpyXQmqtVqXVY65ZWrzZTe4x2lHae9lLtndoXtJ/rkHSsdYJ0RDqLdLbqnNJ5zMSYFkweU8hcyNzGPMPs1CXq2ujydbN1S3V367bp9ujp6LnqJerN0KvUO6rXwcJY1iw+K5e1nLWfdZP1YYTxCO4I8YglI+pGXB3xVn+kvr++WL9Ef4/+Df0PBmyDIIMcg5UGDQb3DXFDe8MYw+mGmwzPGHaP1B3pPVI4smTk/pG/GKFG9kaxRrOMthq1GvUamxiHGMuM1xufMu42YZn4m2SbrDE5ZtJlyjT1NZWYrjE9bvobW4/NZeeyy9mn2T1mRmahZkqzLWZtZh/NbcwTzIvM95jft6BacCwyLNZYtFj0WJpajrecbVlr+YsVxYpjlWW1zuqc1VtrG+sk68XWDdbPbfRt+DaFNrU292zptn6202yrbK/bEe04djl2G+2u2KP2bvZZ9pX2lx1QB3cHicNGh/ZRhFGeo6SjqkbdcqQ5ch0LHGsdHzqxnCKcipwanF6OthydMnrl6HOjvzi7Oec6b3O+O0ZnTNiYojFNY/50sXcRulS6XB9LHxs8dt7YxrGvXB1cxa6bXG+7Md3Guy12a3H77O7hLnevc+/ysPRI89jgcYujy4nmLOWc9yR4BnjO82z2fO/l7pXvtd/rD29H7xzvnd7Px9mME4/bNu6xj7mPwGeLT4cv2zfN90ffDj8zP4Ffld8jfwt/kf92/2dcO242dxf3ZYBzgDzgUMBbnhdvDu9EIBYYElgS2BakE5QQVBH0INg8ODO4NrgnxC1kVsiJUEJoeOjK0Ft8Y76QX8PvCfMImxN2OpwWHhdeEf4owj5CHtE0Hh0fNn71+HuRVpHSyIYoEMWPWh11P9omelr0kRhiTHRMZczT2DGxs2PPxTHjpsTtjHsTHxC/PP5ugm2CMqElkZGYmliT+DYpMGlVUseE0RPmTLiUbJgsSW5MIaUkpmxP6Z0YNHHtxM5Ut9Ti1JuTbCbNmHRhsuHk3MlHpzCmCKYcSCOkJaXtTPskiBJUCXrT+ekb0nuEPOE64QuRv2iNqEvsI14lfpbhk7Eq43mmT+bqzK4sv6yyrG4JT1IheZUdmr05+21OVM6OnL7cpNw9eeS8tLzDUh1pjvT0VJOpM6a2yxxkxbKOaV7T1k7rkYfLtysQxSRFY74u/NFvVdoqv1M+LPAtqCx4Nz1x+oEZ2jOkM1pn2s9cMvNZYXDhT7PwWcJZLbPNZi+Y/XAOd86Wucjc9Lkt8yzmLZrXOT9kfvUC6oKcBT8XORetKvprYdLCpkXGi+YvevxdyHe1xZrF8uJbi70Xb/4e/17yfduSsUvWL/lSIiq5WOpcWlb6aalw6cUfxvxQ/kPfsoxlbcvdl29aQVwhXXFzpd/K6lXaqwpXPV49fnX9GvaakjV/rZ2y9kKZa9nmddR1ynUd5RHljest169Y/6kiq+JGZUDlng1GG5ZseLtRtPHqJv9NdZuNN5du/vCj5MfbW0K21FdZV5VtJW4t2Pp0W+K2cz9xfqrZbri9dPvnHdIdHdWx1adrPGpqdhrtXF6L1ipru3al7rqyO3B3Y51j3ZY9rD2le8Fe5d7f9qXtu7k/fH/LAc6BuoNWBzccYh4qqUfqZ9b3NGQ1dDQmN7YfDjvc0uTddOiI05EdzWbNlUf1ji4/Rj226Fjf8cLjvSdkJ7pPZp583DKl5e6pCaeun4453XYm/Mz5s8FnT53jnjt+3ud88wWvC4cvci42XHK/VN/q1nroZ7efD7W5t9Vf9rjceMXzSlP7uPZjV/2unrwWeO3sdf71Szcib7TfTLh5+1bqrY7botvP7+TeefVLwS8f786/R7hXcl/rftkDowdVv9r9uqfDvePow8CHrY/iHt19LHz84oniyafORU/pT8uemT6ree7yvLkruOvKbxN/63whe/Gxu/h37d83vLR9efAP/z9aeyb0dL6Sv+r7c+lrg9c7/nL9q6U3uvfBm7w3H9+WvDN4V/2e8/7ch6QPzz5O/0T6VP7Z7nPTl/Av9/ry+vpkArmg/1cAA6qjTQYAf+4AgJ4MABOeG6kT1efD/oKoz7T9CPwnrD5D9hd3AOrgP31MN/y7uQXA3m0AWEN9RioA0XQA4j0BOnbsUB08y/WfO1WFCM8GP0Z+Ts9LB/+mqM+k3/g9vAUqVVcwvP0XtjqDBHOoMmYAAACKZVhJZk1NACoAAAAIAAQBGgAFAAAAAQAAAD4BGwAFAAAAAQAAAEYBKAADAAAAAQACAACHaQAEAAAAAQAAAE4AAAAAAAAAkAAAAAEAAACQAAAAAQADkoYABwAAABIAAAB4oAIABAAAAAEAAADcoAMABAAAAAEAAADWAAAAAEFTQ0lJAAAAU2NyZWVuc2hvdMR0js4AAAAJcEhZcwAAFiUAABYlAUlSJPAAAAHWaVRYdFhNTDpjb20uYWRvYmUueG1wAAAAAAA8eDp4bXBtZXRhIHhtbG5zOng9ImFkb2JlOm5zOm1ldGEvIiB4OnhtcHRrPSJYTVAgQ29yZSA2LjAuMCI+CiAgIDxyZGY6UkRGIHhtbG5zOnJkZj0iaHR0cDovL3d3dy53My5vcmcvMTk5OS8wMi8yMi1yZGYtc3ludGF4LW5zIyI+CiAgICAgIDxyZGY6RGVzY3JpcHRpb24gcmRmOmFib3V0PSIiCiAgICAgICAgICAgIHhtbG5zOmV4aWY9Imh0dHA6Ly9ucy5hZG9iZS5jb20vZXhpZi8xLjAvIj4KICAgICAgICAgPGV4aWY6UGl4ZWxZRGltZW5zaW9uPjIxNDwvZXhpZjpQaXhlbFlEaW1lbnNpb24+CiAgICAgICAgIDxleGlmOlBpeGVsWERpbWVuc2lvbj4yMjA8L2V4aWY6UGl4ZWxYRGltZW5zaW9uPgogICAgICAgICA8ZXhpZjpVc2VyQ29tbWVudD5TY3JlZW5zaG90PC9leGlmOlVzZXJDb21tZW50PgogICAgICA8L3JkZjpEZXNjcmlwdGlvbj4KICAgPC9yZGY6UkRGPgo8L3g6eG1wbWV0YT4Kb298hAAAABxpRE9UAAAAAgAAAAAAAABrAAAAKAAAAGsAAABrAAAsO0WML64AACwHSURBVHgB7H15cBzXeecHYDAYnIP7JEgAvO/7FiXHsmxH0VqOHclO5NjeOLVx1VaSytYmf2zt1lZtJXvYSarWe7jWUsV2pJQsxzblSy47OklRvEnwvkDcNzC4gRkMBsD+fl/PA4ZDkJwBBiAG6Cc1u6e70e/11+/3vvN9L2ESRexiU8CmwIJQIMEG3ILQ2a7EpoBSwAZcnHSE8fFx8fvHZGRkxNq8XpmYmJCEhARJSkqStNRUSUtPk/S0NHE4HJKYmBgnb7a8mmkDbhF/b0r7ZvP5fDI4OCStrW3S1t4hXd3dAKBfgeVyuaSwoECKi4tkRVmJpAF0ycnJkgDQJeD9CEq7LA4K2IBbHN9hxlYMDQ1LX3+/dHZ2ST/2Q8PDMjo6is2vYAvlcE5nsqSkpIgrxSUZmemSnZUlBYUF4saeALTL4qCADbjF8R1UPKTY6IWo6COofKMyMDgovX190tXVrdyNYCO3CudY/G04IV+HHC8rM0MKwPWy3W7JzMqU1FQXwAhA4hrFzfBnLBIyLPlm2IBbJJ+Y+pnXOyItLZbI2NnVpdzMcLHQZvIcwWmuEUBmC7+PoiU5XFlpsYqcRYWF4nQ6Vc8Lvdc+XhgK2IBbGDrfUwu5USAQUONHX/+A9IGLUXz0Qk8bgdjo9fr0mIDivSzckyu5XCmSBTExNzdXUsGteM/Q0JD09PaBCw7K2NiY3kcA8hr3DgeNKmniApczxpWM9HTJyc7GszIlHcc2x7vnE83bDxtw80ba6QcTLGplBBjGYOggN6MRhPpZT0+vdHd7ZBCgoRGEHZ8gMQCgucMBLkUdzZXilPSMDCnMz5fikhK1SE5MjKvY2d7eKd0ej4qkfH4ggLrGAlONYBsMgMnx3ABaXn6e5OXkijs7S7meE/Ukg/sl21bOKbrF+sAGXKwpOsPzyHVozvd4eqQT1kUCbBgczY/zBgQEBDdTeJ4gTQEACosKpaykWIqKiiQ1LVXPhZr+eR85pg96X19fP6yYlljKY56n24AgNsUAGtjWa9TryO0KCvLV2pmd7VYDjLnf3seOAjbgYkdLfZJyMnCqkREvrIpDauxQERHGkBFu6kfz3mNlNE0g4AgkWhszwIWy3FnixpaVmYm9WzLA3ZKTH+xjY92si8YWgm1oaFAGBgZV5BweHpFRtItANtzT1JsEMFLcpA+PHJSiqhpZsM+E8YUiJ0XRUJCbv7X30VHABlx09Jq624ho7OQWN7I4EsVCgqq3D6KixxIXh6GXGd2K3Ca0w1siJMXIJLE6fqoCrKAgT0pLSyQPulood5pqwCMO2CaCr6enRzrgVqDfju1g+wKBceWe4RyVv81GrpcNUTMvN09yc3IkJydbLZw0wlAnTMR7sL2GWz6iOfblIAVswM2yKxBA7ND9AwNqrKDhohdcxQcuRlGRQBxHxw4EAWk4i+nQprOTa+RDl8rPszo2TfiGm6RAZ+P1UIBG2lw+f2KCxpmxKZBxIOiHkaYLFlAPgMj2mnaFgpp/m5SUiM2hIicHCQe2NIizNNgQfNxnZqQr92Mb7RIZBWzAPYRO7HjUgcgVuFEko9OZBg/6xKgzqYhI3xnOUWwjENmJWcKBwk6tzmlYGlNdqSq2pUJUo3Oa4mMmxDlyFoqN81GMLknL6AAGCraXznQvgGgMOfQBhhczONCdQNBR9KQumYZ3oNXUCRGY70VRVH/T8KKccHaDRXj9S+n3sgec6Uzch2/j4xMKJOpEjPRgaBU5BK2LdFCzA3P0Z7FEw2nroukkfCaNExQZ2QlzYJCgcaIgvyDIKTLNrY9lTwNOR2en9MKtQPGTYCR3NnQJHzR4ngOKoRUbbayeObk56minvknuRxDyvRMTLWc9nxW6PZYXfsyVLnvATYVKjUH3wojPUX8YDmgvjB70ixFUFMuo9wRgZifHo5hoOmVohzSdkHtyAxobGOlBX1cGOiCNHhQTU5zgCjDzLwYHNDk2aTBGNwLdFTgewsBCNwUHGQKQXDyUa4e+M/svxU+Hw9LtKF7SrUBxNFldGSnKFcnJSQ/daGkFGM1g9ZgxsKDVL0nAsXOoDgUONT5ugUT1GRxTr+I1gobgYQiVH2Cj3kWQ0bpI8ZBgY0c0ozm/CoFkRmjzlSgmknOpDwt7ioMEUgrEKzqXNbRKLX0Qw9DpQnUl84zFtOf70rhCRzwtnNRRjbHFD3qMgk7073Eg4mYK6WIGHHOOgCItKCZT1CQnTAfYKE4TcI6gxVV1RBhiCFaH6o0EMK2xMMyoLmkZmsKBbuqJp/2SBJzqW+wcGL2po7DD8Fj1LYzWo9S3YPCgoYOdBFACkKb9VA8aeQ1X4wc2Iz7BRh2MhoS8vBy16uXAqkdOZp4Tjx1FPYJKG1FgUYTuhh/RA+c69xpMDVCSDmYQ4vvO9K68x9xnQMmBh6AiIOmC4GDEASodU4wsYKYpKElHAtYC4PQ3iieQhbZ1wQBnCG0q5wfgOfMxrG9rRWRY16w7oVnJpFrbLE41jsgK6lYT2FQM4kgb5FQccfm35h7lZLhGLse/Uashfk+gMl4LHaFNu8w+tL3sSASWBv+ic7BjsFNYRgKXgosjNjflbkGwzdT5zPPjaU+aUqQeHQXXp+GIUkHQiERLrTEcjYwM49inEoL1Dacd+aRnOHfnbwt45GR0M1hcznA1nqP7weJ8PLZASi5I14SeV04IKYPcERzTPIPXEqA7Jgb1RtKb30OfGayXdZvBwlyf728WE8BZHyQwrfNA5CCBWcxIyU4+SZDxHI8ncQwgKUAABgKL/wcADoKJ162/xz08TzEGeoYRCQ1gCBoVB/Hh2Qn4PP27YP2GgKY9vGYIbc4ZoutH50fGh+AxTeFJDn5MiogpKg4RaHREZ2KjxY4g4/3LsZDWlB4sa+cQRNChoNWTrhE/vpWl7/J7juNe61tbIr35TqHfx5wLp2Xo9+HAZ4DmBMB4bBmkoDPiWhKAmKz6JM8TZAA1pRcYrnjMb0rg0ofI+YIKSB6jUv0dPNb7rX94Bc9K0Lr4bHJk9g/T9vD2Pux3TADHTk95v6m5GQ5Wjx5b4heBQ/GLzmELcASeIos7HX2mf041lIAM/iAheJ9VCNTgkTnAT3Z4C8Tmr4K3B3e8xo9pAGaumvP8e34sFWUg0qiZPisDRg7L2EHO5oShw1jbeL9+yKD1zTxvOe4NXbmfGlRBb+rADF+jDkj3CUVSSx+kYWpY9WfS34AplHY8FzqIhXZsc8y9BVDtSAoY059CukbwPJ8OCyn+1buD3Un7Q/AE6yNnJXjZ3QhSclcesy7q5vQ9MhChfMUKNYKFtjG0/Q87nhPgDJdpaGyS1rZ2GRzoR/gSdafRewDAFzMbG6Mvir0h3sMayGu8L/TvQ+/nNXM9/LxFREv0oMiR7OQoaAXnEmAU/7jnRhHFiWtmIqcRD/mboyhHNLtETgHjv6QIqtIJBmW1COM3raGWOmAMWhRZp/2dxihjrMG8ZoDNFph+Y/pReKvM9dDz5lzo34Qes6/wHnMf9wZQOFQgWgagFI07LUVsa3n5Cu0X5r7Q+h50PCfA0aLHaPer169Lc3OL1hHa6AdVGn4+9G9CX5j3mWsqgmI04stb50ggvUMfF3qeYoIl7xNsmAkdtJRRMae1jGCiIs6IDuOoJajssjAUYEdXVQDg05kNUCP8NGoxgACblwEFcM3wGu/jRtBxgNeCfqAykO6DA3hwUCeXtfrCtNTD+kK32b4ln0Hgc/BdubJctm7epLGu7EuRljkBrh25Nc5frJYB+GooQrCoaIFGsZiX1B8z/MORgRtfgJs5nj5vsXkqyVbsHu8LmuHBeXhOWT9EOzVWqH+LXMuS5wkiKs78j+Ign2vkdlOHnsMXMkCfoZn2qXmggOm8po+Y36b/GI6GPj5tHOO0o6A7R/2iAXBL6PYmNtTikryHdgC6fqxrUxwzCFpTh3ktM6ib36H70GvmmHuCjIHlu3Zs14m9oX/zsONZAY7EIcAaIUqePXdBRx9TCad20PeknR0ciASzrEUEl7Ikcys6ucXGpzu/1fHNi5nztDyRY+lvvGwSgKTKb4gYQLGQoGW9FA8NgKcqsw/ilgIECLkbgUV7gFqpYVSbjlXF+aBhhoYaNdDob2PRxt78HZ5lSUvomCiW3kl+if/UiGdxMcvuAMaB/kbwaugegyHAgdkPWdjX9u7ZpdyOFmv220eVWQOOIUF19Q1y+cpVrYgdnBWuX7dW1q1do6Zy0zDT+dlAu9gUWEwUIJiNjkhQG2DzHDfCkjonc8s0t7RIR0enAs5w5m1bt0hlxSoNQJ83wLGRLa2tUl/fKLfv1Cj96KBk8O06AG51VZWKfoawhmNF0iDzN/bepsBCUMAAh3WZY+7Vqk7xDJDjMfXIm7duy/UbN7VZxAALmUtFxUrkjCmd4nx64QH/zIrDsbLGpiYF3N3aOm0oZVrOm9qwfq1UVVU+oDr7tE2B+KUApbnqS1fUTmEMOKvR1wm4leXlCwc4ApCWv/y8XABunQ24+O1TdssfQoErV6/LpctXVNS0AfcQQtmXbArEggI24GJBRfsZNgUipIANuAgJZd9mUyAWFLABFwsq2s+wKRAhBWzARUgo+zabArGggA24WFDRfoZNgQgpYAMuQkLZt9kUiAUFbMDFgor2M2wKREgBG3AREsq+zaZALChgAy4WVLSfYVMgQgrYgIuQUPZtNgViQQEbcLGgov0MmwIRUsAGXISEsm+zKRALCtiAiwUV7WfYFIiQAjbgIiSUfZtNgVhQwAZcLKhoP8OmQIQUsAEXIaHs22wKxIICNuBiQUX7GTYFIqTAogIcc5rkYUE+O8VChF/Pvi3uKLBoAEfKMYNxTradRCjuepHd4IgpsKgAx0SY2VgjbQPS5NlZuyL+hvaNcUSBRQU4ipRcv3o9snYxdZhdbAosNQo8VsA1tzARbIPcqbmrdGWavCwsrbtx4wZZu2b1UqO1/T42BeSxAq6ltU0BF5p5mYvGbwLgmI3WLjYFlhoFZgLcmtVVmgiWa8aZ1P4Pe+9ZZ142gLtTU6MLdjDVuQ24h5HavhbvFLgfcJNgLmsBuFVIdV4yv4BrbSOH49oCd2zAxXtPstsfEQUuX74qFy9d1tT+JvOytbbAAgCuDSue1jU0yO3b5HCTuj5bRka6ipRcQccuNgWWGgWY5vxitQU4pvdPwOpUa6E+Va5aJaXzzeHuBxwXG0+TLZs3qvN7qRHbfh+bAgTchYuXlBAGcFwtqoKAwxLE86rDhQOOCyLSNbAFy7Bu2rje/jo2BZYcBaohTp6/UK3rIFKq4/Jr69ZZHK5kvgHX3tGhOhzXzGLlBBxdA1z3eNOmDUuO2PYL2RS4WH1Jzp2/qKvrGsAxlJHLVRUXFc0fh2NlXAG1vqERvolrNuDsvrgsKHAB69lziW2zki853NYtmyFSrpzfFVAJOE9Pj3I4yrUsbAQXtmcDqMfZZW4UII0DQ8MS8I7IhN8v4yMjMo71pSe5DC6WxtU9jqm5J4LuGF4lEd8gEe6ZJOjSSWnYIOLrBsnDLnOnAMXJs+fOqzRnnrZ921blcHm5uSpimvMP2s/KD2cBrheAq9cVIYl0ruPNbQcasHXr5gfVZ5+fgQKTsHgRQBMEE5a2ncA2PuYXf1eXjHZ3S2B4RPwY4Px9vTIxOmptvlGZBBAlEYBLT5cE0h8AcyDax4mPn5KTK06E2iW7s7G5JQFgTEgCICH6J2BLxP0Eq10ip0A44IiDHdsJuAqdKRPJktqzBlxvb5/UIbSLci0rooWGDdi1czsasS3yt1jmdxJsY0OD4uvsFG9Ts4zU1oqvsV7G2prA0SzupoAcx1rT41hXmuDEpnvQW4CZhEQLPPwOCQBggiNJuV2CI1G5XWJmjjhLSsW1cpWkV1ZJ2opyScnLkyRwQxt0kXfAmQC3c8d2qYTjOweB+/MKuP7+fgWcMZOysgBG6D27dynoIn+N5XcnOZm/r09G29vF39YKLtYho10AXHunjLa2ir+zQwKeLgALIiMWdcdwBk5GUGF7WCEAJ8e5Orz+HSAKAIKjpaRKcn6BOKHYuwi8wgJxFReLs6BInMUl4iooEEeQSz7s8cv5GpmJ0eFoIGThud27dijg3JQigIFHlVlzuIGBARhNGmC1qZ6qYwyi0N49u7URUyftA4sC+Dj8QORMY0NDMnDzpvR8dEL6PjwO0DWAmw3jgwEcEP0kiXuC69EfMDLyou4AgDg+Zul+k2PiyM6V1E07JPfQE5Kzew+4Xpk4UlNRd1JEHSeyepfGXfxu9LsZK6UBHAe2Pbt3CkO7srKyIqLbrAE3PDysHO7M2fNTVLUBN0WK+w4CoNdIS4sMVF+UwSuXxN/RIn5Yev09fdDFoI9RTATAEhLIzQC0CEbL+yp52AkFO0HPesA1AeykzEzoedDxCvLEVYpOs2WbZO7YKa58iJvQB+1iUYBgY9+uvsRIk0v3GE327d2tHC6dEkIE32zWgPN6fTCaNMhHp05rq1gZG2VEyki87kv9g9KaOA4jhw9iorehXgZrbsvAxYsyfOOGTHgHrNdPdKrBI+YAexRxAUC2DyZQgDtRHDn5krF5q7h37oSet1pSy8sBwlJtWyQd6VHVxfN1As7n88klxFJevnJ1yi3Adzq4f59yuNRU1/wBjhWNoiPV1dXL8RMntSIDuF07d8jOHdu0Ucv9QwVgyh/1eKTt6E+k9/j7MtpSD+YCDgaRkVzGKrESG4OPi3pHvQ//E3yTAbgYHJK2fpvk/dbTUvKZ55XTJSZDzF3GhYHKI/iWnC1w9dp17duqHoAmhw8dUA7HoI9Iyqw4HB9MAwkB9/6xD6cAx3MEG30TlHOXK5ejiX8Q1sbBa5el/+wp8dbWiQ8GkgmfF9wEOhJN8ouqULcEx5sA6IB/R5YbxpUySa+qkmzoeBmbNksqjCwJsEQvx8J+PQSfKMF2/cZNBRy5HsuTTxySysqKe8RMnn9QmTXgWCHdAu+9f0yfTXCxYdu2btGNSYWWG+A46gVgTPJChOw9e1r6zpyU/lPH1VKohhAF2mPkaNTj8L/F0vQAP639VAfhPbCOTo7DQorDvE89K7mHn4R+t1VS8vPFgUnGy61QVRoYGJRr128IQxkZ5GEA99STTyiHM9Enj6LNnABHHY4cjh2N4iMBx+BlRpukpaWqI/xRDVhK1/kRek6dlNajb4qv5qqMwWk9OQ6AGWXa7B/XS6N9k7BUCkQk5WZEFIwodB/cUwi6IBAdGVniWrVaMvcdlqKPPy3urVvvuXU5/PD7x6S/vw/c7Zbcun1nCnDs8x976ogCLlLmMmvAEWQNiKX84PgJfD+IIigEHFMsEHScGxcp6uP9o9Hk7odfsvf0KWzgaufOSqC/V6NGEpLhXF7oYsRDWiQJHmLeiSgUiIoORKHQ55aUjtAvuAHUSU5XAPQ0iozsROpoxzsx4mUM1lW1oCanSvqqCsnauFGy4Wt1ZGTqvQv9ao+jPj8ienoQ6HHz5i3N4cOIKhaCjByOsZSR2itmDThW2NjYJMc+/EitkypOAXCMnuZsATf8ElP+Ct68RAvf2+/pkaFbN6X5tVdl+OZ1xD0OQU+DYYTm/YUqypVQGZkTVC3qiQzfosGD8ZWJGTD/Qy9zIdIkBY5uJyJNGALmgPk/AQp/EjYN/0KbJxHRMjHK+E2vjPZ4YGVtkWGk0hgfHJQUOM9LPvc5dZwnQU+PtKMtFBnmo55R0KIbxi9yt7t3a1Vy43uzf1OHW7myPOJq5wS4pqZmOXHytFosyeW4MWPXhg3rJRehLgxmXsqFYOM7d/7qLen86ZvibayXcXAELYq1BQQc2mGJiwFJLkY0CcTAtDVrJL2iQtLKyiQRAc0Mcp5ExEqiEwYtgsWRDCskdG2cp/+PLkCyQ74XOaMCL4DYTlikGThNAE4gxnMCdTkLC8UF8HG0X+qg88IlwPmfNTV3pQFMxsQN0zJ5+OB+KS9fYX3zCP6dE+CYKu/0mbMwmXqVy7HzVVVW6LTzQoYPRWgqjaCdi/IWf2+P9J4/L13/8hvpP3lCozi0oQtlzaOljFwMYFJulZVpgcmdg0gSOK8hOjrgH0om9yK3xfchYIx+RnARbIku6NtpGQj/yocTvEADnx2YbWBFu0yTfmIsoLMWRvHeSTCeJMNpvhwAR5dAI5hLLazyLejzfGdyN9op9u/bKyvKSqeJ9IijOQGuFag/h+kKgzCZ0i9HwBHtTATLRqQyVGiJFuo3g9evSe23voWA4zsygY+iYVkLZRhhPQBcImcI5BVK+pYtMOOvVhCwbRwMhpHgabSuVvzNTeBSnNpDsFGvo6GEhi66KMDtUtNV3EzbsFmyEIzrXr9BUktK1CJpiZn3uwPIBbmRuy11DjcEqaW2tg42iybhxGsCjtwtE3aKPXt2Ib1CScS9fE6A6+jolOrLl6Wvt1+G0eEIOFbOGbDM85AOxXyplm7EQXZ/8L70Hf8ABpL+oO403yKkJeYlQgxMysq2jCDQlRPBnSaGhwD6IViuECYWgA4GfZpi4ATEIYqEAr3MCuviF6GixxIESxLESYzYNKbQGOLITJW0dRvFDcskjSQuiI8zFQO4ma4tpXODg0PITlcjTRi4uro8CjimE8mCRMHg5RL4KCMtcwJcF8ze16/flE7M26KfgmbxIoiSVCKZIJN5Kpda0egRvHfbT38invffk7GOdnUaw2Q1v6+K55s4SxUBMwE0fPREiosAix/tCHR3IWQMOiRFTSpk0NfUyf6otpFb8W/o+MagCc1UUpDYNGPbLsndf1CyEPKVhlCvxeewn1+Sm6ezb99AsDlzsfb09CpHZ+xkbm62BnkUPWBAMn8fup8T4Fg5LTdsSG9vrz43H4GvK6Ckb1i/VjIRHLvUykhzs3SdPCmet47K0OWL6PB4x0d16BgQgQaOxBTM4E7HIMaZBADImKcTXI3RK8QXwq9iaBWdHCOnHJGM7fsl7+OflBWf/7y6EWLwKnH3iP7+AY0yoTjJYzIWzg4oKS6UjRs2aHqFSF9qToDr6+OcuHrNbeKBaZyyPBtSXFSIaJPNwjlCS6aAC5C79V04K03fe0V8TU2IKqH5Hx2d+tR8FepIAJtOMiWwTVVoD/Uy4bQbFrYhlu1Ap6LVMwkzyDO2bpfiz3xeMiFeMsRruRX2cyYPomuABhQCjhNOyVjWrl0Ni3xOxCSZE+CI9iaM+FQoO7u61RFIvY1cbveunZK9hABHkWvg5g3xvPu2tL72D9CHqPdEFrAa8deY6Uaa6yEyKpgo+sFMryLjTPfOw7kJ/4i6ALL2HJSS33lOsnftAfgJfIP86UpprGFRQ8sM16fvjK+jHkhvJ0+dVSmOTnACLj8/VxPAci5cNIxlToAbgCO0FeLknTt3pQMpAuh55zSFPDhV98J6kwOz8VIp7EwNr7ws3e+9gxQIdehVQf1oIV4wtPMCdAtatD7odxKQin/7F1L82RfUd3dfIDPu8w/0qzmGhhf2haVivaTqdOIjRBFhlj6jqYytYg18zmWwxmdFoTrNCXCchNrR2QWF8pYCz/gnuE7coYMHoFRGzmoXtBNFWdkYA5KxlkLjK9+WfoRuTQbQ6QmCUCBE+cx4ul0zhPmGpOSlr0rhZ35XMioqNDLlnncA4MYwAPu5IeFRGowuKVGIWvc8axH9oCWWouSHH56UPlij+Vut8UhtvhEBHjQS0oASaZkT4DgJlai/fPkKRMuWKSeo250lRxDykg9OtxRGuSFMtfEgKLn75z9BiNMtOItB4GUCNnYkxopO+r2S/fQnpeATn5L8gwclGbr6PYUdESFQQ3V14kFMKe/JWr/+nlvi8Qe5WSeYyrHjJ+Bvhs6O767+5hVlsg3T0CjFUaqLtMwJcJRnh5HC7fyFizpVhxyOIwDdAU8eOSSFiFrguXgv3e+8LfX/79uImeyG2R2GCuowy6mg000iQiUdxpOcJ56Sss9+ViNbwklAPbfv7Fmpf/k7Uv6HX5b8p54KvyXufnNqDv3NxxEzTAc4+zMBx0xdtFPQZhFNCOOcAMeKGdjJ8K6aYFAnR4QMsFjOhC2CtTKaxiy2r8FZ0KMQjzp/+TNp+Pb/gtqG2NDlBjZ+FAIOFktXxRpxHzwkq176kgZAz/S9PMePS83fflNKXnxR8jGdJxWDrkbgzHRzHJzzYoBta++QU6fOaHCHARyjqZgwi9wtmlkxcwIcuRkBRoWS/jg2hr/TEIe3f98e9cAz3ixeyziiNPoQSdP5619I549fh6MZU1IcSzsge8Zvxek+AJyzdIVk7d0vlX/8x4g+KZrxVs+xY3LnG/8dwDwseU8+KXm7d2sW6BlvjoOTzE5HP/NFrJozAvDRGERGs2ZNlRxAHCUZSjRS3JwAR3oRdB9hxgABZ+RbxlAy1UIZktBQn4vXMgYlufmNN6Tnww+Q+OcKwIaojiUgIkf9PYKA4ywE9559Uvlv/kRnCsz0nB6k/bvzd38rycj87N61W1Z+6Usa3znTvfFwjmto0PXF1Ao+ZLs2fZzT0A5hpkC01tg5A45EY6o8Ao7Ip9nUWrZqo3Dd47y83Hig631tpBuAeUhq//f/lIEL5zAXjE5u6KOxMJZgkOLUF/yDeoNmfg3DWqTJegyHKysX994DUvG1r80YX8nBt+f4Man55jcwK2FUMhFQXfXn/w5z57AcL32JcVgYoN/Q2Kjz4Kg+EWAs6xFJdejA/qjfKCaA47pZd2ruTk3TYST1urVrZBViKouLZxY9om7pAv8BTdwjdXel9ht/LYOYXJqYEsO4UHZgWP0mJ+AoNqBLRlwkrZ+LsQQB56qCDnfgMHS4lzS/SXhTqU543ntXav7rXyMKp1syMOug8q/+o6bdS47CVxX+3Mf5m5OsmbuH8+BoQKH4SJ2N/Zs5KaMtMQEc2S1nwnrgIGSjCDiCjZacaGbDRtv4+bx/qLEBYVznpf2172lOyYSU2Mx8YIyiIyNN3IeelLRVFeJEiBAj+gcw1cfzzjsxj4mMCY2CRpOM7bsl+wislM89h3aH+VjB3cZhte5++zdy52/+s1pzUwHQ4t//suTs2QPfXWVMmrLQD6mtrZO7tfXCNe0pvSUDbBkId1uDjGbbtm2JujkxAVwNuNtdTM7jrFg2yokZxYUFhbJ6daVwBng8lt5z56QdnWfg2HvIkNyNnCBzCONCZzSSo7MwT9LXrZOCTz8n6Ws3iBPhb972NunGJNaW737HChdbbHoip/YEfJL9sWck/xOfnNEPR3HSjwG3619+JXV/9zcaHOAshpEFboTiT35KcvfujcdugDwmt+XO3bs6S0ABB9E4H2pSFayU1OOiLTEBXH19owYxc1asaVRWFkaB1as1oVC0jVoM97f//OfS/E+vYsGNFnAgKMsY2WZbNOUcuARL8e+9KMXPf04neHINN6791n36NDjDr8UD9wMX3phLXbNt48P+TiNNRoel6MWXpOi55yUTqRuYgCi00IUycPu2dL/zG2n9/ssYYLCEWaZbnOWYjPzFL0rxs78TenvcHFNdunW7RjMvs287MBiWIMqkqrJCp6BF+yIxAVw7HIOUdW+B4EwpRjmX5lJO0WEm5ngqHKmpi7S+/k/S9Mp3NHOVcqdZTH1hJyRnSMpwS9rKCsk5cFCy9+2XjA0bNaMxjTC0hDZ+/3uwhB4XX0MdDDMA9izqmk8aW4AbkvKv/6kUff4L4kJ0BRd/DC00MnW+/750v/u29L77a1yygq45paj8q38kZS/+vgZha6qH0D9c5MdnkNHgBtLjsU9wS0ZSpsqKCmHQcvmKsqhbHxPAMcasqakFudevaKoFWnLYcZkyj/64eArvYoKcMfhbWv7xe9L88v+VBJe12GHElKX4CCMDS4ITCnaGS1zlq5Gzfy84GyI0II4Yi52uO4Dlqu5+83/omgOLDWj6EnyfBMAHa82t+tO/kCJwZw6o4d+UPstGZC3zfPCu+JDagQEC7AOTvmEp/9rXZcUffhW0iJKW2oDH84+2He0/dfoMEsDe1HfmOapLnAO3cuUKjaSKtnUxARzDu1qQbZjuAS56YJyDDO4k4PiBjDk12gYu9P3jEB9HMHu67QevYfs+nN1YhohcJ8IyOcZVTH16dxp0tLzfflayt2DGNIwGXIlUOUPQtTDc3Cz9l6ql7dXvIi9KDQB6r5gWYZXzehu5WzIMJKkbNknZ770geYcO3wc2NmB8ZFhu/Zf/pG4BZDZSkJLDT/gGZMWXvyalf/BVDWbW5ZHntcWxeThdXDQAsk+HZlumQZA+ZnK3aKblmFbFBHAUI9tgxTlxEnn0EdDM0Y/yLifn7UG8GR3h0YS/mMY9jn2Aa7fVYLrR0Tek62c/BodDdMkjAMeOpekJIHsm5+ZJCvxVTElAs3jGToT/YNImjSPhpefUKWn7xc9l8OJZzN72QHdbfL4qui/SqlZLAabl5FIchnUuvNCF4sVSXPV//9/UspsIqYCIo+5KDlf4uy9ICUTR9MpKYTaweCgEG2fDcMFRhi2y/1KkpI/54P69UoqgjmiCls07xwRwbAgDPJkUlo1kIeDoFuBaA9mYrsORIR6KZlCurpauX/5Uet7+FYwYGZbDO7TxFLNMoXiFY6YQ4RK+qRsx0/3gk5KLkCZOUZlxnTX8PXWetjePSuM/vKIZv8hJtPBhLEEuaP14TP+inZPjfkSX7JaKP/tLSSvFoo0z5KkZqq9HusBz0vmjH8hIzW3QLAgqcjjMSs95+tNS+Ny/kpwdO2YceB7T2z20Wp0Jg4mnV65eUx+cARzDFhmYz8RBlNyiLTEBHCvtwozvk1grrh8JVzg6kCVzch5Np0yyEi8ZvPwgcjc4T/ev35K+Y+9q57knnEudwBi5J2C5RB6RJHeepK1GwtVNm8SNzYVOybAmTl8h2O6bqAlaUXcbgQje8eY/S9vrrzJrnVr1SEeti1EnYUYJXlvQwvdEUiEnBo3cw0dk1b/+I0lG4qJ7aBFskAcGn+YfvC4jd25KANO1ptK7YyBmaj73wSckF9N6Cg4flhRke46HwtVy2qFa3Lp1Bz649im9lYH5RwA49ulwPTaS94oZ4DgrlnkfPEiNzcSw5HqcnMd0eauQez1eYip98Ll1vA1L23tvy+D5M+g8mOuENHIsFB1pDncWQkTMc0N8zBVnfomk4h1TkUKcIhMjKh71IZgbhXPsek+fwITWj/BkjpRB1gb0BRBG5mtpsowvj4nTqSsD3C33mWcR9f+MFBw5okljSQdTSA9OOO186xfS9N2X4eyG7kqDUTD8SZfAwjMyduyWnKc+LsXPPKPriZu/X8x7rmHPJbW5YE1nMDUek79mIzb4IEK6mEZkNiVmgKOl8irYL6cyMOkKSzbMx6UlxTozNl5mf3Nmd/PRo8ik/KF4b9/AiI7ZAUEz/eSoD+njEE/4W5+QnJ27JBMO7BRMsg03kT/qQwRgBR2uq5NRcFMuRRxaxgHG4VvX1Sc3OQbdcBZiS+jzZncM7sbcKZN+qfr3/0Hyn/ltcWIhkHBuTcskfW+dv3xT2t941TIwheqhKg34hQlm3YeOSNnzz8dNEiIPpmXRHdCGeFrm7qHRjzO7mctkJ5LlRpM4KPQbxAxwgxjpatGJmJ2WaRfYQMq7XGOADWTq83goXNut6Uc/koFTJ8R7F/pICOASwd3cO/fIiq/A4oa8+snQZzQvZJRciJyBQGMolBpcDGGgM/Vfuya9Jz+Snrd+BjvMhPquzOUF2VNvQ/iZE++XtmmbrHjhBXFv22G5MsLecxQTcptee0360F5vPaysXMAk9B4F3JikrlmnYiVT7TGjczwU5ug5f6FamQfnxNElwAiTsrIyWbcOMaXhM94jfKmYAY5iJOPNGOZl0i2QBVN3O7B/n3K6CNv0WG9TwP3whyrq+ZDCXAEXlPaSIUq698BCBfM4dSyuTMOc/knIzR8pl6OO6IeeQ6DxI5pibCVcX64PKQoGz5/FdfRf5qBcqMIKtVJByvOdUvCZz0n29u0zciVaJrmiTv3/+ZauHKR/F95OPIuc0lW5RrL2HZCVX/iCpKLDLvbC78LkWCfhg2O/pgGQKlIxBiE6vLk8FZdjm02JGeA4daGvr1edhMaMygYRdB/DGlrRrDAymxeJ1d9MA+6kKOAoIrHjwIDgqlqLbQ2MJKth+PCpvpa3f792yGRkqoqk9Fy4IL2wglKPsxZFtP6K4hozKw+dgWulod4S6SJ5YCzvwSDA4sjLl8JPPysVf/J1DDgw4BidLKSu/lu3pAecresnbyD8rW1mH2IQcCmrKiUT8+hW/cFLarkNecyiPCS4mpqaYXU/AQOgZT3mOeah5MRTqkmU3mZTYgY4WiU5GjDahEuzGr8bTadMt8DZA/GQbmFGwJGy6DxcMYaZj5M4ix0zv9PWrJWVX/kKxKTSqeiRB30EugEoRrYd/WddbQePwzND7oYoRmlsDAl1rSWvQi+G3DePhxQlk1xO5Wz5Tz2tUf7h1TFvCd+l45e/kPajPxJfc5MwWGAm66UOVFMcbj843BfjgsOxHzdiDtypM5gHiX5NIxj3TN+/eRMWpISba7Z9OWaAIxtmoy5crJbqS1cUcDxHXY4LHqxaGR+WSjWa/PjHWJsbOtydW5ZeYowmeD9BqoFJ/6jm9+CC8zSXc4HDRxWm2huGv6rl9X8UD1I2JDhg/aTzLqws+EKOrB/fiUBypLskFQMjQ7Gytu+Ejno/1+agMYLO2PbDH0jHz47CcjltxQ17FbVYMjUDdbgszKMrpw5XGvnSTvc9b4FO9GK103qs7lt96RL6NFYoQh+mWMmVfbcjUxfXr5+ND47Njxng+DAC7GL1ZeVy/E02zMbSF0e5txis2OgqvL4Yixf541sxevd9eExGrl22dLipYGIaFLhA4aAUv/AlRM5/Vi2V4ZHzM73XCCIx2pH9q+/9d2T4Kp7L3ChkaeFlpnPh98T4N0XbydEhyT7whBTgnXKQGiEF06tmEiUJtib43AbOnUGwdW0YfcIaFmqlhC+O2b4We6p0dGFYJtvgDmjUkC72aRM5xZAuZupin55t+f8AAAD//5J3RpEAAC0YSURBVO2deXBd133ffwAe9n0hSJAECIAA912kSFGSZVmyZFuVXXuaxk4b23VTTyfpNDOdSScziafjJn90Om3HnUk6rZt0GmfiOHbiekls2ZKsneK+7wtAEARAAMS+7/1+zsOhIAggAOK9h/eAd6TL9959D/ee+zvne3777yRMqFkI25Wr1+zKlWvW09trIyMjlpiYaOvXrbWK8g1WVbXREhISQni30F9qsLXV7r32mnW8+br1njpuCSlppocI3mh83Cwp0RIz0qzsq//Kij/9kiVnZ1tCUtJDOwKJuy9dtNvf/lPrv3nTxjq6gteMAlpMjGqMkgOWWlpqRc+9YMWfeslSCwstKU3PPa31NzRY5+lT1vQ337XBhrs2MTRsGtDgMe237qPoNTE8aFmPPW4FH3/OVj//vKWtWjXTL6PmHGN18+Ytq71dZ3cbGo3PgUCSjmTbuWOb7dq5Y1F9TdAFQwq4ujv1dvNWjTU1NtnA4KDmZ6Ll5+dbRcUG271rZ9QDbqi93Vrefdfaf/lz6zrytiWkZjwA1IQWkEBenqVv2mKlv/4lK3zqqXkRf3RgwDqOHbGbf/SHNtrbbwnJ6fP6u7D+iGHnSBi35FVFlv/si7bq6Wcsf9++j9x2QsAZ17Pff/cdu//G69b1zhs2Njik50j9yG+nnpgYGxMo+y3vY5+wohc/Y0WHDlmK5kI0N+Bw7vwFq62ts46ODgMcKSkplpebY5s3b7JN1VWL6n7IAdfc3GKA7lZNjfX19VuSVv9AIGCVFeV2+ImDUQ+44a4uaz992lp/9hPreP0XAlzmB4DT5Mmo2mTFv/Yly39sv2Vt2DAv4neLq7W986Y1/d//PTlRP8o95nWhUP4IMIwMWFpltWWLA5W89LJl6nkC4tjT22hvnw00N1vj975j7W+8ZmMDI8GfzMGhg4Drs8IXX7Liz37B8rZvt+ScnOmXj6rPAO7I+8espva2jY6O2rgWm7S0VFu7dq1trKywstL1i+pvyAHXpQnb2HTPzl+4ZD09PQ5wPET5hjJ76qnDFhAAETOjtY329VnPrVt274fft9Yf/60lpGUJcAF1d8LGB/ssd+8+2/Bvf88yysosJTd3Xo/R8sYb1vqr16zzzddsfHhUnCF5Xn8Xrh85MTIlYMmFRZb35MfEqZ+xXIFhJrBNaNL1ih6tr75qHUfesv5b1y0hoAVjDrDR94mxUZsY7LXVX/h1W/NPvhgEdEZGuB5r0dcFXKNaiN5994jdrrvjmMOYPmeqz9XibGVl6614kSJxyAE3KFHjflubHT123Do7uxzgWClYGQ4/ccjS09Mcx1s0dcJ0gfHhYUOsbPjuX1jDX/65JablfAC4oT7LP3TYqr/xx040SpwPcLTY1P3ld6z1F6/YYF2N2ZiEFOmBS9N0b/4fHbLk4lWW/fjTVvKpT1vBgQMzd0d9H+7stPa337Kab/0XG0dnW8BiCeDGB7tt3W/+S1v3G1+x1IICS5R4Fq0NmwNq0PvicHfq77p5CuCys7OcOlRSssZyF8mhQw44VgmA9s5771lbW8eDVYLO7tu7x8nC6elRoMPMMuroK6MiesNf/B+78+3/IQ73gUgJZyp46mmr/r3ft6Qscb45Jh8i1Zgmac23/rMA9zNN9MmbzoM7zNK9RZ12HGe439I3b7ec/Y/bmudfsPSyDZYivXR6QyoZ10LZ+P2/sbY3ZEC6fCn4kzmeeep1nEgpqaDs679t677yNQvIEDMXzab+faTf98rQ13q/zS5evGTNLa2OWQC4/Pw8e+Lg41ZYWGCpqQ/XW+fqc8gBxw27u3vsyNFj1tp638nBdLqoqMCqq6qcxTJ3nqLYXJ0P1/csGo1//Vd258++LWPBsESjcUvQf+kbN1rBM89a2W9+eUYr3vT+jGoABzRwdX/yX639rV+JW0o/WhKwTegZxiwpM81Siost77CMI48fsrzdeyxphgkE2Aals/VevWJNf/sD6z53RovFiLoua2ziPK3MuoZIJgtoipX91tdt7Zf+WVSrEoxde3uH7A93nMGkXQYT7A9Y1QvFmZ968pAxbxerDoUFcKwUp8+et3v3mmU46TMAlyWOsGZ1sW3Zskmvq6fPzaj7fO9n/2B3v/c9G7p728a7ZcZXK3z587bquU9a4cGDmkhz62ED9+5Zx7lz1vKDv7LuM6cFuMylARzcarDHMjZvsaLP/poVqf9Z5RWz9oUF5/6bb1rd//qfNtLSZGP9WFbRY+cJNv0S3S8xI91S15fb+i9+0dZ85iVIGNXtnhaZq1ev2z0Z/pjDAA4LZbHE74OP77ecGQxKC32gsABuYGDQbspKeUfWyiYZUFglUjRB0zUA+x/b5wwoC+1opH/ffvKE3fvlL6z73bdsuKlBelyClXz16wLcC5azadMDy+XD+tVbW2stb79tHa/93PqvXQ2a0SPF4QQyxGMbH7NE+ZDynv6Y9M9DlrN7n/OFBbQAztTgyi2vvWrtcgF0nzrh3AE2Lm41X842edGJEemJhUWWI4PMmhdetIL9s+iJM3Viic4xX0+dOeuYxBD6qhri5DpZKHds32aZmYs3+IQFcMNSPltaWuRArLHrN24+YM08AK6B6qqN7hyfo7X11tVZ56mTdk/Gk74bV6XsJ8k6+e+t6JOftnSJZfPRRbqvXbOmV16x7iPv2ODtGln3xBUjATiAJutIgsRF/F5p60pt9cv/2LL37FXfZ3A8T4Jz6P59Pet1a/jB96330gUbk5XZWWgXCDbGdGJowNLlZljzG1+xvAW4UJZqPiCF3bpVa+/L2Of0V9GQc+vXr7MKPUd5eZncA4t354QFcHS0V76bq9eu25mz5yxZ3I2HwFr5xMEDijipsgxxu2iOOhmVGNV/u9Zu/advSoc5JcClWtUf/JGtev5TFmClmwdwui5ftoaf/tR6Tx61oTt1EQPcxPCA+jdhqRuqrejZ52yNfGwpWqmTZN6eKSoGTjgmQ1GrOFvTD/9OYnSdjcmH6iyS83jOmUAyPtRr2Vu32cbf/w+WUV5hgSh2BzA3+/sHFLBx094/esLNV56Jebx1y2bn7C6QHpfsxOqZnnb+58ICOB5gZGRU8vBVO35SuossWx5wsGYciKsU3YCMHK0NIwOGg5r//t+s88T7NiEAVn3jP1rR8y9aANP2PNSZrkuX7O6PfmR9Z07YUL38OuHkcAKNs0LKFJq+odwyt2yznF17LXvbDsuulgis8KSZuDJAG7zXJKPOW9Zx8rizRo4PDUoU1cg8AmcjegUAJ2VlWO6+A1b5u//O0qSzzwT0aBl7gNXW1u6CNfAfE6hBg0GgAgE6nN+LNZhwzbAAjgvTrl2/YadOn3ExlaOjimzQYJSKRcOeKysqHqwkwV9H378jcuLXy3DSIT1uQA7fqm98U4B7wQLzMJjwNA843AlxuPowcDjR0/nVJsbFgZMtMTXFAlnplnvwSct/+llFduyw5FkswlhescD2ayHoPntG8ZHfs8HGBoFlLChGPiJnU2iG8/NlyPWQL/2tVAaT2foQLSOO/81ZJ2/fsduKofTWSebroccP2LZtW0LW1bACDufhlStX5Qhvt0GtpIiQKKHIxbt2bF+0TyNkVJjlQqz+nRcuWMsrf2/3//7vrPoP/1iAk0ip1W4+IqWLWHldsYe/etUGbipCI3V+ERqzdOcjp+HCNia3xeigpVVts+zdj1nxMx+z9NIySy4odGLcbJxlVCLjgAxazT/5obX/6pc2It8pIFyMGEkHcR+MD/VY8Re+pEDof2R5O3fOy4XykYeL4ImhoSG7cPGy1d+9q/jJTjdP4XIZEoP37NphGzdWhqw3YQXcfTkRg3GVtfLNdbuVA31u7doSO3jgMfdA0azHMaGJOmn+6Y+sXpH+VX/wTWelTFK0zHwAR/whYuW9v/6OdZ8+IbeALIOPyjn8kE+Kjsh8gfxCS12zxjIUNpexcZNlbtoqvWmrJWfKKS8RcrZG1H/fjWsyCp2w7pOnrL/mpvqVqP8X4Geb6eL0TdyWvm341//Gij/zsosumQ30M10i0ufgYljVjx0/YQ0KuIfb4RYBbKtlYNq8qdrWKdslVC2sgMNw0irL17nz5+UEb3sQKrNaVr4n5UjMll8jeVJeDtUDheM6LT//B6v9k29Z+e/8rhU8/XFLzpqfPw3Dy5AcqHV/+i0X9Cu/QBBwCwEdYuOUliC9SthQ2lCiZVTvsJzHDmoReM7SiookTs5s6nd/rusQtkbmQtvR9xVM/ZZ1vvGKuJqulbx46xv3mJCImihLXnJhsVX89u/IwPTJKT2PzrdBA1+vvfPu+/K/NTumwLlcZQdgTS9VSCKO71C1sAKO1aKnp9dFneAERzbmYRArMZ7gAOfBor31yLx//8i7lrmxWhY3GSTWr5/RADH9OeCQpLU0/vj/2f3Xf2l9F85KR2KCzzM8yHOzsRFsEdLR0i1jy1bLkm6Wq9ys1OISS1lVbCmaEESMzMpJ9MdjAluvjFjNr79m/ZfP24Ac+mPdskS6cJAQxHY6QPdZRkWVFX7qs1b09NMy1lRPJ0nUfSajpU2xv/jfMJz4OVq8qtD27tljBQrnIng5VC2sgIM1o7sdPXbCJfMBNs5liUNsKCu1Ck3e1Yo+ifZGys5AU5ORSRDIzLQcTaRZJ/cMD4PxpOvMKes8Kn9cfYMNK4RoYnhILAHxa4YmDpiQGLAkBc0GcnJldMixgIwfyRIh0wX6LDnes6qqnY42V8QLfUYs7r9y2TplHGk/fsxGW5sUeTIgsXN+ovEMPfzwKVYDHQnyVeYeOGSlX/0tS9eiNN9sig9fLLKfUHvu1NfbDfmMp2a3rC0psScOHZCzO/OB1TIUPQsr4OggTvCzCvPCgMID0QgAzc/LdebWcmWCx0LD1N0tDsHEytmyZUGA4/mY9B0SrdvEYbqOvifucl8GhmA0A5ZG1yZdDYAtIZCuRNetlrljl+Xs3CX9TNxVWdko8/PSe9VP+uyytBVedu+737G+64p24e+TJNouIAh5snezv8jYgu6WuqHSij7xnJV/7WvzCn2b/YKR+war5GVVKGjT+GA8gcNB41ItGE888bil4gIKYQs74PBlkMxHflG9QMdkwZ9B2jrZA9u2bgnh44TxUprAg+J0AC5V0fXzmvRTujOuwRzS3w8rvnKktUXxiX3KSugXpxl0GQUYU5Jk/UQ0TJLomKjXQK6c1XC4vHzlqmUFHddwPx0Pa2PS0wZ1j45jx6xHESMDt67ZkCySo73iavjW+Ps5rvGw60//Dt0tIWHM1nzxy7bqE89bzg5l9ocS0NNvGMLPl2VFPy1xEr8x0hetWPrwhg2ltlVzEyNfKFvYAcdDEIUN6M7LxJ6Axq+GePnYvj22XboccZahcCqGkjAzXYs+01gFF9PgPOPDIwKawKb8QcAIADzgEuU+SJJfbSGgwNoG0IakjwzK54cVsv3oMVkgb9hoW4v0xpmjTBbzHCw++O0CcnKnyvJc9i++brlK+8FKupC+L6oPj/jHzEukr4uXLtvp02cfjCljjGWyoqJcMZQlD84/4m0+8mdhBxx3hMvdqqm1t995zwGLFZpzZA5slj5SICNKqFeSjzxptJ1gstInvbqD96LLA+61QA7EROlvbLT7Cpbuekf5a+dP67paGEip4VoLvB7dmbOxcMjnlr13v6363D+1gsfk6pHuE5Z7zdmZhf0Ag167fG7XFH5ICCKLKIsW8/KQwg83VlY6W8OD8VjY5Wf9dUQAx4MQiX30+EkblrEA9s25kjWrlbZeapUK9cqI4qTUWam3xF9AQ9wO/cpK6Ll43vquXbVBOW+HmmXg6eyQnkY41yTgQtzXCUUOIZ6mrF9rhSoStOZzn3fVvqI5ZnIqCfolDdTU1DpVh4wWAAe4OAiwp8oclbpCvU5FBHA8KD4OvPntUk4xxfJgWIBwLu7ZLcNAjsrNhfrpplJ4ObwXwMZVtgDRkcI+Iyp/MCDxsfPiReuRb416I7SEQIpEyNDqHh8in/pBC2jMXEWuZz5uRYcPf+gn0fyBhYok6bPnlLOpeYnrirmHMQ8XwP79+1wIYjieIWKA65TBAC5Xo9X4/v2gv4MHQpw8fPiQXvNDLi+Hg2BLeU38esM93danMoSd585a7/GjNlBX6yL9SficoF4KTRJkyJdmd2H9o8lK+FagoEgB0lut7J9/2bJktcVdEisN8ZuM7iNHjjqxEgCi0+XJ9UIUFKXwiooKw/I4EQMc/jhWEhyMd+82OHDxkGSC792zy4mXRJ7EYhtR2BoRHNQGoUhOqDg1ICJaheK0Q/IDDjU1SlxstEG9DjY1u4DoUSynas7UH+biRF6MTNI45apEQ5E4W570tpT80EViRGL8mYdwtjNnzrmCxRjs0N0IxNi+basyvIvcvAxHXyIGOL+KUPMPA4r/TFIf8jJl9FhdYrERMzkkUOCcplAOzmh/OPM4JnKJLNOBCA1c08ID93KRKXAqHVguKW0w3N5m3ddvWI+K+PRfvWzDjXXuu4QAkSX402BnYW70k67K14YzPkP+wTUvf85Wv/himG8cnsujsxHjW6N5SJUuAAfXYw4+fmC/qywXLiNexAAH6ZhgFy5eUpGW285VMK7POBnhcphid2zfGh4Kh/mqowIHuXMkcI7IuY/fLEvRKGkKLKbwaaIMQpQOZ2A96ODubtHRQI8P9NtIV7eLQBlqaZbho976lSk/2n7Pxro6xT0FPnFQQDgxaXByQHZYiwDgWAxUNDZ5XZllK8durcCWqSRiQspisVGO/7oWsS7pcXA2xoV5SJ7mgf2PSfr6YJxC/XwRBRydx/mNd5+aJ2OKUPA+LRzgiJY8OASIpQZwECvb3z9ivVpMsBwmJWkxIT9Nme2J6XJaAzr2KcAwpN+PM4kVaTIuqy0Jn6TLjGgCALyRtvs2pMj1sZ5OfScDk8nSCE2c1THILSNFH/S1xLQUlUMvtlwFSucflL6tOpaBrNgT/1nkANi58xcN0PGZg/mGzlZZXh7S3LeZxijigMM6BOhOnDr9YHXBJ7JJHAHAUaglXOx8JgKE+lynwreaXv2F9bz3hg3ekeisZ0P8S0zJUBUrGRYAjorycJ66++OqEzlByL5gRVBAUBfDyriwKlmhfg4nQyJJjg3Jqb3Wsp981ko++aLl7doV+ltF6IrMMyzkZxRqeP3GDTfPWCxZ5Lds3uSiS8JdUS7igGOFQYY+duKUq46E7MyxRik7FRXl7qFj1XjCvAkGOjda9/mzClY+YuzC4zgTpnrVRXEiJROZwGViEMd9dVj+elLPIxonEroZt/xIwwqpBWCcDAVldsjHlnfwCZVr2GPpJWtjIiD5I480eYJY3rq6eqfS3FORK+/sphQeZfCoRhDuIsURBxzPTqDoebF1qtz6gGYS/oqUCoFPDvbudZ3ZiBfN5zF+EPXRffastWs/gUFtezTU1mpjKkFHW1BB1Ug9KFzXcVqFrsnEn6Itq9LWlVjhsyoLuGefZYjLLSRDIlLdnu994GSk38DdKMXfL4MUDWkqR4agg4ougbuFe94tCeAossneW7fY1kp5cl5no1DLU4efcNZK2HwsN2cQkZED3azxJz+2NgFv4Mo5cTSlsSSp5DfPhz4XDU2TMejHUxkMMdf06p0C2vO29vNfcBXKCKQO90QMNxnQ1RqlF7/97hGXMsb9OIfvjTL82BDI0wx3WxLABWXpPnn6LygP6dYD1k4Zsp2qdVKmNBTquMd6I0gZbtd3+7YrY9CrgOJeKev9NbdstOM+EdwSHRU+RDB0pMEHyLi/REcNgMo1FFlG5UY5sTcr126T3ldZZkWF65uziMb4YBDhRIoYVbmYfywgqDJsMoP+RnXlcIuTkHBJAMfqz0HNykuXr7oH99YifHGV8stVV1fF+BB/uPskgvbLed2tCBGOofoaV7hnrH/QxiXesHEGzXESwBdqAIreIrqjO/dJFIdNlBifpN1ck5WbmFpaqarMe9xBAHIsRY7wPHO1Gzdvuj0D2EqNuQadmYOAjY1Cka68xXyuay3m+yUBnO8w3O3GDe09pronU/0hVVWVbrcS/7vl8Oq4nUCFLw1f3YCCjMkE7z5/zvrPq5Rge6seUxMBZ7YOJ3LKiBKaFhQZjVINOgQ3VfVaZRnyqeXs2m2527a5DG22T3bio8C4HLjaVNpRdYCdeeFuNNQYgi62bpb/V1KVsxCHitxTbzzt/ZICjvR2XASXJWYNyLHLCsPqg7Vo797drshQmvSH5dbQl4alxw5p0wjCtQYbFeEvh/ewFp4RiT7Dogu+uPGBPnG+Qff4StvVK4ea44CT74NnPvgX6yeHQkP4j+xxaqHgR0tR8d0U1ftP1aaCqcWrLbVknY61lqoyFykKPgiC/INLLYd3g1rgMMwRxlWvkEKAxhwjUJl5VlFRvuhdTRdCpyUFHCntbGl1XC6CLjmOacjV6G8+3CtP8YnLvcHdKcEwqHCjPpVXH1BQwGBtUM8bH+iedJILPgQnIxrS8OdNb5NiIxuPBCstC6ZpEhuz8iyterOiQ6otU3pahkR2tzniTNeYfs0Y/8xehRR5JQGaBd67Aqirg0W8RNFAZKpEqi0p4FhpcIRTRq+5RRtJSM9BrsYvkp2dqYzwfW4/uUgRY6nuwzOjw41PZn+PqcCPK70g3W6sr9ftQgogh5Uw6aJTtLPLmMoaTG/kviWJdmzgkaJFK1kTKUVlGihElJimSBdFu7hscukrcxUfmn7tWP2MZfK0uFu3uJwvRgyXy9dCfuiQNlksiGyWypICjkFElKxTvZNalZlukO8KYqDQ8rpPYiUBpcRaOmNCrI76I/bbgVBSABkD6H348VyAs/QQb2SZemlHN/mV2J2V/bpJBg2oaG2SwLbSGosYgcnMrVMqoYAUwQLPeaQmyieQGcB2wpFsSw44CIFfjmIuJKh6/xvEqara6ERLZO1IWJAiSfj4vcJLAeZPS0urEyUvXb7yYCFnvhGkzNxig9DFbiG80KdYcsCx4kCEq9duqKDLJZVgUHEd/ENqyNb45IixjOX4yoUOSvz3i6cA1kiClKk5iR5HQwIAiHt273QVuTDIIUlFsi054PzDkpR6Xb6SZlnuqPUOcTjWqO7Jgcf2WZZYf6hrBPp7x1+XFwWGqDLd0+sC5Kn4zaLOwaKdq0UcUXLjxsoleeioARxiJSIA0SfEWiJawvkItyFXbr3EShTdeItTYC4KdKjWCws426WxG46fS7nKTdwsvxtFXgtkLFmKFjWAo5IXoDt5+rTjcr6yV4rqM7KZ+c6dO5w+txREit8ztihQq3zLCxcuOsskKoqXltgElA0W81Q6PtK6m6dg1ACODuGXIzGQYkNkEnhCIQ7gM9lULR+SLG+Rlrs9seKv0U0B9DOyAK4reomKXMwfL07miLutV0m/vZpHodir+1EpEVWAw1iCCEAIDgRDFABcEBIxgJ1TcRMs1er0qESO/11kKMCCTUl9OFy9Ipi8k5t5hc5WWbFBft11S2qAiyrAsRoNyalLCYbTCmweVXq/36qYGpYUjoXT4TuJc7nITOJYuQugohqXrzXpa58yTzjYybS8otyyNI+Wcu5EFeD84JIjd0U71bCJI9EniAZwuTxFtWOxLCpSKolqhcRbnAKeAswTjG44uamB6rkb4iPGkt1yBaxft9b/fMleoxJwyOGIlmTnNmm3GURLAIcouW7tGjkuK12J9CWjWvzGUUcB9H5UkUbqd0pKgoth5abG5FYVqiWbO5Ixk7MRKCoBh3gA0dhtp+7O3QcxlpQvS9POMpvkJti8qcopv/EIlNmGdmWcp/IbuhsuADbmGGRHIp1DKsLv5jJPFDiBsS0agieiEnBMFfQ5IrzR5yjayWcaq1ZlRblLHMTMu5QWJ9eh+D9LSgHARq0SNlW8pSwLpCHfiorIOil3VQQAYDS0qAUcxEEuJy3+5KkzDmicQ7QkmLlYYMOAEok6FNw33qKTAji5zylYAv2tR35cREnmCADbt2e3qsCVOd0/Drh5jB9cDUKeO0/0ibZlkm4HQSEeVsvdcoZTACbSEd/z6Hr8JxGgQLdyKCmZQDVvrJLMFw50ffQ1fG6EBk7lehHo1kNvEdUcjp4TfYLVEhnd7+MFUSFiqQrABBNVNwiED33O+JfLjALMgVu3aqV21Lp5MSq9n4UY7sYWaBUVwUxuHN7R1KIecOhsBDNflpuAPQkwpmBUgbipKiVeqcpSu3Zud6ta3IASTVMrfH0hE6C/f8BtF4yTm88AkDmBBFRZWW67duxwrqNoMJRMpUTUA853FuNJjY4G1bOEwDSAh8iwRdsWrylZbdnS7eJt+VOAKgF3Gxrs5s1bqhTQ+iBXkgW3UBuMUISKalzR2GIGcKTHk2rx/tHj1iddznMzREt2raRU9boocGxG4yAvtz6x6LJ9NTo9EhCNVyzWGEqImcxVgddobDEDOGTzLu0sQ3AzuhzWKW9AAXxuMwbtF05BT0SLeFt+FEBsxIiGm+iqfG5IOJzjQLrBTUQFZVJvok2U9KMRM4Cjw/hcqGF582aNC1D1xOY7fC5lpWUCXrUrQuQ5IN/FW+xTAHANK7GUygB36u+4bat5Ku8GwIC2Ufr8WkUiRaKC8qNSNKYAB8AQHa5rs0JWOIJVGYggR5uQdWq1i5nDN4eYGW/LhwKoEYT74XNr1uaXGnQ37ow9i+uO7duUya29xqViAMJobTEFOE9Edj8ho5eqzTg7ITrAY2+5YhU53aSwL+oNMhBx8dJTLTZfWWQZW9SIa1poWyVSeh0eNYOQLfYHqKgot7XyyUZ7i0nAMQD4506cPK3N0VucqAGwGBwGgQiUalmq2Gcumle7aJ8c0dA/4iKpnExZfFJv/CLKWCeJkxUWFdp+1S9FqsFNFO0tJgEHsZHn2fKKeMuamtoHogTfFYj465Wwyp7h8VjLaJ+CD+8ftSXZSxA3AEYzFlYWVRZd6txskKGM4AfGORYW15gEHEME0XsVa8mOltev35CY0Sf/XHCDdFZBCg5t2RLchoh8qHiLPQpQ/r5FEgxBDx0dXQ8skgALbrZZ/leqADC+jHkstJgFnCcu9eKDafW33QoI4QFjilIz8mUe3qJUnoqKcrf6xfU5T7XofkVKYQyJLLqqxbRDcbTDCnYAaJzPUMl23D8sqOu0M2sstZgHHKFe6HMXL11WqfQmVzqdAWBwAJ9TqCVyrFYCInuAxVv0U2BQeyxgiSRsi2wRxEdAyILJuFIxmT3dcG6nq5R7LLWYBxzEZkAYHDgdmb++cZ6yDICtemOlU6zjOp2nTnS+ElFEUAO+VgxinXo/VVxcXVyslJtSZXFv/tD56Hyaj/ZqWQCOxwJcAO69I0fde/+owZCfVDdAZUSiyG0Qb9FLgZbWVi2ad52fFfB5sCFKwuUOP3HQJSCTghOLKsKyARyDQX4Ug1WrPbWpa+llfl7JmSvfoK2M5S6IlnT76J32ke8ZAekYweBs7OfW26vNKAUyQMViSlAyC2a5uBu733ggRr6ni7vjsgEcZICbEf51WfuGw+0YQIDovyuRaFm5kfCfEhd7F02Jia6TK/QfAEXUEPparTakbG5u/VDSaLpM/oANN096eoZC97Qtc4y2ZQU4wMVBjQsGj0xgQMhqyHk4HUr2LmWKUzINx3i8LT0F2CMQnyqlNBAjGSvP2Riz6qqNrgAw2SCcj0VR0lN5WQHOPxRWrnZtCMJuPESX4zD1IggDuErRCaXaBouBZLX03/m/j79GhgJwNmr/k7WNKnBPlknARkOcpIwGkf+UuF8l3ZsirrHeliXgGBQiFNg//ObNW47bMYA0Vke4Homr1ERxgc5LXI3XdWyF/QOwKBLVroDk8xcuulxHL4mQXJWghZF4WBzbSCOAbzm0ZQs4AIYijmh5Wy4D6qIQDuYHNTkQsDTES6Xil5Wtd6FBsSyqxNJkBGyMTb0C0Nk0kURSxgb6w/XIZaMqW0VFuUK3yixFUSXETS6HtmwB5wenS2WvScOvqal1qyn6ggcWA8/quX79OlcwlDyqaE1c9M8T668shICrXgshiyEHjbHgSElJ0XZSudp8Q8YtRf9jkVxObdkDjsECZDU1t61O289SpoHmQceKisl5547t0hMKnSElIYFSfO5n8X9CSAEAhVEEnfrU6TPWIpHfNw+4VUokXr9uvTZO3OTSrfz3y+V1RQAOUFHliRy6WzW1CoTtMLal9eIl7gEU8kpVe0KEwWcXdxmEdooDKMRIyiNcU9Y2PlPGgAbXCwSS5B/NlIGk0vlLKfa7HI1ZKwJwfuqQMdzQ2OjEGN6z2npOx6ATNkQBGvx0Odk5MRen558z2l7J4kBPa2lpkZRx14mT9NFzNRY3diVdJ9F+g6zH1CZZrm1FAY5BZJUlU7y2Llhyj1UUVwEtGAaW5uqi+DAwD0j3g/g/j0QBnNoEI7MbUreSST29WeSQPrAUQ28Sh1Olwy3ntuIAxyCTQUxgLNEobQoBI2WfVZbvACAmaCLS14nTrZFpOr4X3aNBgKifzs4uZ41slGTRKd2NRY1FDFpDcwxV+NnY4RbgeTA+2h2j/69WHOD8kFBMFEcrOsV9Ke/47Xxj1aVENg5yVl5e+Rzndp5Cc7+iMxPpT6Y2aVPkLU7VychXzJUYWayFrUr7/RUWFsx90WXwixULOPQHgMUGfnC6G9dvGjEOflLwPastm0JslDFlx/bt7nMcdPOb9USO3JbYjg90RFzNcy5oTkNfxqlN1jYGE//9/K4eu79asYDzQ0aAMxnFGFOamprlq+twgw/gaEwG/ELk1OGzI9SInLo48DwFP3iFZlgfiYvE/dKm8Dqi/jnvxUgXrpWf74IN2JUUMXIltRUPOAYbRyyKPVvWImIOym83Jh2DiYKuwWRB3yD2kgDaAk0YQJec/MHmfytp0kx/Vmg0Oorrpc+JjzcUw9rd3esyN7zEAA0JKoCzEdlDaYSsrOURrjWdHg/7HAecqAOwEHUAHXuKk96DNY2JhKjjuRmTJ1/crkw5WSj5cLt4M+deQSemDD16MfobNKVBOwwlRJDg5ywT3ZAWCBpfKWLk1DkSB9wUauAvovpXQ0OTxMsmFxIG9/PAA5SYrRExV6mIDdnj+IxI+YEDrrQGkNoljhMkTgl6srW9CAktABsHZQuL8XFKOsiXdLASOZufG3HAeUpMe8WQwibtRLNPzdHyYiYp/ljWNqsqGKFhuA4CAVbt5R0T5p8fQ0i/dh2lLujdu6TWtDiREa7luVtSUqJE73RXT6ayssIBbSUuTFOnVhxwU6kx5T2bQHb3aEtbmbQJCWNrWyaLn1C8+owDOB3RKQTbRvNGElMe75HfIgVQJQ1zP8YRfJosSJyHm3lAwvWLCgtd2fnggpQp+sVLz8cB95CphwiJ1bL5XovT7TrkxCVECRHTN97jo8OQQkpJgbgelcLSxAGXy2oOiKAFei0hcWTUk9gLbRAraYANWmAYYY+HVUVFLuewVOFaSAMrUV/zc2TqaxxwU6kxy3v0ODZtJ1GSVd3HYDLJaEw0JiVGFayYiJkYVChWlKjf+N/NcvmoPs2zASqiRmqVmX1bla6J8ud5py8oExPjrlYkAeDlqgVatEKc2QsZwDjg5kEtP+m6ZImj9DY5XB2dHc4aN3XlBlhwNlZ4jANUB8b8TQHa6ZNzHrdd0p940RB/GvmErRhE5LPEAkk8Ks1zNWgAFyvfUCYLZLHj9iw2sbC5RqSJHAfcAimOWMWWt1jkcJhjlcOAwAT1E5D3vh4HZQJI92GHToCIedz7phZ467D/nH4jOgKq/oF+92wADgsk1kj/jL4jAI2KWll6PvZyYFMNDEmAL95mpkAccDPTZdazTDoOjAUYUq5cva6Eyi4ndgGkqeKjn8BMxtVriq2yvNxFVrD6R2MDbBRgqpfVsb4eo0jDA33Vc3KeCY7PweJRpnQaQrSIOUV89r+LxueLhj7FAfeIo4BYhQEFtwEbROKLwpiAvkfzwGNiIlphvcxUgiWxmQTtEtZEkuVS73cAyMiIJ7iYEuNE92OFJIMCvdU/i+fevPIsGIgQHwnNIncQLh5vc1MgDri5aTTnL7DWsUMnLgQiLoJm8hEXHsYE5fDcjpCwXIEumI6S7yYqURdwCw5+G+7GosCBKX9gcMD1mf6zcFD+gEY/4Fb027+nf5kZ6r84Nv0nfQmrZJyrzX/E4oCbP61m/SVcgsk7NDTozOV3JI4RIkYZOCajFzWZvHx2E1gTOk2cAi63tqTY7U9O1Ir/ftabheALTPrNyr6Gq3VKHO6THsozjKt/9JHmgY+Fkv4jBrP5IVZY5/YgllR+Sf+7EHRrRVwiDrgQDjPiI0YU8sCwYra3y2eliPlgGbgRNzn9BGViM5HhGtkypmQKeIQ8YWzBwJItLpiWmqbvgxzE/91Cuss9EH3Ry3p6e6xH3BdLIzGjvCJK8h3cjuv7g+cA+PQN/2J+fq44cbZcHQWOO8Ol+T7eFk6BOOAWTrM5/8JPdHQ6ttFqk6jWIyCOjkrM1J7V07kIE5yD84Xy3+E8x3GMQx3LJi6FQFJAAE3URE+afP0gqJoOjY97Y8aY7jOm+4y6ewGqHulkcLX7sjayyQkNcAF4mu8PIPIHoGIBwNRfoqK58QRcR6pF/xMH3KJJOPMFPOjQ5wgTwyCBjoc7AT3JT2xe/YTnSg5cCoFKAlh6JTMacY4JnyMuk5Wd6cTQTJ0DMPw9DU4FuMhH88YPDB9BXW3EcbogEIMJoPwNoPNg55X7UMynpKTEmfcRHVNTUh2XjTU/Is8XjS0OuAiMCnpQv8DQLo6HzgTgsARyDp8X+pMHHSCgAQAaoHJWTgUBUykazoNlE/8XBgt+/4EOGQQdumOfrkt0iNPNdC1/XXfRyX8AK9fDEIJIm52V7Yw4xD5idVzucaFTaRGp93HARYrSk/cBSHA9uB1+PIwXcEAfk8jPZgKH50QA0x+Ahd8CLM7xnsNzz+mP5kHNeac/CrA4qnFRlCoplNqcgDjewkeBOODCR9tZrwzXoWgRQHFZCeJ4cD4K1FLZCtHQg8ODx3/2r1yc7wAY1/ONzzRePUj9ZzgWIiNhZ/gCEVEBLbX72ah+qojqLhL/J+QUiAMu5CRd2AUBBQ5mIlcAHToYlk7AOCIjy8jwaPBVboeHcUEPRF4BTkBHsqyMJMxi6STcCiMIuiAJtFgdMcgA2niLHAXigIscree8kwcNBhDnWlAUS7uMLe2ychLDOT3yY+oF+VsOABwEV5aL1i8qKnQWTzbF8FEtngtO/fv4+8hQIA64yNB5QXdBRPTRIEPasBBu5z7rdWho2BlbEDspdAR4cEDjM8O4Ath4zwHA8OVxns9wvnhbWgokaCAn4ory0g7CfO4O93K636Rls7evV58nASdDh7dcoqdhwo+LivOhauR/8/8BEdXsT+10DEEAAAAASUVORK5CYII=;" parent="VzEyl7pLeXNEImk8ZBch-53" vertex="1">
          <mxGeometry x="50.00323529411753" width="20.56" height="20" as="geometry" />
        </mxCell>
        <mxCell id="VzEyl7pLeXNEImk8ZBch-54" style="edgeStyle=orthogonalEdgeStyle;rounded=0;orthogonalLoop=1;jettySize=auto;html=1;entryX=0;entryY=0.5;entryDx=0;entryDy=0;endArrow=none;startFill=0;" parent="1" source="a8CHna9Du4veWzm3w8Nn-2" target="a8CHna9Du4veWzm3w8Nn-1" edge="1">
          <mxGeometry relative="1" as="geometry">
            <mxPoint x="643" y="660" as="targetPoint" />
            <Array as="points">
              <mxPoint x="600" y="653" />
            </Array>
          </mxGeometry>
        </mxCell>
        <mxCell id="VzEyl7pLeXNEImk8ZBch-62" style="edgeStyle=orthogonalEdgeStyle;rounded=0;orthogonalLoop=1;jettySize=auto;html=1;endArrow=none;startFill=0;" parent="1" source="VzEyl7pLeXNEImk8ZBch-58" target="VzEyl7pLeXNEImk8ZBch-28" edge="1">
          <mxGeometry relative="1" as="geometry">
            <Array as="points">
              <mxPoint x="751" y="606" />
            </Array>
          </mxGeometry>
        </mxCell>
        <mxCell id="VzEyl7pLeXNEImk8ZBch-58" value="" style="image;html=1;image=img/lib/clip_art/networking/Switch_128x128.png" parent="1" vertex="1">
          <mxGeometry x="722.8041176470588" y="534.1114285714285" width="55.29411764705882" height="56.410714285714285" as="geometry" />
        </mxCell>
        <mxCell id="VzEyl7pLeXNEImk8ZBch-63" value="ENT-DMZ" style="text;html=1;align=center;verticalAlign=middle;whiteSpace=wrap;rounded=0;fontStyle=1" parent="1" vertex="1">
          <mxGeometry x="803.4999999999999" y="530" width="60" height="30" as="geometry" />
        </mxCell>
        <mxCell id="VzEyl7pLeXNEImk8ZBch-65" value="UNTRUSTED ZONE" style="rounded=0;whiteSpace=wrap;html=1;rotation=-90;fontStyle=1;fillColor=#f8cecc;strokeColor=#b85450;" parent="1" vertex="1">
          <mxGeometry x="991.25" y="433.86" width="130.5" height="29.89" as="geometry" />
        </mxCell>
        <mxCell id="VzEyl7pLeXNEImk8ZBch-68" value="LEVEL 6 -&amp;nbsp;&lt;span style=&quot;background-color: transparent; color: light-dark(rgb(0, 0, 0), rgb(255, 255, 255));&quot;&gt;INTERNET/CLOUD&lt;/span&gt;" style="text;html=1;align=left;verticalAlign=middle;whiteSpace=wrap;rounded=0;fontStyle=1" parent="1" vertex="1">
          <mxGeometry x="343.97" y="377" width="208.9" height="30" as="geometry" />
        </mxCell>
        <mxCell id="VzEyl7pLeXNEImk8ZBch-70" value="LEVEL 4 &amp;amp; 5 -&amp;nbsp;&lt;span style=&quot;background-color: transparent; color: light-dark(rgb(0, 0, 0), rgb(255, 255, 255));&quot;&gt;ENTERPRISE NETWORK&lt;/span&gt;" style="text;html=1;align=left;verticalAlign=middle;whiteSpace=wrap;rounded=0;fontStyle=1" parent="1" vertex="1">
          <mxGeometry x="350.97" y="521" width="249.03" height="30" as="geometry" />
        </mxCell>
        <mxCell id="VzEyl7pLeXNEImk8ZBch-73" value="CORPORATE" style="rounded=0;whiteSpace=wrap;html=1;rotation=-90;fontStyle=1;fillColor=#d5e8d4;strokeColor=#82b366;" parent="1" vertex="1">
          <mxGeometry x="922.13" y="630.38" width="268.75" height="29.89" as="geometry" />
        </mxCell>
        <mxCell id="VzEyl7pLeXNEImk8ZBch-82" value="LEVEL 3.5 - IDMZ" style="text;html=1;align=left;verticalAlign=middle;whiteSpace=wrap;rounded=0;fontStyle=1" parent="1" vertex="1">
          <mxGeometry x="345.97" y="792" width="249.03" height="30" as="geometry" />
        </mxCell>
        <mxCell id="VzEyl7pLeXNEImk8ZBch-83" value="IT" style="rounded=0;whiteSpace=wrap;html=1;rotation=-90;fontStyle=1;fillColor=#E8EAF6;strokeColor=#3F51B5;" parent="1" vertex="1">
          <mxGeometry x="120.23000000000002" y="667.86" width="345.48" height="29.89" as="geometry" />
        </mxCell>
        <mxCell id="VzEyl7pLeXNEImk8ZBch-84" value="&lt;b&gt;CLOUD&lt;/b&gt;" style="rounded=0;whiteSpace=wrap;html=1;fillColor=#F0F8FF;rotation=-90;" parent="1" vertex="1">
          <mxGeometry x="227.45" y="429.09" width="131.03" height="30" as="geometry" />
        </mxCell>
        <mxCell id="VzEyl7pLeXNEImk8ZBch-95" value="" style="group" parent="1" connectable="0" vertex="1">
          <mxGeometry x="900.0000000000002" y="841.42" width="34.55999999999972" height="39" as="geometry" />
        </mxCell>
        <mxCell id="VzEyl7pLeXNEImk8ZBch-90" value="&lt;span style=&quot;background-color: transparent; color: light-dark(rgb(0, 0, 0), rgb(255, 255, 255));&quot;&gt;Service GW&lt;/span&gt;" style="sketch=0;pointerEvents=1;shadow=0;dashed=0;html=1;strokeColor=none;fillColor=#505050;labelPosition=center;verticalLabelPosition=bottom;verticalAlign=top;outlineConnect=0;align=center;shape=mxgraph.office.servers.server_generic;" parent="VzEyl7pLeXNEImk8ZBch-95" vertex="1">
          <mxGeometry width="20" height="39" as="geometry" />
        </mxCell>
        <mxCell id="VzEyl7pLeXNEImk8ZBch-88" value="" style="shape=image;verticalLabelPosition=bottom;labelBackgroundColor=default;verticalAlign=top;aspect=fixed;imageAspect=0;image=data:image/png,iVBORw0KGgoAAAANSUhEUgAAANwAAADWCAYAAAC6weznAAAMTWlDQ1BJQ0MgUHJvZmlsZQAASImVVwdYU8kWnltSSQgQiICU0JsgIiWAlBBaAOlFEJWQBAglxoSgYkcXV3DtIoJlRVdBFDsgYsOuLIrdtSwWVFbWxXWxK29CAF32le/N982d//5z5p9zzp259w4AjA6BTJaLagGQJ82Xx4YEsCckp7BJXQAFhoAGDIC2QKiQcaOjIwAsg+3fy5ubAFG11xxVWv/s/69FWyRWCAFAoiFOFymEeRAfBABvFsrk+QAQZZC3mJ4vU+E1EOvKoYMQV6twpho3q3C6Gl/pt4mP5UH8BAAyTSCQZwKg2QN5doEwE+owYLTAWSqSSCH2h9g3L2+qCOL5ENtCGzgnQ6XPSf9GJ/NvmulDmgJB5hBWx9JfyIEShSxXMPP/TMf/Lnm5ysE5bGClZclDY1Uxw7w9yZkarsI0iN9J0yOjINYBAMUlon57FWZlKUMT1PaorVDBgzkDLIjHKXLj+AN8rEgQGA6xEcQZ0tzIiAGbogxJsMoG5g8tl+Tz4yHWh7harAiKG7A5IZ8aOzjvzQw5jzvAPxfI+31Q6X9R5iRw1fqYTpaYP6CPORVmxSdBTIU4sECSGAmxJsSRipy48AGb1MIsXuSgjVwZq4rFEmK5WBoSoNbHyjLkwbED9jvzFIOxYyeyJPzIAXw1Pys+VJ0r7IlQ0O8/jAXrEUu5CYM6YsWEiMFYROLAIHXsOFksTYhT87i+LD8gVj0Wt5flRg/Y4wHi3BAVbw5xvKIgbnBsQT5cnGp9vFiWHx2v9hOvyBaERav9wfeCCMADgYANlLCmg6kgG0jauhu64Z26JxgIgBxkAjFwHGAGRyT190jhNQ4Ugt8hEgPF0LiA/l4xKID852GsipMMceqrI8gY6FOp5ICnEOeBcJAL75X9StIhDxLBE8hI/uGRAFYhjCEXVlX/v+cH2a8MFzIRA4xycEY2Y9CSGEQMJIYSg4l2uCHui3vjEfDqD6sLzsE9B+P4ak94SmgnPCLcIHQQ7kyRFMmHeTkedED94IH8pH+bH9waarrhAbgPVIfKOAs3BI64K5yHi/vBmd0gyxvwW5UV9jDtv0XwzRMasKM4U1DKCIo/xXb4SE17TbchFVWuv82P2tf0oXzzhnqGz8/7Jvsi2IYPt8S+xw5g57CT2AWsGWsAbOw41oi1YkdVeGjFPelfcYOzxfb7kwN1hq+Zr09WlUmFc61zl/MndV++eEa+ajPypspmyiWZWflsLvxiiNl8qdBpFNvF2cUNANX3R/16ex3T/11BWK1fuYW/AuBzvK+v78hXLuw4APs84Cvh8FfOlgM/LRoAnD8sVMoL1ByuuhDgm4MBd58BMAEWwBbG4wLcgTfwB0EgDESBeJAMJkPvs+A6l4PpYDZYAIpBKVgB1oIKsBlsBdVgN9gPGkAzOAnOgkvgCrgB7sLV0wlegB7wBnxEEISE0BEmYoCYIlaIA+KCcBBfJAiJQGKRZCQNyUSkiBKZjSxESpFVSAWyBalB9iGHkZPIBaQduYM8RLqQP5EPKIbSUF3UGLVGR6MclIuGo/HoJDQTnYYWoovQZWg5WoXuQuvRk+gl9Abagb5AezGAaWAszAxzxDgYD4vCUrAMTI7NxUqwMqwKq8Oa4HO+hnVg3dh7nIgzcTbuCFdwKJ6AC/Fp+Fx8KV6BV+P1+Gn8Gv4Q78G/EOgEI4IDwYvAJ0wgZBKmE4oJZYTthEOEM3AvdRLeEIlEFtGG6AH3YjIxmziLuJS4kbiHeILYTnxM7CWRSAYkB5IPKYokIOWTiknrSbtIx0lXSZ2kd2QNsinZhRxMTiFLyUXkMvJO8jHyVfIz8keKFsWK4kWJoogoMynLKdsoTZTLlE7KR6o21YbqQ42nZlMXUMupddQz1HvU1xoaGuYanhoxGhKN+RrlGns1zms81HhP06HZ03i0VJqStoy2g3aCdof2mk6nW9P96Sn0fPoyeg39FP0B/Z0mU9NJk68p0pynWalZr3lV8yWDwrBicBmTGYWMMsYBxmVGtxZFy1qLpyXQmqtVqXVY65ZWrzZTe4x2lHae9lLtndoXtJ/rkHSsdYJ0RDqLdLbqnNJ5zMSYFkweU8hcyNzGPMPs1CXq2ujydbN1S3V367bp9ujp6LnqJerN0KvUO6rXwcJY1iw+K5e1nLWfdZP1YYTxCO4I8YglI+pGXB3xVn+kvr++WL9Ef4/+Df0PBmyDIIMcg5UGDQb3DXFDe8MYw+mGmwzPGHaP1B3pPVI4smTk/pG/GKFG9kaxRrOMthq1GvUamxiHGMuM1xufMu42YZn4m2SbrDE5ZtJlyjT1NZWYrjE9bvobW4/NZeeyy9mn2T1mRmahZkqzLWZtZh/NbcwTzIvM95jft6BacCwyLNZYtFj0WJpajrecbVlr+YsVxYpjlWW1zuqc1VtrG+sk68XWDdbPbfRt+DaFNrU292zptn6202yrbK/bEe04djl2G+2u2KP2bvZZ9pX2lx1QB3cHicNGh/ZRhFGeo6SjqkbdcqQ5ch0LHGsdHzqxnCKcipwanF6OthydMnrl6HOjvzi7Oec6b3O+O0ZnTNiYojFNY/50sXcRulS6XB9LHxs8dt7YxrGvXB1cxa6bXG+7Md3Guy12a3H77O7hLnevc+/ysPRI89jgcYujy4nmLOWc9yR4BnjO82z2fO/l7pXvtd/rD29H7xzvnd7Px9mME4/bNu6xj7mPwGeLT4cv2zfN90ffDj8zP4Ffld8jfwt/kf92/2dcO242dxf3ZYBzgDzgUMBbnhdvDu9EIBYYElgS2BakE5QQVBH0INg8ODO4NrgnxC1kVsiJUEJoeOjK0Ft8Y76QX8PvCfMImxN2OpwWHhdeEf4owj5CHtE0Hh0fNn71+HuRVpHSyIYoEMWPWh11P9omelr0kRhiTHRMZczT2DGxs2PPxTHjpsTtjHsTHxC/PP5ugm2CMqElkZGYmliT+DYpMGlVUseE0RPmTLiUbJgsSW5MIaUkpmxP6Z0YNHHtxM5Ut9Ti1JuTbCbNmHRhsuHk3MlHpzCmCKYcSCOkJaXtTPskiBJUCXrT+ekb0nuEPOE64QuRv2iNqEvsI14lfpbhk7Eq43mmT+bqzK4sv6yyrG4JT1IheZUdmr05+21OVM6OnL7cpNw9eeS8tLzDUh1pjvT0VJOpM6a2yxxkxbKOaV7T1k7rkYfLtysQxSRFY74u/NFvVdoqv1M+LPAtqCx4Nz1x+oEZ2jOkM1pn2s9cMvNZYXDhT7PwWcJZLbPNZi+Y/XAOd86Wucjc9Lkt8yzmLZrXOT9kfvUC6oKcBT8XORetKvprYdLCpkXGi+YvevxdyHe1xZrF8uJbi70Xb/4e/17yfduSsUvWL/lSIiq5WOpcWlb6aalw6cUfxvxQ/kPfsoxlbcvdl29aQVwhXXFzpd/K6lXaqwpXPV49fnX9GvaakjV/rZ2y9kKZa9nmddR1ynUd5RHljest169Y/6kiq+JGZUDlng1GG5ZseLtRtPHqJv9NdZuNN5du/vCj5MfbW0K21FdZV5VtJW4t2Pp0W+K2cz9xfqrZbri9dPvnHdIdHdWx1adrPGpqdhrtXF6L1ipru3al7rqyO3B3Y51j3ZY9rD2le8Fe5d7f9qXtu7k/fH/LAc6BuoNWBzccYh4qqUfqZ9b3NGQ1dDQmN7YfDjvc0uTddOiI05EdzWbNlUf1ji4/Rj226Fjf8cLjvSdkJ7pPZp583DKl5e6pCaeun4453XYm/Mz5s8FnT53jnjt+3ud88wWvC4cvci42XHK/VN/q1nroZ7efD7W5t9Vf9rjceMXzSlP7uPZjV/2unrwWeO3sdf71Szcib7TfTLh5+1bqrY7botvP7+TeefVLwS8f786/R7hXcl/rftkDowdVv9r9uqfDvePow8CHrY/iHt19LHz84oniyafORU/pT8uemT6ree7yvLkruOvKbxN/63whe/Gxu/h37d83vLR9efAP/z9aeyb0dL6Sv+r7c+lrg9c7/nL9q6U3uvfBm7w3H9+WvDN4V/2e8/7ch6QPzz5O/0T6VP7Z7nPTl/Av9/ry+vpkArmg/1cAA6qjTQYAf+4AgJ4MABOeG6kT1efD/oKoz7T9CPwnrD5D9hd3AOrgP31MN/y7uQXA3m0AWEN9RioA0XQA4j0BOnbsUB08y/WfO1WFCM8GP0Z+Ts9LB/+mqM+k3/g9vAUqVVcwvP0XtjqDBHOoMmYAAACKZVhJZk1NACoAAAAIAAQBGgAFAAAAAQAAAD4BGwAFAAAAAQAAAEYBKAADAAAAAQACAACHaQAEAAAAAQAAAE4AAAAAAAAAkAAAAAEAAACQAAAAAQADkoYABwAAABIAAAB4oAIABAAAAAEAAADcoAMABAAAAAEAAADWAAAAAEFTQ0lJAAAAU2NyZWVuc2hvdMR0js4AAAAJcEhZcwAAFiUAABYlAUlSJPAAAAHWaVRYdFhNTDpjb20uYWRvYmUueG1wAAAAAAA8eDp4bXBtZXRhIHhtbG5zOng9ImFkb2JlOm5zOm1ldGEvIiB4OnhtcHRrPSJYTVAgQ29yZSA2LjAuMCI+CiAgIDxyZGY6UkRGIHhtbG5zOnJkZj0iaHR0cDovL3d3dy53My5vcmcvMTk5OS8wMi8yMi1yZGYtc3ludGF4LW5zIyI+CiAgICAgIDxyZGY6RGVzY3JpcHRpb24gcmRmOmFib3V0PSIiCiAgICAgICAgICAgIHhtbG5zOmV4aWY9Imh0dHA6Ly9ucy5hZG9iZS5jb20vZXhpZi8xLjAvIj4KICAgICAgICAgPGV4aWY6UGl4ZWxZRGltZW5zaW9uPjIxNDwvZXhpZjpQaXhlbFlEaW1lbnNpb24+CiAgICAgICAgIDxleGlmOlBpeGVsWERpbWVuc2lvbj4yMjA8L2V4aWY6UGl4ZWxYRGltZW5zaW9uPgogICAgICAgICA8ZXhpZjpVc2VyQ29tbWVudD5TY3JlZW5zaG90PC9leGlmOlVzZXJDb21tZW50PgogICAgICA8L3JkZjpEZXNjcmlwdGlvbj4KICAgPC9yZGY6UkRGPgo8L3g6eG1wbWV0YT4Kb298hAAAABxpRE9UAAAAAgAAAAAAAABrAAAAKAAAAGsAAABrAAAsO0WML64AACwHSURBVHgB7H15cBzXeecHYDAYnIP7JEgAvO/7FiXHsmxH0VqOHclO5NjeOLVx1VaSytYmf2zt1lZtJXvYSarWe7jWUsV2pJQsxzblSy47OklRvEnwvkDcNzC4gRkMBsD+fl/PA4ZDkJwBBiAG6Cc1u6e70e/11+/3vvN9L2ESRexiU8CmwIJQIMEG3ILQ2a7EpoBSwAZcnHSE8fFx8fvHZGRkxNq8XpmYmJCEhARJSkqStNRUSUtPk/S0NHE4HJKYmBgnb7a8mmkDbhF/b0r7ZvP5fDI4OCStrW3S1t4hXd3dAKBfgeVyuaSwoECKi4tkRVmJpAF0ycnJkgDQJeD9CEq7LA4K2IBbHN9hxlYMDQ1LX3+/dHZ2ST/2Q8PDMjo6is2vYAvlcE5nsqSkpIgrxSUZmemSnZUlBYUF4saeALTL4qCADbjF8R1UPKTY6IWo6COofKMyMDgovX190tXVrdyNYCO3CudY/G04IV+HHC8rM0MKwPWy3W7JzMqU1FQXwAhA4hrFzfBnLBIyLPlm2IBbJJ+Y+pnXOyItLZbI2NnVpdzMcLHQZvIcwWmuEUBmC7+PoiU5XFlpsYqcRYWF4nQ6Vc8Lvdc+XhgK2IBbGDrfUwu5USAQUONHX/+A9IGLUXz0Qk8bgdjo9fr0mIDivSzckyu5XCmSBTExNzdXUsGteM/Q0JD09PaBCw7K2NiY3kcA8hr3DgeNKmniApczxpWM9HTJyc7GszIlHcc2x7vnE83bDxtw80ba6QcTLGplBBjGYOggN6MRhPpZT0+vdHd7ZBCgoRGEHZ8gMQCgucMBLkUdzZXilPSMDCnMz5fikhK1SE5MjKvY2d7eKd0ej4qkfH4ggLrGAlONYBsMgMnx3ABaXn6e5OXkijs7S7meE/Ukg/sl21bOKbrF+sAGXKwpOsPzyHVozvd4eqQT1kUCbBgczY/zBgQEBDdTeJ4gTQEACosKpaykWIqKiiQ1LVXPhZr+eR85pg96X19fP6yYlljKY56n24AgNsUAGtjWa9TryO0KCvLV2pmd7VYDjLnf3seOAjbgYkdLfZJyMnCqkREvrIpDauxQERHGkBFu6kfz3mNlNE0g4AgkWhszwIWy3FnixpaVmYm9WzLA3ZKTH+xjY92si8YWgm1oaFAGBgZV5BweHpFRtItANtzT1JsEMFLcpA+PHJSiqhpZsM+E8YUiJ0XRUJCbv7X30VHABlx09Jq624ho7OQWN7I4EsVCgqq3D6KixxIXh6GXGd2K3Ca0w1siJMXIJLE6fqoCrKAgT0pLSyQPulood5pqwCMO2CaCr6enRzrgVqDfju1g+wKBceWe4RyVv81GrpcNUTMvN09yc3IkJydbLZw0wlAnTMR7sL2GWz6iOfblIAVswM2yKxBA7ND9AwNqrKDhohdcxQcuRlGRQBxHxw4EAWk4i+nQprOTa+RDl8rPszo2TfiGm6RAZ+P1UIBG2lw+f2KCxpmxKZBxIOiHkaYLFlAPgMj2mnaFgpp/m5SUiM2hIicHCQe2NIizNNgQfNxnZqQr92Mb7RIZBWzAPYRO7HjUgcgVuFEko9OZBg/6xKgzqYhI3xnOUWwjENmJWcKBwk6tzmlYGlNdqSq2pUJUo3Oa4mMmxDlyFoqN81GMLknL6AAGCraXznQvgGgMOfQBhhczONCdQNBR9KQumYZ3oNXUCRGY70VRVH/T8KKccHaDRXj9S+n3sgec6Uzch2/j4xMKJOpEjPRgaBU5BK2LdFCzA3P0Z7FEw2nroukkfCaNExQZ2QlzYJCgcaIgvyDIKTLNrY9lTwNOR2en9MKtQPGTYCR3NnQJHzR4ngOKoRUbbayeObk56minvknuRxDyvRMTLWc9nxW6PZYXfsyVLnvATYVKjUH3wojPUX8YDmgvjB70ixFUFMuo9wRgZifHo5hoOmVohzSdkHtyAxobGOlBX1cGOiCNHhQTU5zgCjDzLwYHNDk2aTBGNwLdFTgewsBCNwUHGQKQXDyUa4e+M/svxU+Hw9LtKF7SrUBxNFldGSnKFcnJSQ/daGkFGM1g9ZgxsKDVL0nAsXOoDgUONT5ugUT1GRxTr+I1gobgYQiVH2Cj3kWQ0bpI8ZBgY0c0ozm/CoFkRmjzlSgmknOpDwt7ioMEUgrEKzqXNbRKLX0Qw9DpQnUl84zFtOf70rhCRzwtnNRRjbHFD3qMgk7073Eg4mYK6WIGHHOOgCItKCZT1CQnTAfYKE4TcI6gxVV1RBhiCFaH6o0EMK2xMMyoLmkZmsKBbuqJp/2SBJzqW+wcGL2po7DD8Fj1LYzWo9S3YPCgoYOdBFACkKb9VA8aeQ1X4wc2Iz7BRh2MhoS8vBy16uXAqkdOZp4Tjx1FPYJKG1FgUYTuhh/RA+c69xpMDVCSDmYQ4vvO9K68x9xnQMmBh6AiIOmC4GDEASodU4wsYKYpKElHAtYC4PQ3iieQhbZ1wQBnCG0q5wfgOfMxrG9rRWRY16w7oVnJpFrbLE41jsgK6lYT2FQM4kgb5FQccfm35h7lZLhGLse/Uashfk+gMl4LHaFNu8w+tL3sSASWBv+ic7BjsFNYRgKXgosjNjflbkGwzdT5zPPjaU+aUqQeHQXXp+GIUkHQiERLrTEcjYwM49inEoL1Dacd+aRnOHfnbwt45GR0M1hcznA1nqP7weJ8PLZASi5I14SeV04IKYPcERzTPIPXEqA7Jgb1RtKb30OfGayXdZvBwlyf728WE8BZHyQwrfNA5CCBWcxIyU4+SZDxHI8ncQwgKUAABgKL/wcADoKJ162/xz08TzEGeoYRCQ1gCBoVB/Hh2Qn4PP27YP2GgKY9vGYIbc4ZoutH50fGh+AxTeFJDn5MiogpKg4RaHREZ2KjxY4g4/3LsZDWlB4sa+cQRNChoNWTrhE/vpWl7/J7juNe61tbIr35TqHfx5wLp2Xo9+HAZ4DmBMB4bBmkoDPiWhKAmKz6JM8TZAA1pRcYrnjMb0rg0ofI+YIKSB6jUv0dPNb7rX94Bc9K0Lr4bHJk9g/T9vD2Pux3TADHTk95v6m5GQ5Wjx5b4heBQ/GLzmELcASeIos7HX2mf041lIAM/iAheJ9VCNTgkTnAT3Z4C8Tmr4K3B3e8xo9pAGaumvP8e34sFWUg0qiZPisDRg7L2EHO5oShw1jbeL9+yKD1zTxvOe4NXbmfGlRBb+rADF+jDkj3CUVSSx+kYWpY9WfS34AplHY8FzqIhXZsc8y9BVDtSAoY059CukbwPJ8OCyn+1buD3Un7Q/AE6yNnJXjZ3QhSclcesy7q5vQ9MhChfMUKNYKFtjG0/Q87nhPgDJdpaGyS1rZ2GRzoR/gSdafRewDAFzMbG6Mvir0h3sMayGu8L/TvQ+/nNXM9/LxFREv0oMiR7OQoaAXnEmAU/7jnRhHFiWtmIqcRD/mboyhHNLtETgHjv6QIqtIJBmW1COM3raGWOmAMWhRZp/2dxihjrMG8ZoDNFph+Y/pReKvM9dDz5lzo34Qes6/wHnMf9wZQOFQgWgagFI07LUVsa3n5Cu0X5r7Q+h50PCfA0aLHaPer169Lc3OL1hHa6AdVGn4+9G9CX5j3mWsqgmI04stb50ggvUMfF3qeYoIl7xNsmAkdtJRRMae1jGCiIs6IDuOoJajssjAUYEdXVQDg05kNUCP8NGoxgACblwEFcM3wGu/jRtBxgNeCfqAykO6DA3hwUCeXtfrCtNTD+kK32b4ln0Hgc/BdubJctm7epLGu7EuRljkBrh25Nc5frJYB+GooQrCoaIFGsZiX1B8z/MORgRtfgJs5nj5vsXkqyVbsHu8LmuHBeXhOWT9EOzVWqH+LXMuS5wkiKs78j+Ign2vkdlOHnsMXMkCfoZn2qXmggOm8po+Y36b/GI6GPj5tHOO0o6A7R/2iAXBL6PYmNtTikryHdgC6fqxrUxwzCFpTh3ktM6ib36H70GvmmHuCjIHlu3Zs14m9oX/zsONZAY7EIcAaIUqePXdBRx9TCad20PeknR0ciASzrEUEl7Ikcys6ucXGpzu/1fHNi5nztDyRY+lvvGwSgKTKb4gYQLGQoGW9FA8NgKcqsw/ilgIECLkbgUV7gFqpYVSbjlXF+aBhhoYaNdDob2PRxt78HZ5lSUvomCiW3kl+if/UiGdxMcvuAMaB/kbwaugegyHAgdkPWdjX9u7ZpdyOFmv220eVWQOOIUF19Q1y+cpVrYgdnBWuX7dW1q1do6Zy0zDT+dlAu9gUWEwUIJiNjkhQG2DzHDfCkjonc8s0t7RIR0enAs5w5m1bt0hlxSoNQJ83wLGRLa2tUl/fKLfv1Cj96KBk8O06AG51VZWKfoawhmNF0iDzN/bepsBCUMAAh3WZY+7Vqk7xDJDjMfXIm7duy/UbN7VZxAALmUtFxUrkjCmd4nx64QH/zIrDsbLGpiYF3N3aOm0oZVrOm9qwfq1UVVU+oDr7tE2B+KUApbnqS1fUTmEMOKvR1wm4leXlCwc4ApCWv/y8XABunQ24+O1TdssfQoErV6/LpctXVNS0AfcQQtmXbArEggI24GJBRfsZNgUipIANuAgJZd9mUyAWFLABFwsq2s+wKRAhBWzARUgo+zabArGggA24WFDRfoZNgQgpYAMuQkLZt9kUiAUFbMDFgor2M2wKREgBG3AREsq+zaZALChgAy4WVLSfYVMgQgrYgIuQUPZtNgViQQEbcLGgov0MmwIRUsAGXISEsm+zKRALCtiAiwUV7WfYFIiQAjbgIiSUfZtNgVhQwAZcLKhoP8OmQIQUsAEXIaHs22wKxIICNuBiQUX7GTYFIqTAogIcc5rkYUE+O8VChF/Pvi3uKLBoAEfKMYNxTradRCjuepHd4IgpsKgAx0SY2VgjbQPS5NlZuyL+hvaNcUSBRQU4ipRcv3o9snYxdZhdbAosNQo8VsA1tzARbIPcqbmrdGWavCwsrbtx4wZZu2b1UqO1/T42BeSxAq6ltU0BF5p5mYvGbwLgmI3WLjYFlhoFZgLcmtVVmgiWa8aZ1P4Pe+9ZZ142gLtTU6MLdjDVuQ24h5HavhbvFLgfcJNgLmsBuFVIdV4yv4BrbSOH49oCd2zAxXtPstsfEQUuX74qFy9d1tT+JvOytbbAAgCuDSue1jU0yO3b5HCTuj5bRka6ipRcQccuNgWWGgWY5vxitQU4pvdPwOpUa6E+Va5aJaXzzeHuBxwXG0+TLZs3qvN7qRHbfh+bAgTchYuXlBAGcFwtqoKAwxLE86rDhQOOCyLSNbAFy7Bu2rje/jo2BZYcBaohTp6/UK3rIFKq4/Jr69ZZHK5kvgHX3tGhOhzXzGLlBBxdA1z3eNOmDUuO2PYL2RS4WH1Jzp2/qKvrGsAxlJHLVRUXFc0fh2NlXAG1vqERvolrNuDsvrgsKHAB69lziW2zki853NYtmyFSrpzfFVAJOE9Pj3I4yrUsbAQXtmcDqMfZZW4UII0DQ8MS8I7IhN8v4yMjMo71pSe5DC6WxtU9jqm5J4LuGF4lEd8gEe6ZJOjSSWnYIOLrBsnDLnOnAMXJs+fOqzRnnrZ921blcHm5uSpimvMP2s/KD2cBrheAq9cVIYl0ruPNbQcasHXr5gfVZ5+fgQKTsHgRQBMEE5a2ncA2PuYXf1eXjHZ3S2B4RPwY4Px9vTIxOmptvlGZBBAlEYBLT5cE0h8AcyDax4mPn5KTK06E2iW7s7G5JQFgTEgCICH6J2BLxP0Eq10ip0A44IiDHdsJuAqdKRPJktqzBlxvb5/UIbSLci0rooWGDdi1czsasS3yt1jmdxJsY0OD4uvsFG9Ts4zU1oqvsV7G2prA0SzupoAcx1rT41hXmuDEpnvQW4CZhEQLPPwOCQBggiNJuV2CI1G5XWJmjjhLSsW1cpWkV1ZJ2opyScnLkyRwQxt0kXfAmQC3c8d2qYTjOweB+/MKuP7+fgWcMZOysgBG6D27dynoIn+N5XcnOZm/r09G29vF39YKLtYho10AXHunjLa2ir+zQwKeLgALIiMWdcdwBk5GUGF7WCEAJ8e5Orz+HSAKAIKjpaRKcn6BOKHYuwi8wgJxFReLs6BInMUl4iooEEeQSz7s8cv5GpmJ0eFoIGThud27dijg3JQigIFHlVlzuIGBARhNGmC1qZ6qYwyi0N49u7URUyftA4sC+Dj8QORMY0NDMnDzpvR8dEL6PjwO0DWAmw3jgwEcEP0kiXuC69EfMDLyou4AgDg+Zul+k2PiyM6V1E07JPfQE5Kzew+4Xpk4UlNRd1JEHSeyepfGXfxu9LsZK6UBHAe2Pbt3CkO7srKyIqLbrAE3PDysHO7M2fNTVLUBN0WK+w4CoNdIS4sMVF+UwSuXxN/RIn5Yev09fdDFoI9RTATAEhLIzQC0CEbL+yp52AkFO0HPesA1AeykzEzoedDxCvLEVYpOs2WbZO7YKa58iJvQB+1iUYBgY9+uvsRIk0v3GE327d2tHC6dEkIE32zWgPN6fTCaNMhHp05rq1gZG2VEyki87kv9g9KaOA4jhw9iorehXgZrbsvAxYsyfOOGTHgHrNdPdKrBI+YAexRxAUC2DyZQgDtRHDn5krF5q7h37oSet1pSy8sBwlJtWyQd6VHVxfN1As7n88klxFJevnJ1yi3Adzq4f59yuNRU1/wBjhWNoiPV1dXL8RMntSIDuF07d8jOHdu0Ucv9QwVgyh/1eKTt6E+k9/j7MtpSD+YCDgaRkVzGKrESG4OPi3pHvQ//E3yTAbgYHJK2fpvk/dbTUvKZ55XTJSZDzF3GhYHKI/iWnC1w9dp17duqHoAmhw8dUA7HoI9Iyqw4HB9MAwkB9/6xD6cAx3MEG30TlHOXK5ejiX8Q1sbBa5el/+wp8dbWiQ8GkgmfF9wEOhJN8ouqULcEx5sA6IB/R5YbxpUySa+qkmzoeBmbNksqjCwJsEQvx8J+PQSfKMF2/cZNBRy5HsuTTxySysqKe8RMnn9QmTXgWCHdAu+9f0yfTXCxYdu2btGNSYWWG+A46gVgTPJChOw9e1r6zpyU/lPH1VKohhAF2mPkaNTj8L/F0vQAP639VAfhPbCOTo7DQorDvE89K7mHn4R+t1VS8vPFgUnGy61QVRoYGJRr128IQxkZ5GEA99STTyiHM9Enj6LNnABHHY4cjh2N4iMBx+BlRpukpaWqI/xRDVhK1/kRek6dlNajb4qv5qqMwWk9OQ6AGWXa7B/XS6N9k7BUCkQk5WZEFIwodB/cUwi6IBAdGVniWrVaMvcdlqKPPy3urVvvuXU5/PD7x6S/vw/c7Zbcun1nCnDs8x976ogCLlLmMmvAEWQNiKX84PgJfD+IIigEHFMsEHScGxcp6uP9o9Hk7odfsvf0KWzgaufOSqC/V6NGEpLhXF7oYsRDWiQJHmLeiSgUiIoORKHQ55aUjtAvuAHUSU5XAPQ0iozsROpoxzsx4mUM1lW1oCanSvqqCsnauFGy4Wt1ZGTqvQv9ao+jPj8ienoQ6HHz5i3N4cOIKhaCjByOsZSR2itmDThW2NjYJMc+/EitkypOAXCMnuZsATf8ElP+Ct68RAvf2+/pkaFbN6X5tVdl+OZ1xD0OQU+DYYTm/YUqypVQGZkTVC3qiQzfosGD8ZWJGTD/Qy9zIdIkBY5uJyJNGALmgPk/AQp/EjYN/0KbJxHRMjHK+E2vjPZ4YGVtkWGk0hgfHJQUOM9LPvc5dZwnQU+PtKMtFBnmo55R0KIbxi9yt7t3a1Vy43uzf1OHW7myPOJq5wS4pqZmOXHytFosyeW4MWPXhg3rJRehLgxmXsqFYOM7d/7qLen86ZvibayXcXAELYq1BQQc2mGJiwFJLkY0CcTAtDVrJL2iQtLKyiQRAc0Mcp5ExEqiEwYtgsWRDCskdG2cp/+PLkCyQ74XOaMCL4DYTlikGThNAE4gxnMCdTkLC8UF8HG0X+qg88IlwPmfNTV3pQFMxsQN0zJ5+OB+KS9fYX3zCP6dE+CYKu/0mbMwmXqVy7HzVVVW6LTzQoYPRWgqjaCdi/IWf2+P9J4/L13/8hvpP3lCozi0oQtlzaOljFwMYFJulZVpgcmdg0gSOK8hOjrgH0om9yK3xfchYIx+RnARbIku6NtpGQj/yocTvEADnx2YbWBFu0yTfmIsoLMWRvHeSTCeJMNpvhwAR5dAI5hLLazyLejzfGdyN9op9u/bKyvKSqeJ9IijOQGuFag/h+kKgzCZ0i9HwBHtTATLRqQyVGiJFuo3g9evSe23voWA4zsygY+iYVkLZRhhPQBcImcI5BVK+pYtMOOvVhCwbRwMhpHgabSuVvzNTeBSnNpDsFGvo6GEhi66KMDtUtNV3EzbsFmyEIzrXr9BUktK1CJpiZn3uwPIBbmRuy11DjcEqaW2tg42iybhxGsCjtwtE3aKPXt2Ib1CScS9fE6A6+jolOrLl6Wvt1+G0eEIOFbOGbDM85AOxXyplm7EQXZ/8L70Hf8ABpL+oO403yKkJeYlQgxMysq2jCDQlRPBnSaGhwD6IViuECYWgA4GfZpi4ATEIYqEAr3MCuviF6GixxIESxLESYzYNKbQGOLITJW0dRvFDcskjSQuiI8zFQO4ma4tpXODg0PITlcjTRi4uro8CjimE8mCRMHg5RL4KCMtcwJcF8ze16/flE7M26KfgmbxIoiSVCKZIJN5Kpda0egRvHfbT38invffk7GOdnUaw2Q1v6+K55s4SxUBMwE0fPREiosAix/tCHR3IWQMOiRFTSpk0NfUyf6otpFb8W/o+MagCc1UUpDYNGPbLsndf1CyEPKVhlCvxeewn1+Sm6ezb99AsDlzsfb09CpHZ+xkbm62BnkUPWBAMn8fup8T4Fg5LTdsSG9vrz43H4GvK6Ckb1i/VjIRHLvUykhzs3SdPCmet47K0OWL6PB4x0d16BgQgQaOxBTM4E7HIMaZBADImKcTXI3RK8QXwq9iaBWdHCOnHJGM7fsl7+OflBWf/7y6EWLwKnH3iP7+AY0yoTjJYzIWzg4oKS6UjRs2aHqFSF9qToDr6+OcuHrNbeKBaZyyPBtSXFSIaJPNwjlCS6aAC5C79V04K03fe0V8TU2IKqH5Hx2d+tR8FepIAJtOMiWwTVVoD/Uy4bQbFrYhlu1Ap6LVMwkzyDO2bpfiz3xeMiFeMsRruRX2cyYPomuABhQCjhNOyVjWrl0Ni3xOxCSZE+CI9iaM+FQoO7u61RFIvY1cbveunZK9hABHkWvg5g3xvPu2tL72D9CHqPdEFrAa8deY6Uaa6yEyKpgo+sFMryLjTPfOw7kJ/4i6ALL2HJSS33lOsnftAfgJfIP86UpprGFRQ8sM16fvjK+jHkhvJ0+dVSmOTnACLj8/VxPAci5cNIxlToAbgCO0FeLknTt3pQMpAuh55zSFPDhV98J6kwOz8VIp7EwNr7ws3e+9gxQIdehVQf1oIV4wtPMCdAtatD7odxKQin/7F1L82RfUd3dfIDPu8w/0qzmGhhf2haVivaTqdOIjRBFhlj6jqYytYg18zmWwxmdFoTrNCXCchNrR2QWF8pYCz/gnuE7coYMHoFRGzmoXtBNFWdkYA5KxlkLjK9+WfoRuTQbQ6QmCUCBE+cx4ul0zhPmGpOSlr0rhZ35XMioqNDLlnncA4MYwAPu5IeFRGowuKVGIWvc8axH9oCWWouSHH56UPlij+Vut8UhtvhEBHjQS0oASaZkT4DgJlai/fPkKRMuWKSeo250lRxDykg9OtxRGuSFMtfEgKLn75z9BiNMtOItB4GUCNnYkxopO+r2S/fQnpeATn5L8gwclGbr6PYUdESFQQ3V14kFMKe/JWr/+nlvi8Qe5WSeYyrHjJ+Bvhs6O767+5hVlsg3T0CjFUaqLtMwJcJRnh5HC7fyFizpVhxyOIwDdAU8eOSSFiFrguXgv3e+8LfX/79uImeyG2R2GCuowy6mg000iQiUdxpOcJ56Sss9+ViNbwklAPbfv7Fmpf/k7Uv6HX5b8p54KvyXufnNqDv3NxxEzTAc4+zMBx0xdtFPQZhFNCOOcAMeKGdjJ8K6aYFAnR4QMsFjOhC2CtTKaxiy2r8FZ0KMQjzp/+TNp+Pb/gtqG2NDlBjZ+FAIOFktXxRpxHzwkq176kgZAz/S9PMePS83fflNKXnxR8jGdJxWDrkbgzHRzHJzzYoBta++QU6fOaHCHARyjqZgwi9wtmlkxcwIcuRkBRoWS/jg2hr/TEIe3f98e9cAz3ixeyziiNPoQSdP5619I549fh6MZU1IcSzsge8Zvxek+AJyzdIVk7d0vlX/8x4g+KZrxVs+xY3LnG/8dwDwseU8+KXm7d2sW6BlvjoOTzE5HP/NFrJozAvDRGERGs2ZNlRxAHCUZSjRS3JwAR3oRdB9hxgABZ+RbxlAy1UIZktBQn4vXMgYlufmNN6Tnww+Q+OcKwIaojiUgIkf9PYKA4ywE9559Uvlv/kRnCsz0nB6k/bvzd38rycj87N61W1Z+6Usa3znTvfFwjmto0PXF1Ao+ZLs2fZzT0A5hpkC01tg5A45EY6o8Ao7Ip9nUWrZqo3Dd47y83Hig631tpBuAeUhq//f/lIEL5zAXjE5u6KOxMJZgkOLUF/yDeoNmfg3DWqTJegyHKysX994DUvG1r80YX8nBt+f4Man55jcwK2FUMhFQXfXn/w5z57AcL32JcVgYoN/Q2Kjz4Kg+EWAs6xFJdejA/qjfKCaA47pZd2ruTk3TYST1urVrZBViKouLZxY9om7pAv8BTdwjdXel9ht/LYOYXJqYEsO4UHZgWP0mJ+AoNqBLRlwkrZ+LsQQB56qCDnfgMHS4lzS/SXhTqU543ntXav7rXyMKp1syMOug8q/+o6bdS47CVxX+3Mf5m5OsmbuH8+BoQKH4SJ2N/Zs5KaMtMQEc2S1nwnrgIGSjCDiCjZacaGbDRtv4+bx/qLEBYVznpf2172lOyYSU2Mx8YIyiIyNN3IeelLRVFeJEiBAj+gcw1cfzzjsxj4mMCY2CRpOM7bsl+wislM89h3aH+VjB3cZhte5++zdy52/+s1pzUwHQ4t//suTs2QPfXWVMmrLQD6mtrZO7tfXCNe0pvSUDbBkId1uDjGbbtm2JujkxAVwNuNtdTM7jrFg2yokZxYUFhbJ6daVwBng8lt5z56QdnWfg2HvIkNyNnCBzCONCZzSSo7MwT9LXrZOCTz8n6Ws3iBPhb972NunGJNaW737HChdbbHoip/YEfJL9sWck/xOfnNEPR3HSjwG3619+JXV/9zcaHOAshpEFboTiT35KcvfujcdugDwmt+XO3bs6S0ABB9E4H2pSFayU1OOiLTEBXH19owYxc1asaVRWFkaB1as1oVC0jVoM97f//OfS/E+vYsGNFnAgKMsY2WZbNOUcuARL8e+9KMXPf04neHINN6791n36NDjDr8UD9wMX3phLXbNt48P+TiNNRoel6MWXpOi55yUTqRuYgCi00IUycPu2dL/zG2n9/ssYYLCEWaZbnOWYjPzFL0rxs78TenvcHFNdunW7RjMvs287MBiWIMqkqrJCp6BF+yIxAVw7HIOUdW+B4EwpRjmX5lJO0WEm5ngqHKmpi7S+/k/S9Mp3NHOVcqdZTH1hJyRnSMpwS9rKCsk5cFCy9+2XjA0bNaMxjTC0hDZ+/3uwhB4XX0MdDDMA9izqmk8aW4AbkvKv/6kUff4L4kJ0BRd/DC00MnW+/750v/u29L77a1yygq45paj8q38kZS/+vgZha6qH0D9c5MdnkNHgBtLjsU9wS0ZSpsqKCmHQcvmKsqhbHxPAMcasqakFudevaKoFWnLYcZkyj/64eArvYoKcMfhbWv7xe9L88v+VBJe12GHElKX4CCMDS4ITCnaGS1zlq5Gzfy84GyI0II4Yi52uO4Dlqu5+83/omgOLDWj6EnyfBMAHa82t+tO/kCJwZw6o4d+UPstGZC3zfPCu+JDagQEC7AOTvmEp/9rXZcUffhW0iJKW2oDH84+2He0/dfoMEsDe1HfmOapLnAO3cuUKjaSKtnUxARzDu1qQbZjuAS56YJyDDO4k4PiBjDk12gYu9P3jEB9HMHu67QevYfs+nN1YhohcJ8IyOcZVTH16dxp0tLzfflayt2DGNIwGXIlUOUPQtTDc3Cz9l6ql7dXvIi9KDQB6r5gWYZXzehu5WzIMJKkbNknZ770geYcO3wc2NmB8ZFhu/Zf/pG4BZDZSkJLDT/gGZMWXvyalf/BVDWbW5ZHntcWxeThdXDQAsk+HZlumQZA+ZnK3aKblmFbFBHAUI9tgxTlxEnn0EdDM0Y/yLifn7UG8GR3h0YS/mMY9jn2Aa7fVYLrR0Tek62c/BodDdMkjAMeOpekJIHsm5+ZJCvxVTElAs3jGToT/YNImjSPhpefUKWn7xc9l8OJZzN72QHdbfL4qui/SqlZLAabl5FIchnUuvNCF4sVSXPV//9/UspsIqYCIo+5KDlf4uy9ICUTR9MpKYTaweCgEG2fDcMFRhi2y/1KkpI/54P69UoqgjmiCls07xwRwbAgDPJkUlo1kIeDoFuBaA9mYrsORIR6KZlCurpauX/5Uet7+FYwYGZbDO7TxFLNMoXiFY6YQ4RK+qRsx0/3gk5KLkCZOUZlxnTX8PXWetjePSuM/vKIZv8hJtPBhLEEuaP14TP+inZPjfkSX7JaKP/tLSSvFoo0z5KkZqq9HusBz0vmjH8hIzW3QLAgqcjjMSs95+tNS+Ny/kpwdO2YceB7T2z20Wp0Jg4mnV65eUx+cARzDFhmYz8RBlNyiLTEBHCvtwozvk1grrh8JVzg6kCVzch5Np0yyEi8ZvPwgcjc4T/ev35K+Y+9q57knnEudwBi5J2C5RB6RJHeepK1GwtVNm8SNzYVOybAmTl8h2O6bqAlaUXcbgQje8eY/S9vrrzJrnVr1SEeti1EnYUYJXlvQwvdEUiEnBo3cw0dk1b/+I0lG4qJ7aBFskAcGn+YfvC4jd25KANO1ptK7YyBmaj73wSckF9N6Cg4flhRke46HwtVy2qFa3Lp1Bz649im9lYH5RwA49ulwPTaS94oZ4DgrlnkfPEiNzcSw5HqcnMd0eauQez1eYip98Ll1vA1L23tvy+D5M+g8mOuENHIsFB1pDncWQkTMc0N8zBVnfomk4h1TkUKcIhMjKh71IZgbhXPsek+fwITWj/BkjpRB1gb0BRBG5mtpsowvj4nTqSsD3C33mWcR9f+MFBw5okljSQdTSA9OOO186xfS9N2X4eyG7kqDUTD8SZfAwjMyduyWnKc+LsXPPKPriZu/X8x7rmHPJbW5YE1nMDUek79mIzb4IEK6mEZkNiVmgKOl8irYL6cyMOkKSzbMx6UlxTozNl5mf3Nmd/PRo8ik/KF4b9/AiI7ZAUEz/eSoD+njEE/4W5+QnJ27JBMO7BRMsg03kT/qQwRgBR2uq5NRcFMuRRxaxgHG4VvX1Sc3OQbdcBZiS+jzZncM7sbcKZN+qfr3/0Hyn/ltcWIhkHBuTcskfW+dv3xT2t941TIwheqhKg34hQlm3YeOSNnzz8dNEiIPpmXRHdCGeFrm7qHRjzO7mctkJ5LlRpM4KPQbxAxwgxjpatGJmJ2WaRfYQMq7XGOADWTq83goXNut6Uc/koFTJ8R7F/pICOASwd3cO/fIiq/A4oa8+snQZzQvZJRciJyBQGMolBpcDGGgM/Vfuya9Jz+Snrd+BjvMhPquzOUF2VNvQ/iZE++XtmmbrHjhBXFv22G5MsLecxQTcptee0360F5vPaysXMAk9B4F3JikrlmnYiVT7TGjczwU5ug5f6FamQfnxNElwAiTsrIyWbcOMaXhM94jfKmYAY5iJOPNGOZl0i2QBVN3O7B/n3K6CNv0WG9TwP3whyrq+ZDCXAEXlPaSIUq698BCBfM4dSyuTMOc/knIzR8pl6OO6IeeQ6DxI5pibCVcX64PKQoGz5/FdfRf5qBcqMIKtVJByvOdUvCZz0n29u0zciVaJrmiTv3/+ZauHKR/F95OPIuc0lW5RrL2HZCVX/iCpKLDLvbC78LkWCfhg2O/pgGQKlIxBiE6vLk8FZdjm02JGeA4daGvr1edhMaMygYRdB/DGlrRrDAymxeJ1d9MA+6kKOAoIrHjwIDgqlqLbQ2MJKth+PCpvpa3f792yGRkqoqk9Fy4IL2wglKPsxZFtP6K4hozKw+dgWulod4S6SJ5YCzvwSDA4sjLl8JPPysVf/J1DDgw4BidLKSu/lu3pAecresnbyD8rW1mH2IQcCmrKiUT8+hW/cFLarkNecyiPCS4mpqaYXU/AQOgZT3mOeah5MRTqkmU3mZTYgY4WiU5GjDahEuzGr8bTadMt8DZA/GQbmFGwJGy6DxcMYaZj5M4ix0zv9PWrJWVX/kKxKTSqeiRB30EugEoRrYd/WddbQePwzND7oYoRmlsDAl1rSWvQi+G3DePhxQlk1xO5Wz5Tz2tUf7h1TFvCd+l45e/kPajPxJfc5MwWGAm66UOVFMcbj843BfjgsOxHzdiDtypM5gHiX5NIxj3TN+/eRMWpISba7Z9OWaAIxtmoy5crJbqS1cUcDxHXY4LHqxaGR+WSjWa/PjHWJsbOtydW5ZeYowmeD9BqoFJ/6jm9+CC8zSXc4HDRxWm2huGv6rl9X8UD1I2JDhg/aTzLqws+EKOrB/fiUBypLskFQMjQ7Gytu+Ejno/1+agMYLO2PbDH0jHz47CcjltxQ17FbVYMjUDdbgszKMrpw5XGvnSTvc9b4FO9GK103qs7lt96RL6NFYoQh+mWMmVfbcjUxfXr5+ND47Njxng+DAC7GL1ZeVy/E02zMbSF0e5txis2OgqvL4Yixf541sxevd9eExGrl22dLipYGIaFLhA4aAUv/AlRM5/Vi2V4ZHzM73XCCIx2pH9q+/9d2T4Kp7L3ChkaeFlpnPh98T4N0XbydEhyT7whBTgnXKQGiEF06tmEiUJtib43AbOnUGwdW0YfcIaFmqlhC+O2b4We6p0dGFYJtvgDmjUkC72aRM5xZAuZupin55t+f8AAAD//5J3RpEAAC0YSURBVO2deXBd133ffwAe9n0hSJAECIAA912kSFGSZVmyZFuVXXuaxk4b23VTTyfpNDOdSScziafjJn90Om3HnUk6rZt0GmfiOHbiekls2ZKsneK+7wtAEARAAMS+7/1+zsOhIAggAOK9h/eAd6TL9959D/ee+zvne3777yRMqFkI25Wr1+zKlWvW09trIyMjlpiYaOvXrbWK8g1WVbXREhISQni30F9qsLXV7r32mnW8+br1njpuCSlppocI3mh83Cwp0RIz0qzsq//Kij/9kiVnZ1tCUtJDOwKJuy9dtNvf/lPrv3nTxjq6gteMAlpMjGqMkgOWWlpqRc+9YMWfeslSCwstKU3PPa31NzRY5+lT1vQ337XBhrs2MTRsGtDgMe237qPoNTE8aFmPPW4FH3/OVj//vKWtWjXTL6PmHGN18+Ytq71dZ3cbGo3PgUCSjmTbuWOb7dq5Y1F9TdAFQwq4ujv1dvNWjTU1NtnA4KDmZ6Ll5+dbRcUG271rZ9QDbqi93Vrefdfaf/lz6zrytiWkZjwA1IQWkEBenqVv2mKlv/4lK3zqqXkRf3RgwDqOHbGbf/SHNtrbbwnJ6fP6u7D+iGHnSBi35FVFlv/si7bq6Wcsf9++j9x2QsAZ17Pff/cdu//G69b1zhs2Njik50j9yG+nnpgYGxMo+y3vY5+wohc/Y0WHDlmK5kI0N+Bw7vwFq62ts46ODgMcKSkplpebY5s3b7JN1VWL6n7IAdfc3GKA7lZNjfX19VuSVv9AIGCVFeV2+ImDUQ+44a4uaz992lp/9hPreP0XAlzmB4DT5Mmo2mTFv/Yly39sv2Vt2DAv4neLq7W986Y1/d//PTlRP8o95nWhUP4IMIwMWFpltWWLA5W89LJl6nkC4tjT22hvnw00N1vj975j7W+8ZmMDI8GfzMGhg4Drs8IXX7Liz37B8rZvt+ScnOmXj6rPAO7I+8espva2jY6O2rgWm7S0VFu7dq1trKywstL1i+pvyAHXpQnb2HTPzl+4ZD09PQ5wPET5hjJ76qnDFhAAETOjtY329VnPrVt274fft9Yf/60lpGUJcAF1d8LGB/ssd+8+2/Bvf88yysosJTd3Xo/R8sYb1vqr16zzzddsfHhUnCF5Xn8Xrh85MTIlYMmFRZb35MfEqZ+xXIFhJrBNaNL1ih6tr75qHUfesv5b1y0hoAVjDrDR94mxUZsY7LXVX/h1W/NPvhgEdEZGuB5r0dcFXKNaiN5994jdrrvjmMOYPmeqz9XibGVl6614kSJxyAE3KFHjflubHT123Do7uxzgWClYGQ4/ccjS09Mcx1s0dcJ0gfHhYUOsbPjuX1jDX/65JablfAC4oT7LP3TYqr/xx040SpwPcLTY1P3ld6z1F6/YYF2N2ZiEFOmBS9N0b/4fHbLk4lWW/fjTVvKpT1vBgQMzd0d9H+7stPa337Kab/0XG0dnW8BiCeDGB7tt3W/+S1v3G1+x1IICS5R4Fq0NmwNq0PvicHfq77p5CuCys7OcOlRSssZyF8mhQw44VgmA9s5771lbW8eDVYLO7tu7x8nC6elRoMPMMuroK6MiesNf/B+78+3/IQ73gUgJZyp46mmr/r3ft6Qscb45Jh8i1Zgmac23/rMA9zNN9MmbzoM7zNK9RZ12HGe439I3b7ec/Y/bmudfsPSyDZYivXR6QyoZ10LZ+P2/sbY3ZEC6fCn4kzmeeep1nEgpqaDs679t677yNQvIEDMXzab+faTf98rQ13q/zS5evGTNLa2OWQC4/Pw8e+Lg41ZYWGCpqQ/XW+fqc8gBxw27u3vsyNFj1tp638nBdLqoqMCqq6qcxTJ3nqLYXJ0P1/csGo1//Vd258++LWPBsESjcUvQf+kbN1rBM89a2W9+eUYr3vT+jGoABzRwdX/yX639rV+JW0o/WhKwTegZxiwpM81Siost77CMI48fsrzdeyxphgkE2Aals/VevWJNf/sD6z53RovFiLoua2ziPK3MuoZIJgtoipX91tdt7Zf+WVSrEoxde3uH7A93nMGkXQYT7A9Y1QvFmZ968pAxbxerDoUFcKwUp8+et3v3mmU46TMAlyWOsGZ1sW3Zskmvq6fPzaj7fO9n/2B3v/c9G7p728a7ZcZXK3z587bquU9a4cGDmkhz62ED9+5Zx7lz1vKDv7LuM6cFuMylARzcarDHMjZvsaLP/poVqf9Z5RWz9oUF5/6bb1rd//qfNtLSZGP9WFbRY+cJNv0S3S8xI91S15fb+i9+0dZ85iVIGNXtnhaZq1ev2z0Z/pjDAA4LZbHE74OP77ecGQxKC32gsABuYGDQbspKeUfWyiYZUFglUjRB0zUA+x/b5wwoC+1opH/ffvKE3fvlL6z73bdsuKlBelyClXz16wLcC5azadMDy+XD+tVbW2stb79tHa/93PqvXQ2a0SPF4QQyxGMbH7NE+ZDynv6Y9M9DlrN7n/OFBbQAztTgyi2vvWrtcgF0nzrh3AE2Lm41X842edGJEemJhUWWI4PMmhdetIL9s+iJM3Viic4xX0+dOeuYxBD6qhri5DpZKHds32aZmYs3+IQFcMNSPltaWuRArLHrN24+YM08AK6B6qqN7hyfo7X11tVZ56mTdk/Gk74bV6XsJ8k6+e+t6JOftnSJZfPRRbqvXbOmV16x7iPv2ODtGln3xBUjATiAJutIgsRF/F5p60pt9cv/2LL37FXfZ3A8T4Jz6P59Pet1a/jB96330gUbk5XZWWgXCDbGdGJowNLlZljzG1+xvAW4UJZqPiCF3bpVa+/L2Of0V9GQc+vXr7MKPUd5eZncA4t354QFcHS0V76bq9eu25mz5yxZ3I2HwFr5xMEDijipsgxxu2iOOhmVGNV/u9Zu/advSoc5JcClWtUf/JGtev5TFmClmwdwui5ftoaf/tR6Tx61oTt1EQPcxPCA+jdhqRuqrejZ52yNfGwpWqmTZN6eKSoGTjgmQ1GrOFvTD/9OYnSdjcmH6iyS83jOmUAyPtRr2Vu32cbf/w+WUV5hgSh2BzA3+/sHFLBx094/esLNV56Jebx1y2bn7C6QHpfsxOqZnnb+58ICOB5gZGRU8vBVO35SuossWx5wsGYciKsU3YCMHK0NIwOGg5r//t+s88T7NiEAVn3jP1rR8y9aANP2PNSZrkuX7O6PfmR9Z07YUL38OuHkcAKNs0LKFJq+odwyt2yznF17LXvbDsuulgis8KSZuDJAG7zXJKPOW9Zx8rizRo4PDUoU1cg8AmcjegUAJ2VlWO6+A1b5u//O0qSzzwT0aBl7gNXW1u6CNfAfE6hBg0GgAgE6nN+LNZhwzbAAjgvTrl2/YadOn3ExlaOjimzQYJSKRcOeKysqHqwkwV9H378jcuLXy3DSIT1uQA7fqm98U4B7wQLzMJjwNA843AlxuPowcDjR0/nVJsbFgZMtMTXFAlnplnvwSct/+llFduyw5FkswlhescD2ayHoPntG8ZHfs8HGBoFlLChGPiJnU2iG8/NlyPWQL/2tVAaT2foQLSOO/81ZJ2/fsduKofTWSebroccP2LZtW0LW1bACDufhlStX5Qhvt0GtpIiQKKHIxbt2bF+0TyNkVJjlQqz+nRcuWMsrf2/3//7vrPoP/1iAk0ip1W4+IqWLWHldsYe/etUGbipCI3V+ERqzdOcjp+HCNia3xeigpVVts+zdj1nxMx+z9NIySy4odGLcbJxlVCLjgAxazT/5obX/6pc2It8pIFyMGEkHcR+MD/VY8Re+pEDof2R5O3fOy4XykYeL4ImhoSG7cPGy1d+9q/jJTjdP4XIZEoP37NphGzdWhqw3YQXcfTkRg3GVtfLNdbuVA31u7doSO3jgMfdA0azHMaGJOmn+6Y+sXpH+VX/wTWelTFK0zHwAR/whYuW9v/6OdZ8+IbeALIOPyjn8kE+Kjsh8gfxCS12zxjIUNpexcZNlbtoqvWmrJWfKKS8RcrZG1H/fjWsyCp2w7pOnrL/mpvqVqP8X4Geb6eL0TdyWvm341//Gij/zsosumQ30M10i0ufgYljVjx0/YQ0KuIfb4RYBbKtlYNq8qdrWKdslVC2sgMNw0irL17nz5+UEb3sQKrNaVr4n5UjMll8jeVJeDtUDheM6LT//B6v9k29Z+e/8rhU8/XFLzpqfPw3Dy5AcqHV/+i0X9Cu/QBBwCwEdYuOUliC9SthQ2lCiZVTvsJzHDmoReM7SiookTs5s6nd/rusQtkbmQtvR9xVM/ZZ1vvGKuJqulbx46xv3mJCImihLXnJhsVX89u/IwPTJKT2PzrdBA1+vvfPu+/K/NTumwLlcZQdgTS9VSCKO71C1sAKO1aKnp9dFneAERzbmYRArMZ7gAOfBor31yLx//8i7lrmxWhY3GSTWr5/RADH9OeCQpLU0/vj/2f3Xf2l9F85KR2KCzzM8yHOzsRFsEdLR0i1jy1bLkm6Wq9ys1OISS1lVbCmaEESMzMpJ9MdjAluvjFjNr79m/ZfP24Ac+mPdskS6cJAQxHY6QPdZRkWVFX7qs1b09NMy1lRPJ0nUfSajpU2xv/jfMJz4OVq8qtD27tljBQrnIng5VC2sgIM1o7sdPXbCJfMBNs5liUNsKCu1Ck3e1Yo+ifZGys5AU5ORSRDIzLQcTaRZJ/cMD4PxpOvMKes8Kn9cfYMNK4RoYnhILAHxa4YmDpiQGLAkBc0GcnJldMixgIwfyRIh0wX6LDnes6qqnY42V8QLfUYs7r9y2TplHGk/fsxGW5sUeTIgsXN+ovEMPfzwKVYDHQnyVeYeOGSlX/0tS9eiNN9sig9fLLKfUHvu1NfbDfmMp2a3rC0psScOHZCzO/OB1TIUPQsr4OggTvCzCvPCgMID0QgAzc/LdebWcmWCx0LD1N0tDsHEytmyZUGA4/mY9B0SrdvEYbqOvifucl8GhmA0A5ZG1yZdDYAtIZCuRNetlrljl+Xs3CX9TNxVWdko8/PSe9VP+uyytBVedu+737G+64p24e+TJNouIAh5snezv8jYgu6WuqHSij7xnJV/7WvzCn2b/YKR+war5GVVKGjT+GA8gcNB41ItGE888bil4gIKYQs74PBlkMxHflG9QMdkwZ9B2jrZA9u2bgnh44TxUprAg+J0AC5V0fXzmvRTujOuwRzS3w8rvnKktUXxiX3KSugXpxl0GQUYU5Jk/UQ0TJLomKjXQK6c1XC4vHzlqmUFHddwPx0Pa2PS0wZ1j45jx6xHESMDt67ZkCySo73iavjW+Ps5rvGw60//Dt0tIWHM1nzxy7bqE89bzg5l9ocS0NNvGMLPl2VFPy1xEr8x0hetWPrwhg2ltlVzEyNfKFvYAcdDEIUN6M7LxJ6Axq+GePnYvj22XboccZahcCqGkjAzXYs+01gFF9PgPOPDIwKawKb8QcAIADzgEuU+SJJfbSGgwNoG0IakjwzK54cVsv3oMVkgb9hoW4v0xpmjTBbzHCw++O0CcnKnyvJc9i++brlK+8FKupC+L6oPj/jHzEukr4uXLtvp02cfjCljjGWyoqJcMZQlD84/4m0+8mdhBxx3hMvdqqm1t995zwGLFZpzZA5slj5SICNKqFeSjzxptJ1gstInvbqD96LLA+61QA7EROlvbLT7Cpbuekf5a+dP67paGEip4VoLvB7dmbOxcMjnlr13v6363D+1gsfk6pHuE5Z7zdmZhf0Ag167fG7XFH5ICCKLKIsW8/KQwg83VlY6W8OD8VjY5Wf9dUQAx4MQiX30+EkblrEA9s25kjWrlbZeapUK9cqI4qTUWam3xF9AQ9wO/cpK6Ll43vquXbVBOW+HmmXg6eyQnkY41yTgQtzXCUUOIZ6mrF9rhSoStOZzn3fVvqI5ZnIqCfolDdTU1DpVh4wWAAe4OAiwp8oclbpCvU5FBHA8KD4OvPntUk4xxfJgWIBwLu7ZLcNAjsrNhfrpplJ4ObwXwMZVtgDRkcI+Iyp/MCDxsfPiReuRb416I7SEQIpEyNDqHh8in/pBC2jMXEWuZz5uRYcPf+gn0fyBhYok6bPnlLOpeYnrirmHMQ8XwP79+1wIYjieIWKA65TBAC5Xo9X4/v2gv4MHQpw8fPiQXvNDLi+Hg2BLeU38esM93danMoSd585a7/GjNlBX6yL9SficoF4KTRJkyJdmd2H9o8lK+FagoEgB0lut7J9/2bJktcVdEisN8ZuM7iNHjjqxEgCi0+XJ9UIUFKXwiooKw/I4EQMc/jhWEhyMd+82OHDxkGSC792zy4mXRJ7EYhtR2BoRHNQGoUhOqDg1ICJaheK0Q/IDDjU1SlxstEG9DjY1u4DoUSynas7UH+biRF6MTNI45apEQ5E4W570tpT80EViRGL8mYdwtjNnzrmCxRjs0N0IxNi+basyvIvcvAxHXyIGOL+KUPMPA4r/TFIf8jJl9FhdYrERMzkkUOCcplAOzmh/OPM4JnKJLNOBCA1c08ID93KRKXAqHVguKW0w3N5m3ddvWI+K+PRfvWzDjXXuu4QAkSX402BnYW70k67K14YzPkP+wTUvf85Wv/himG8cnsujsxHjW6N5SJUuAAfXYw4+fmC/qywXLiNexAAH6ZhgFy5eUpGW285VMK7POBnhcphid2zfGh4Kh/mqowIHuXMkcI7IuY/fLEvRKGkKLKbwaaIMQpQOZ2A96ODubtHRQI8P9NtIV7eLQBlqaZbho976lSk/2n7Pxro6xT0FPnFQQDgxaXByQHZYiwDgWAxUNDZ5XZllK8durcCWqSRiQspisVGO/7oWsS7pcXA2xoV5SJ7mgf2PSfr6YJxC/XwRBRydx/mNd5+aJ2OKUPA+LRzgiJY8OASIpQZwECvb3z9ivVpMsBwmJWkxIT9Nme2J6XJaAzr2KcAwpN+PM4kVaTIuqy0Jn6TLjGgCALyRtvs2pMj1sZ5OfScDk8nSCE2c1THILSNFH/S1xLQUlUMvtlwFSucflL6tOpaBrNgT/1nkANi58xcN0PGZg/mGzlZZXh7S3LeZxijigMM6BOhOnDr9YHXBJ7JJHAHAUaglXOx8JgKE+lynwreaXv2F9bz3hg3ekeisZ0P8S0zJUBUrGRYAjorycJ66++OqEzlByL5gRVBAUBfDyriwKlmhfg4nQyJJjg3Jqb3Wsp981ko++aLl7doV+ltF6IrMMyzkZxRqeP3GDTfPWCxZ5Lds3uSiS8JdUS7igGOFQYY+duKUq46E7MyxRik7FRXl7qFj1XjCvAkGOjda9/mzClY+YuzC4zgTpnrVRXEiJROZwGViEMd9dVj+elLPIxonEroZt/xIwwqpBWCcDAVldsjHlnfwCZVr2GPpJWtjIiD5I480eYJY3rq6eqfS3FORK+/sphQeZfCoRhDuIsURBxzPTqDoebF1qtz6gGYS/oqUCoFPDvbudZ3ZiBfN5zF+EPXRffastWs/gUFtezTU1mpjKkFHW1BB1Ug9KFzXcVqFrsnEn6Itq9LWlVjhsyoLuGefZYjLLSRDIlLdnu994GSk38DdKMXfL4MUDWkqR4agg4ougbuFe94tCeAossneW7fY1kp5cl5no1DLU4efcNZK2HwsN2cQkZED3azxJz+2NgFv4Mo5cTSlsSSp5DfPhz4XDU2TMejHUxkMMdf06p0C2vO29vNfcBXKCKQO90QMNxnQ1RqlF7/97hGXMsb9OIfvjTL82BDI0wx3WxLABWXpPnn6LygP6dYD1k4Zsp2qdVKmNBTquMd6I0gZbtd3+7YrY9CrgOJeKev9NbdstOM+EdwSHRU+RDB0pMEHyLi/REcNgMo1FFlG5UY5sTcr126T3ldZZkWF65uziMb4YBDhRIoYVbmYfywgqDJsMoP+RnXlcIuTkHBJAMfqz0HNykuXr7oH99YifHGV8stVV1fF+BB/uPskgvbLed2tCBGOofoaV7hnrH/QxiXesHEGzXESwBdqAIreIrqjO/dJFIdNlBifpN1ck5WbmFpaqarMe9xBAHIsRY7wPHO1Gzdvuj0D2EqNuQadmYOAjY1Cka68xXyuay3m+yUBnO8w3O3GDe09pronU/0hVVWVbrcS/7vl8Oq4nUCFLw1f3YCCjMkE7z5/zvrPq5Rge6seUxMBZ7YOJ3LKiBKaFhQZjVINOgQ3VfVaZRnyqeXs2m2527a5DG22T3bio8C4HLjaVNpRdYCdeeFuNNQYgi62bpb/V1KVsxCHitxTbzzt/ZICjvR2XASXJWYNyLHLCsPqg7Vo797drshQmvSH5dbQl4alxw5p0wjCtQYbFeEvh/ewFp4RiT7Dogu+uPGBPnG+Qff4StvVK4ea44CT74NnPvgX6yeHQkP4j+xxaqHgR0tR8d0U1ftP1aaCqcWrLbVknY61lqoyFykKPgiC/INLLYd3g1rgMMwRxlWvkEKAxhwjUJl5VlFRvuhdTRdCpyUFHCntbGl1XC6CLjmOacjV6G8+3CtP8YnLvcHdKcEwqHCjPpVXH1BQwGBtUM8bH+iedJILPgQnIxrS8OdNb5NiIxuPBCstC6ZpEhuz8iyterOiQ6otU3pahkR2tzniTNeYfs0Y/8xehRR5JQGaBd67Aqirg0W8RNFAZKpEqi0p4FhpcIRTRq+5RRtJSM9BrsYvkp2dqYzwfW4/uUgRY6nuwzOjw41PZn+PqcCPK70g3W6sr9ftQgogh5Uw6aJTtLPLmMoaTG/kviWJdmzgkaJFK1kTKUVlGihElJimSBdFu7hscukrcxUfmn7tWP2MZfK0uFu3uJwvRgyXy9dCfuiQNlksiGyWypICjkFElKxTvZNalZlukO8KYqDQ8rpPYiUBpcRaOmNCrI76I/bbgVBSABkD6H348VyAs/QQb2SZemlHN/mV2J2V/bpJBg2oaG2SwLbSGosYgcnMrVMqoYAUwQLPeaQmyieQGcB2wpFsSw44CIFfjmIuJKh6/xvEqara6ERLZO1IWJAiSfj4vcJLAeZPS0urEyUvXb7yYCFnvhGkzNxig9DFbiG80KdYcsCx4kCEq9duqKDLJZVgUHEd/ENqyNb45IixjOX4yoUOSvz3i6cA1kiClKk5iR5HQwIAiHt273QVuTDIIUlFsi054PzDkpR6Xb6SZlnuqPUOcTjWqO7Jgcf2WZZYf6hrBPp7x1+XFwWGqDLd0+sC5Kn4zaLOwaKdq0UcUXLjxsoleeioARxiJSIA0SfEWiJawvkItyFXbr3EShTdeItTYC4KdKjWCws426WxG46fS7nKTdwsvxtFXgtkLFmKFjWAo5IXoDt5+rTjcr6yV4rqM7KZ+c6dO5w+txREit8ztihQq3zLCxcuOsskKoqXltgElA0W81Q6PtK6m6dg1ACODuGXIzGQYkNkEnhCIQ7gM9lULR+SLG+Rlrs9seKv0U0B9DOyAK4reomKXMwfL07miLutV0m/vZpHodir+1EpEVWAw1iCCEAIDgRDFABcEBIxgJ1TcRMs1er0qESO/11kKMCCTUl9OFy9Ipi8k5t5hc5WWbFBft11S2qAiyrAsRoNyalLCYbTCmweVXq/36qYGpYUjoXT4TuJc7nITOJYuQugohqXrzXpa58yTzjYybS8otyyNI+Wcu5EFeD84JIjd0U71bCJI9EniAZwuTxFtWOxLCpSKolqhcRbnAKeAswTjG44uamB6rkb4iPGkt1yBaxft9b/fMleoxJwyOGIlmTnNmm3GURLAIcouW7tGjkuK12J9CWjWvzGUUcB9H5UkUbqd0pKgoth5abG5FYVqiWbO5Ixk7MRKCoBh3gA0dhtp+7O3QcxlpQvS9POMpvkJti8qcopv/EIlNmGdmWcp/IbuhsuADbmGGRHIp1DKsLv5jJPFDiBsS0agieiEnBMFfQ5IrzR5yjayWcaq1ZlRblLHMTMu5QWJ9eh+D9LSgHARq0SNlW8pSwLpCHfiorIOil3VQQAYDS0qAUcxEEuJy3+5KkzDmicQ7QkmLlYYMOAEok6FNw33qKTAji5zylYAv2tR35cREnmCADbt2e3qsCVOd0/Drh5jB9cDUKeO0/0ibZlkm4HQSEeVsvdcoZTACbSEd/z6Hr8JxGgQLdyKCmZQDVvrJLMFw50ffQ1fG6EBk7lehHo1kNvEdUcjp4TfYLVEhnd7+MFUSFiqQrABBNVNwiED33O+JfLjALMgVu3aqV21Lp5MSq9n4UY7sYWaBUVwUxuHN7R1KIecOhsBDNflpuAPQkwpmBUgbipKiVeqcpSu3Zud6ta3IASTVMrfH0hE6C/f8BtF4yTm88AkDmBBFRZWW67duxwrqNoMJRMpUTUA853FuNJjY4G1bOEwDSAh8iwRdsWrylZbdnS7eJt+VOAKgF3Gxrs5s1bqhTQ+iBXkgW3UBuMUISKalzR2GIGcKTHk2rx/tHj1iddznMzREt2raRU9boocGxG4yAvtz6x6LJ9NTo9EhCNVyzWGEqImcxVgddobDEDOGTzLu0sQ3AzuhzWKW9AAXxuMwbtF05BT0SLeFt+FEBsxIiGm+iqfG5IOJzjQLrBTUQFZVJvok2U9KMRM4Cjw/hcqGF582aNC1D1xOY7fC5lpWUCXrUrQuQ5IN/FW+xTAHANK7GUygB36u+4bat5Ku8GwIC2Ufr8WkUiRaKC8qNSNKYAB8AQHa5rs0JWOIJVGYggR5uQdWq1i5nDN4eYGW/LhwKoEYT74XNr1uaXGnQ37ow9i+uO7duUya29xqViAMJobTEFOE9Edj8ho5eqzTg7ITrAY2+5YhU53aSwL+oNMhBx8dJTLTZfWWQZW9SIa1poWyVSeh0eNYOQLfYHqKgot7XyyUZ7i0nAMQD4506cPK3N0VucqAGwGBwGgQiUalmq2Gcumle7aJ8c0dA/4iKpnExZfFJv/CLKWCeJkxUWFdp+1S9FqsFNFO0tJgEHsZHn2fKKeMuamtoHogTfFYj465Wwyp7h8VjLaJ+CD+8ftSXZSxA3AEYzFlYWVRZd6txskKGM4AfGORYW15gEHEME0XsVa8mOltev35CY0Sf/XHCDdFZBCg5t2RLchoh8qHiLPQpQ/r5FEgxBDx0dXQ8skgALbrZZ/leqADC+jHkstJgFnCcu9eKDafW33QoI4QFjilIz8mUe3qJUnoqKcrf6xfU5T7XofkVKYQyJLLqqxbRDcbTDCnYAaJzPUMl23D8sqOu0M2sstZgHHKFe6HMXL11WqfQmVzqdAWBwAJ9TqCVyrFYCInuAxVv0U2BQeyxgiSRsi2wRxEdAyILJuFIxmT3dcG6nq5R7LLWYBxzEZkAYHDgdmb++cZ6yDICtemOlU6zjOp2nTnS+ElFEUAO+VgxinXo/VVxcXVyslJtSZXFv/tD56Hyaj/ZqWQCOxwJcAO69I0fde/+owZCfVDdAZUSiyG0Qb9FLgZbWVi2ad52fFfB5sCFKwuUOP3HQJSCTghOLKsKyARyDQX4Ug1WrPbWpa+llfl7JmSvfoK2M5S6IlnT76J32ke8ZAekYweBs7OfW26vNKAUyQMViSlAyC2a5uBu733ggRr6ni7vjsgEcZICbEf51WfuGw+0YQIDovyuRaFm5kfCfEhd7F02Jia6TK/QfAEXUEPparTakbG5u/VDSaLpM/oANN096eoZC97Qtc4y2ZQU4wMVBjQsGj0xgQMhqyHk4HUr2LmWKUzINx3i8LT0F2CMQnyqlNBAjGSvP2Riz6qqNrgAw2SCcj0VR0lN5WQHOPxRWrnZtCMJuPESX4zD1IggDuErRCaXaBouBZLX03/m/j79GhgJwNmr/k7WNKnBPlknARkOcpIwGkf+UuF8l3ZsirrHeliXgGBQiFNg//ObNW47bMYA0Vke4Homr1ERxgc5LXI3XdWyF/QOwKBLVroDk8xcuulxHL4mQXJWghZF4WBzbSCOAbzm0ZQs4AIYijmh5Wy4D6qIQDuYHNTkQsDTES6Xil5Wtd6FBsSyqxNJkBGyMTb0C0Nk0kURSxgb6w/XIZaMqW0VFuUK3yixFUSXETS6HtmwB5wenS2WvScOvqal1qyn6ggcWA8/quX79OlcwlDyqaE1c9M8T668shICrXgshiyEHjbHgSElJ0XZSudp8Q8YtRf9jkVxObdkDjsECZDU1t61O289SpoHmQceKisl5547t0hMKnSElIYFSfO5n8X9CSAEAhVEEnfrU6TPWIpHfNw+4VUokXr9uvTZO3OTSrfz3y+V1RQAOUFHliRy6WzW1CoTtMLal9eIl7gEU8kpVe0KEwWcXdxmEdooDKMRIyiNcU9Y2PlPGgAbXCwSS5B/NlIGk0vlLKfa7HI1ZKwJwfuqQMdzQ2OjEGN6z2npOx6ATNkQBGvx0Odk5MRen558z2l7J4kBPa2lpkZRx14mT9NFzNRY3diVdJ9F+g6zH1CZZrm1FAY5BZJUlU7y2Llhyj1UUVwEtGAaW5uqi+DAwD0j3g/g/j0QBnNoEI7MbUreSST29WeSQPrAUQ28Sh1Olwy3ntuIAxyCTQUxgLNEobQoBI2WfVZbvACAmaCLS14nTrZFpOr4X3aNBgKifzs4uZ41slGTRKd2NRY1FDFpDcwxV+NnY4RbgeTA+2h2j/69WHOD8kFBMFEcrOsV9Ke/47Xxj1aVENg5yVl5e+Rzndp5Cc7+iMxPpT6Y2aVPkLU7VychXzJUYWayFrUr7/RUWFsx90WXwixULOPQHgMUGfnC6G9dvGjEOflLwPastm0JslDFlx/bt7nMcdPOb9USO3JbYjg90RFzNcy5oTkNfxqlN1jYGE//9/K4eu79asYDzQ0aAMxnFGFOamprlq+twgw/gaEwG/ELk1OGzI9SInLo48DwFP3iFZlgfiYvE/dKm8Dqi/jnvxUgXrpWf74IN2JUUMXIltRUPOAYbRyyKPVvWImIOym83Jh2DiYKuwWRB3yD2kgDaAk0YQJec/MHmfytp0kx/Vmg0Oorrpc+JjzcUw9rd3esyN7zEAA0JKoCzEdlDaYSsrOURrjWdHg/7HAecqAOwEHUAHXuKk96DNY2JhKjjuRmTJ1/crkw5WSj5cLt4M+deQSemDD16MfobNKVBOwwlRJDg5ywT3ZAWCBpfKWLk1DkSB9wUauAvovpXQ0OTxMsmFxIG9/PAA5SYrRExV6mIDdnj+IxI+YEDrrQGkNoljhMkTgl6srW9CAktABsHZQuL8XFKOsiXdLASOZufG3HAeUpMe8WQwibtRLNPzdHyYiYp/ljWNqsqGKFhuA4CAVbt5R0T5p8fQ0i/dh2lLujdu6TWtDiREa7luVtSUqJE73RXT6ayssIBbSUuTFOnVhxwU6kx5T2bQHb3aEtbmbQJCWNrWyaLn1C8+owDOB3RKQTbRvNGElMe75HfIgVQJQ1zP8YRfJosSJyHm3lAwvWLCgtd2fnggpQp+sVLz8cB95CphwiJ1bL5XovT7TrkxCVECRHTN97jo8OQQkpJgbgelcLSxAGXy2oOiKAFei0hcWTUk9gLbRAraYANWmAYYY+HVUVFLuewVOFaSAMrUV/zc2TqaxxwU6kxy3v0ODZtJ1GSVd3HYDLJaEw0JiVGFayYiJkYVChWlKjf+N/NcvmoPs2zASqiRmqVmX1bla6J8ud5py8oExPjrlYkAeDlqgVatEKc2QsZwDjg5kEtP+m6ZImj9DY5XB2dHc4aN3XlBlhwNlZ4jANUB8b8TQHa6ZNzHrdd0p940RB/GvmErRhE5LPEAkk8Ks1zNWgAFyvfUCYLZLHj9iw2sbC5RqSJHAfcAimOWMWWt1jkcJhjlcOAwAT1E5D3vh4HZQJI92GHToCIedz7phZ467D/nH4jOgKq/oF+92wADgsk1kj/jL4jAI2KWll6PvZyYFMNDEmAL95mpkAccDPTZdazTDoOjAUYUq5cva6Eyi4ndgGkqeKjn8BMxtVriq2yvNxFVrD6R2MDbBRgqpfVsb4eo0jDA33Vc3KeCY7PweJRpnQaQrSIOUV89r+LxueLhj7FAfeIo4BYhQEFtwEbROKLwpiAvkfzwGNiIlphvcxUgiWxmQTtEtZEkuVS73cAyMiIJ7iYEuNE92OFJIMCvdU/i+fevPIsGIgQHwnNIncQLh5vc1MgDri5aTTnL7DWsUMnLgQiLoJm8hEXHsYE5fDcjpCwXIEumI6S7yYqURdwCw5+G+7GosCBKX9gcMD1mf6zcFD+gEY/4Fb027+nf5kZ6r84Nv0nfQmrZJyrzX/E4oCbP61m/SVcgsk7NDTozOV3JI4RIkYZOCajFzWZvHx2E1gTOk2cAi63tqTY7U9O1Ir/ftabheALTPrNyr6Gq3VKHO6THsozjKt/9JHmgY+Fkv4jBrP5IVZY5/YgllR+Sf+7EHRrRVwiDrgQDjPiI0YU8sCwYra3y2eliPlgGbgRNzn9BGViM5HhGtkypmQKeIQ8YWzBwJItLpiWmqbvgxzE/91Cuss9EH3Ry3p6e6xH3BdLIzGjvCJK8h3cjuv7g+cA+PQN/2J+fq44cbZcHQWOO8Ol+T7eFk6BOOAWTrM5/8JPdHQ6ttFqk6jWIyCOjkrM1J7V07kIE5yD84Xy3+E8x3GMQx3LJi6FQFJAAE3URE+afP0gqJoOjY97Y8aY7jOm+4y6ewGqHulkcLX7sjayyQkNcAF4mu8PIPIHoGIBwNRfoqK58QRcR6pF/xMH3KJJOPMFPOjQ5wgTwyCBjoc7AT3JT2xe/YTnSg5cCoFKAlh6JTMacY4JnyMuk5Wd6cTQTJ0DMPw9DU4FuMhH88YPDB9BXW3EcbogEIMJoPwNoPNg55X7UMynpKTEmfcRHVNTUh2XjTU/Is8XjS0OuAiMCnpQv8DQLo6HzgTgsARyDp8X+pMHHSCgAQAaoHJWTgUBUykazoNlE/8XBgt+/4EOGQQdumOfrkt0iNPNdC1/XXfRyX8AK9fDEIJIm52V7Yw4xD5idVzucaFTaRGp93HARYrSk/cBSHA9uB1+PIwXcEAfk8jPZgKH50QA0x+Ahd8CLM7xnsNzz+mP5kHNeac/CrA4qnFRlCoplNqcgDjewkeBOODCR9tZrwzXoWgRQHFZCeJ4cD4K1FLZCtHQg8ODx3/2r1yc7wAY1/ONzzRePUj9ZzgWIiNhZ/gCEVEBLbX72ah+qojqLhL/J+QUiAMu5CRd2AUBBQ5mIlcAHToYlk7AOCIjy8jwaPBVboeHcUEPRF4BTkBHsqyMJMxi6STcCiMIuiAJtFgdMcgA2niLHAXigIscree8kwcNBhDnWlAUS7uMLe2ychLDOT3yY+oF+VsOABwEV5aL1i8qKnQWTzbF8FEtngtO/fv4+8hQIA64yNB5QXdBRPTRIEPasBBu5z7rdWho2BlbEDspdAR4cEDjM8O4Ath4zwHA8OVxns9wvnhbWgokaCAn4ory0g7CfO4O93K636Rls7evV58nASdDh7dcoqdhwo+LivOhauR/8/8BEdXsT+10DEEAAAAASUVORK5CYII=;" parent="VzEyl7pLeXNEImk8ZBch-95" vertex="1">
          <mxGeometry x="13.999999999999773" y="19" width="20.56" height="20" as="geometry" />
        </mxCell>
        <mxCell id="VzEyl7pLeXNEImk8ZBch-96" style="edgeStyle=orthogonalEdgeStyle;rounded=0;orthogonalLoop=1;jettySize=auto;html=1;entryX=1;entryY=0.5;entryDx=0;entryDy=0;endArrow=none;startFill=0;" parent="1" source="VzEyl7pLeXNEImk8ZBch-90" target="VzEyl7pLeXNEImk8ZBch-16" edge="1">
          <mxGeometry relative="1" as="geometry">
            <Array as="points">
              <mxPoint x="910" y="909" />
            </Array>
          </mxGeometry>
        </mxCell>
        <mxCell id="VzEyl7pLeXNEImk8ZBch-109" style="edgeStyle=orthogonalEdgeStyle;rounded=0;orthogonalLoop=1;jettySize=auto;html=1;entryX=0;entryY=0.5;entryDx=0;entryDy=0;endArrow=none;startFill=0;" parent="1" source="VzEyl7pLeXNEImk8ZBch-97" target="VzEyl7pLeXNEImk8ZBch-104" edge="1">
          <mxGeometry relative="1" as="geometry">
            <Array as="points">
              <mxPoint x="466" y="1068" />
            </Array>
          </mxGeometry>
        </mxCell>
        <mxCell id="VzEyl7pLeXNEImk8ZBch-97" value="OT-DC/&lt;span style=&quot;background-color: transparent; color: light-dark(rgb(0, 0, 0), rgb(255, 255, 255));&quot;&gt;DNS&lt;/span&gt;" style="sketch=0;pointerEvents=1;shadow=0;dashed=0;html=1;strokeColor=none;fillColor=#505050;labelPosition=center;verticalLabelPosition=bottom;verticalAlign=top;outlineConnect=0;align=center;shape=mxgraph.office.servers.domain_controller;" parent="1" vertex="1">
          <mxGeometry x="449.9958823529413" y="1001.6953571428571" width="31.10294117647058" height="38.30357142857143" as="geometry" />
        </mxCell>
        <mxCell id="VzEyl7pLeXNEImk8ZBch-110" style="edgeStyle=orthogonalEdgeStyle;rounded=0;orthogonalLoop=1;jettySize=auto;html=1;entryX=0;entryY=0.5;entryDx=0;entryDy=0;endArrow=none;startFill=0;" parent="1" source="VzEyl7pLeXNEImk8ZBch-101" target="VzEyl7pLeXNEImk8ZBch-104" edge="1">
          <mxGeometry relative="1" as="geometry">
            <Array as="points">
              <mxPoint x="562" y="1068" />
            </Array>
          </mxGeometry>
        </mxCell>
        <mxCell id="VzEyl7pLeXNEImk8ZBch-101" value="Historian" style="sketch=0;pointerEvents=1;shadow=0;dashed=0;html=1;strokeColor=none;fillColor=#505050;labelPosition=center;verticalLabelPosition=bottom;verticalAlign=top;outlineConnect=0;align=center;shape=mxgraph.office.servers.database_server;" parent="1" vertex="1">
          <mxGeometry x="546.93" y="1001.7" width="31" height="42" as="geometry" />
        </mxCell>
        <mxCell id="VzEyl7pLeXNEImk8ZBch-111" style="edgeStyle=orthogonalEdgeStyle;rounded=0;orthogonalLoop=1;jettySize=auto;html=1;entryX=1;entryY=0.5;entryDx=0;entryDy=0;endArrow=none;startFill=0;" parent="1" source="VzEyl7pLeXNEImk8ZBch-102" target="VzEyl7pLeXNEImk8ZBch-104" edge="1">
          <mxGeometry relative="1" as="geometry">
            <Array as="points">
              <mxPoint x="864" y="1070" />
            </Array>
          </mxGeometry>
        </mxCell>
        <mxCell id="VzEyl7pLeXNEImk8ZBch-102" value="Workstation&lt;div&gt;OT-WIN10&lt;/div&gt;" style="points=[[0.03,0.03,0],[0.5,0,0],[0.97,0.03,0],[1,0.4,0],[0.97,0.745,0],[0.5,1,0],[0.03,0.745,0],[0,0.4,0]];verticalLabelPosition=bottom;sketch=0;html=1;verticalAlign=top;aspect=fixed;align=center;pointerEvents=1;shape=mxgraph.cisco19.workstation;fillColor=#005073;strokeColor=none;container=0;" parent="1" vertex="1">
          <mxGeometry x="844.5600000000001" y="1002.5500000000001" width="39.22" height="31.38" as="geometry" />
        </mxCell>
        <mxCell id="VzEyl7pLeXNEImk8ZBch-115" style="edgeStyle=orthogonalEdgeStyle;rounded=0;orthogonalLoop=1;jettySize=auto;html=1;endArrow=none;startFill=0;" parent="1" source="VzEyl7pLeXNEImk8ZBch-103" target="VzEyl7pLeXNEImk8ZBch-16" edge="1">
          <mxGeometry relative="1" as="geometry" />
        </mxCell>
        <mxCell id="VzEyl7pLeXNEImk8ZBch-103" value="" style="sketch=0;pointerEvents=1;shadow=0;dashed=0;html=1;strokeColor=none;labelPosition=center;verticalLabelPosition=bottom;verticalAlign=top;outlineConnect=0;align=center;shape=mxgraph.office.concepts.firewall;fillColor=#DA4026;" parent="1" vertex="1">
          <mxGeometry x="652.7460774058578" y="972.004449339207" width="29.911861924686196" height="24.62555066079295" as="geometry" />
        </mxCell>
        <mxCell id="VzEyl7pLeXNEImk8ZBch-114" style="edgeStyle=orthogonalEdgeStyle;rounded=0;orthogonalLoop=1;jettySize=auto;html=1;endArrow=none;startFill=0;" parent="1" source="VzEyl7pLeXNEImk8ZBch-104" target="VzEyl7pLeXNEImk8ZBch-103" edge="1">
          <mxGeometry relative="1" as="geometry" />
        </mxCell>
        <mxCell id="VzEyl7pLeXNEImk8ZBch-104" value="" style="image;html=1;image=img/lib/clip_art/networking/Switch_128x128.png" parent="1" vertex="1">
          <mxGeometry x="640.0541176470588" y="1040.7014285714283" width="55.29411764705882" height="56.410714285714285" as="geometry" />
        </mxCell>
        <mxCell id="VzEyl7pLeXNEImk8ZBch-124" style="edgeStyle=orthogonalEdgeStyle;rounded=0;orthogonalLoop=1;jettySize=auto;html=1;entryX=1;entryY=0.5;entryDx=0;entryDy=0;endArrow=none;startFill=0;" parent="1" source="VzEyl7pLeXNEImk8ZBch-105" target="VzEyl7pLeXNEImk8ZBch-104" edge="1">
          <mxGeometry relative="1" as="geometry">
            <Array as="points">
              <mxPoint x="954" y="1070" />
            </Array>
          </mxGeometry>
        </mxCell>
        <mxCell id="VzEyl7pLeXNEImk8ZBch-105" value="Workstation&lt;div&gt;OT-WIN7&lt;/div&gt;" style="points=[[0.03,0.03,0],[0.5,0,0],[0.97,0.03,0],[1,0.4,0],[0.97,0.745,0],[0.5,1,0],[0.03,0.745,0],[0,0.4,0]];verticalLabelPosition=bottom;sketch=0;html=1;verticalAlign=top;aspect=fixed;align=center;pointerEvents=1;shape=mxgraph.cisco19.workstation;fillColor=#005073;strokeColor=none;container=0;" parent="1" vertex="1">
          <mxGeometry x="934.56" y="1001.7" width="39.22" height="31.38" as="geometry" />
        </mxCell>
        <mxCell id="VzEyl7pLeXNEImk8ZBch-117" value="LEVEL 3 - OPERATIONS SYSTEMS" style="text;html=1;align=left;verticalAlign=middle;whiteSpace=wrap;rounded=0;fontStyle=1" parent="1" vertex="1">
          <mxGeometry x="341.03000000000003" y="960" width="249.03" height="30" as="geometry" />
        </mxCell>
        <mxCell id="VzEyl7pLeXNEImk8ZBch-118" value="" style="group" parent="1" connectable="0" vertex="1">
          <mxGeometry x="726.7567647058825" y="1000" width="70.56323529411748" height="26.450000000000045" as="geometry" />
        </mxCell>
        <mxCell id="VzEyl7pLeXNEImk8ZBch-119" value="Network Sensor" style="strokeColor=#666666;html=1;labelPosition=center;align=center;spacingLeft=15;shadow=0;dashed=0;outlineConnect=0;shape=mxgraph.rack.general.1u_rack_server;verticalLabelPosition=bottom;verticalAlign=top;" parent="VzEyl7pLeXNEImk8ZBch-118" vertex="1">
          <mxGeometry y="16.00357142857149" width="65.66176470588233" height="10.446428571428571" as="geometry" />
        </mxCell>
        <mxCell id="VzEyl7pLeXNEImk8ZBch-120" value="" style="shape=image;verticalLabelPosition=bottom;labelBackgroundColor=default;verticalAlign=top;aspect=fixed;imageAspect=0;image=data:image/png,iVBORw0KGgoAAAANSUhEUgAAANwAAADWCAYAAAC6weznAAAMTWlDQ1BJQ0MgUHJvZmlsZQAASImVVwdYU8kWnltSSQgQiICU0JsgIiWAlBBaAOlFEJWQBAglxoSgYkcXV3DtIoJlRVdBFDsgYsOuLIrdtSwWVFbWxXWxK29CAF32le/N982d//5z5p9zzp259w4AjA6BTJaLagGQJ82Xx4YEsCckp7BJXQAFhoAGDIC2QKiQcaOjIwAsg+3fy5ubAFG11xxVWv/s/69FWyRWCAFAoiFOFymEeRAfBABvFsrk+QAQZZC3mJ4vU+E1EOvKoYMQV6twpho3q3C6Gl/pt4mP5UH8BAAyTSCQZwKg2QN5doEwE+owYLTAWSqSSCH2h9g3L2+qCOL5ENtCGzgnQ6XPSf9GJ/NvmulDmgJB5hBWx9JfyIEShSxXMPP/TMf/Lnm5ysE5bGClZclDY1Uxw7w9yZkarsI0iN9J0yOjINYBAMUlon57FWZlKUMT1PaorVDBgzkDLIjHKXLj+AN8rEgQGA6xEcQZ0tzIiAGbogxJsMoG5g8tl+Tz4yHWh7harAiKG7A5IZ8aOzjvzQw5jzvAPxfI+31Q6X9R5iRw1fqYTpaYP6CPORVmxSdBTIU4sECSGAmxJsSRipy48AGb1MIsXuSgjVwZq4rFEmK5WBoSoNbHyjLkwbED9jvzFIOxYyeyJPzIAXw1Pys+VJ0r7IlQ0O8/jAXrEUu5CYM6YsWEiMFYROLAIHXsOFksTYhT87i+LD8gVj0Wt5flRg/Y4wHi3BAVbw5xvKIgbnBsQT5cnGp9vFiWHx2v9hOvyBaERav9wfeCCMADgYANlLCmg6kgG0jauhu64Z26JxgIgBxkAjFwHGAGRyT190jhNQ4Ugt8hEgPF0LiA/l4xKID852GsipMMceqrI8gY6FOp5ICnEOeBcJAL75X9StIhDxLBE8hI/uGRAFYhjCEXVlX/v+cH2a8MFzIRA4xycEY2Y9CSGEQMJIYSg4l2uCHui3vjEfDqD6sLzsE9B+P4ak94SmgnPCLcIHQQ7kyRFMmHeTkedED94IH8pH+bH9waarrhAbgPVIfKOAs3BI64K5yHi/vBmd0gyxvwW5UV9jDtv0XwzRMasKM4U1DKCIo/xXb4SE17TbchFVWuv82P2tf0oXzzhnqGz8/7Jvsi2IYPt8S+xw5g57CT2AWsGWsAbOw41oi1YkdVeGjFPelfcYOzxfb7kwN1hq+Zr09WlUmFc61zl/MndV++eEa+ajPypspmyiWZWflsLvxiiNl8qdBpFNvF2cUNANX3R/16ex3T/11BWK1fuYW/AuBzvK+v78hXLuw4APs84Cvh8FfOlgM/LRoAnD8sVMoL1ByuuhDgm4MBd58BMAEWwBbG4wLcgTfwB0EgDESBeJAMJkPvs+A6l4PpYDZYAIpBKVgB1oIKsBlsBdVgN9gPGkAzOAnOgkvgCrgB7sLV0wlegB7wBnxEEISE0BEmYoCYIlaIA+KCcBBfJAiJQGKRZCQNyUSkiBKZjSxESpFVSAWyBalB9iGHkZPIBaQduYM8RLqQP5EPKIbSUF3UGLVGR6MclIuGo/HoJDQTnYYWoovQZWg5WoXuQuvRk+gl9Abagb5AezGAaWAszAxzxDgYD4vCUrAMTI7NxUqwMqwKq8Oa4HO+hnVg3dh7nIgzcTbuCFdwKJ6AC/Fp+Fx8KV6BV+P1+Gn8Gv4Q78G/EOgEI4IDwYvAJ0wgZBKmE4oJZYTthEOEM3AvdRLeEIlEFtGG6AH3YjIxmziLuJS4kbiHeILYTnxM7CWRSAYkB5IPKYokIOWTiknrSbtIx0lXSZ2kd2QNsinZhRxMTiFLyUXkMvJO8jHyVfIz8keKFsWK4kWJoogoMynLKdsoTZTLlE7KR6o21YbqQ42nZlMXUMupddQz1HvU1xoaGuYanhoxGhKN+RrlGns1zms81HhP06HZ03i0VJqStoy2g3aCdof2mk6nW9P96Sn0fPoyeg39FP0B/Z0mU9NJk68p0pynWalZr3lV8yWDwrBicBmTGYWMMsYBxmVGtxZFy1qLpyXQmqtVqXVY65ZWrzZTe4x2lHae9lLtndoXtJ/rkHSsdYJ0RDqLdLbqnNJ5zMSYFkweU8hcyNzGPMPs1CXq2ujydbN1S3V367bp9ujp6LnqJerN0KvUO6rXwcJY1iw+K5e1nLWfdZP1YYTxCO4I8YglI+pGXB3xVn+kvr++WL9Ef4/+Df0PBmyDIIMcg5UGDQb3DXFDe8MYw+mGmwzPGHaP1B3pPVI4smTk/pG/GKFG9kaxRrOMthq1GvUamxiHGMuM1xufMu42YZn4m2SbrDE5ZtJlyjT1NZWYrjE9bvobW4/NZeeyy9mn2T1mRmahZkqzLWZtZh/NbcwTzIvM95jft6BacCwyLNZYtFj0WJpajrecbVlr+YsVxYpjlWW1zuqc1VtrG+sk68XWDdbPbfRt+DaFNrU292zptn6202yrbK/bEe04djl2G+2u2KP2bvZZ9pX2lx1QB3cHicNGh/ZRhFGeo6SjqkbdcqQ5ch0LHGsdHzqxnCKcipwanF6OthydMnrl6HOjvzi7Oec6b3O+O0ZnTNiYojFNY/50sXcRulS6XB9LHxs8dt7YxrGvXB1cxa6bXG+7Md3Guy12a3H77O7hLnevc+/ysPRI89jgcYujy4nmLOWc9yR4BnjO82z2fO/l7pXvtd/rD29H7xzvnd7Px9mME4/bNu6xj7mPwGeLT4cv2zfN90ffDj8zP4Ffld8jfwt/kf92/2dcO242dxf3ZYBzgDzgUMBbnhdvDu9EIBYYElgS2BakE5QQVBH0INg8ODO4NrgnxC1kVsiJUEJoeOjK0Ft8Y76QX8PvCfMImxN2OpwWHhdeEf4owj5CHtE0Hh0fNn71+HuRVpHSyIYoEMWPWh11P9omelr0kRhiTHRMZczT2DGxs2PPxTHjpsTtjHsTHxC/PP5ugm2CMqElkZGYmliT+DYpMGlVUseE0RPmTLiUbJgsSW5MIaUkpmxP6Z0YNHHtxM5Ut9Ti1JuTbCbNmHRhsuHk3MlHpzCmCKYcSCOkJaXtTPskiBJUCXrT+ekb0nuEPOE64QuRv2iNqEvsI14lfpbhk7Eq43mmT+bqzK4sv6yyrG4JT1IheZUdmr05+21OVM6OnL7cpNw9eeS8tLzDUh1pjvT0VJOpM6a2yxxkxbKOaV7T1k7rkYfLtysQxSRFY74u/NFvVdoqv1M+LPAtqCx4Nz1x+oEZ2jOkM1pn2s9cMvNZYXDhT7PwWcJZLbPNZi+Y/XAOd86Wucjc9Lkt8yzmLZrXOT9kfvUC6oKcBT8XORetKvprYdLCpkXGi+YvevxdyHe1xZrF8uJbi70Xb/4e/17yfduSsUvWL/lSIiq5WOpcWlb6aalw6cUfxvxQ/kPfsoxlbcvdl29aQVwhXXFzpd/K6lXaqwpXPV49fnX9GvaakjV/rZ2y9kKZa9nmddR1ynUd5RHljest169Y/6kiq+JGZUDlng1GG5ZseLtRtPHqJv9NdZuNN5du/vCj5MfbW0K21FdZV5VtJW4t2Pp0W+K2cz9xfqrZbri9dPvnHdIdHdWx1adrPGpqdhrtXF6L1ipru3al7rqyO3B3Y51j3ZY9rD2le8Fe5d7f9qXtu7k/fH/LAc6BuoNWBzccYh4qqUfqZ9b3NGQ1dDQmN7YfDjvc0uTddOiI05EdzWbNlUf1ji4/Rj226Fjf8cLjvSdkJ7pPZp583DKl5e6pCaeun4453XYm/Mz5s8FnT53jnjt+3ud88wWvC4cvci42XHK/VN/q1nroZ7efD7W5t9Vf9rjceMXzSlP7uPZjV/2unrwWeO3sdf71Szcib7TfTLh5+1bqrY7botvP7+TeefVLwS8f786/R7hXcl/rftkDowdVv9r9uqfDvePow8CHrY/iHt19LHz84oniyafORU/pT8uemT6ree7yvLkruOvKbxN/63whe/Gxu/h37d83vLR9efAP/z9aeyb0dL6Sv+r7c+lrg9c7/nL9q6U3uvfBm7w3H9+WvDN4V/2e8/7ch6QPzz5O/0T6VP7Z7nPTl/Av9/ry+vpkArmg/1cAA6qjTQYAf+4AgJ4MABOeG6kT1efD/oKoz7T9CPwnrD5D9hd3AOrgP31MN/y7uQXA3m0AWEN9RioA0XQA4j0BOnbsUB08y/WfO1WFCM8GP0Z+Ts9LB/+mqM+k3/g9vAUqVVcwvP0XtjqDBHOoMmYAAACKZVhJZk1NACoAAAAIAAQBGgAFAAAAAQAAAD4BGwAFAAAAAQAAAEYBKAADAAAAAQACAACHaQAEAAAAAQAAAE4AAAAAAAAAkAAAAAEAAACQAAAAAQADkoYABwAAABIAAAB4oAIABAAAAAEAAADcoAMABAAAAAEAAADWAAAAAEFTQ0lJAAAAU2NyZWVuc2hvdMR0js4AAAAJcEhZcwAAFiUAABYlAUlSJPAAAAHWaVRYdFhNTDpjb20uYWRvYmUueG1wAAAAAAA8eDp4bXBtZXRhIHhtbG5zOng9ImFkb2JlOm5zOm1ldGEvIiB4OnhtcHRrPSJYTVAgQ29yZSA2LjAuMCI+CiAgIDxyZGY6UkRGIHhtbG5zOnJkZj0iaHR0cDovL3d3dy53My5vcmcvMTk5OS8wMi8yMi1yZGYtc3ludGF4LW5zIyI+CiAgICAgIDxyZGY6RGVzY3JpcHRpb24gcmRmOmFib3V0PSIiCiAgICAgICAgICAgIHhtbG5zOmV4aWY9Imh0dHA6Ly9ucy5hZG9iZS5jb20vZXhpZi8xLjAvIj4KICAgICAgICAgPGV4aWY6UGl4ZWxZRGltZW5zaW9uPjIxNDwvZXhpZjpQaXhlbFlEaW1lbnNpb24+CiAgICAgICAgIDxleGlmOlBpeGVsWERpbWVuc2lvbj4yMjA8L2V4aWY6UGl4ZWxYRGltZW5zaW9uPgogICAgICAgICA8ZXhpZjpVc2VyQ29tbWVudD5TY3JlZW5zaG90PC9leGlmOlVzZXJDb21tZW50PgogICAgICA8L3JkZjpEZXNjcmlwdGlvbj4KICAgPC9yZGY6UkRGPgo8L3g6eG1wbWV0YT4Kb298hAAAABxpRE9UAAAAAgAAAAAAAABrAAAAKAAAAGsAAABrAAAsO0WML64AACwHSURBVHgB7H15cBzXeecHYDAYnIP7JEgAvO/7FiXHsmxH0VqOHclO5NjeOLVx1VaSytYmf2zt1lZtJXvYSarWe7jWUsV2pJQsxzblSy47OklRvEnwvkDcNzC4gRkMBsD+fl/PA4ZDkJwBBiAG6Cc1u6e70e/11+/3vvN9L2ESRexiU8CmwIJQIMEG3ILQ2a7EpoBSwAZcnHSE8fFx8fvHZGRkxNq8XpmYmJCEhARJSkqStNRUSUtPk/S0NHE4HJKYmBgnb7a8mmkDbhF/b0r7ZvP5fDI4OCStrW3S1t4hXd3dAKBfgeVyuaSwoECKi4tkRVmJpAF0ycnJkgDQJeD9CEq7LA4K2IBbHN9hxlYMDQ1LX3+/dHZ2ST/2Q8PDMjo6is2vYAvlcE5nsqSkpIgrxSUZmemSnZUlBYUF4saeALTL4qCADbjF8R1UPKTY6IWo6COofKMyMDgovX190tXVrdyNYCO3CudY/G04IV+HHC8rM0MKwPWy3W7JzMqU1FQXwAhA4hrFzfBnLBIyLPlm2IBbJJ+Y+pnXOyItLZbI2NnVpdzMcLHQZvIcwWmuEUBmC7+PoiU5XFlpsYqcRYWF4nQ6Vc8Lvdc+XhgK2IBbGDrfUwu5USAQUONHX/+A9IGLUXz0Qk8bgdjo9fr0mIDivSzckyu5XCmSBTExNzdXUsGteM/Q0JD09PaBCw7K2NiY3kcA8hr3DgeNKmniApczxpWM9HTJyc7GszIlHcc2x7vnE83bDxtw80ba6QcTLGplBBjGYOggN6MRhPpZT0+vdHd7ZBCgoRGEHZ8gMQCgucMBLkUdzZXilPSMDCnMz5fikhK1SE5MjKvY2d7eKd0ej4qkfH4ggLrGAlONYBsMgMnx3ABaXn6e5OXkijs7S7meE/Ukg/sl21bOKbrF+sAGXKwpOsPzyHVozvd4eqQT1kUCbBgczY/zBgQEBDdTeJ4gTQEACosKpaykWIqKiiQ1LVXPhZr+eR85pg96X19fP6yYlljKY56n24AgNsUAGtjWa9TryO0KCvLV2pmd7VYDjLnf3seOAjbgYkdLfZJyMnCqkREvrIpDauxQERHGkBFu6kfz3mNlNE0g4AgkWhszwIWy3FnixpaVmYm9WzLA3ZKTH+xjY92si8YWgm1oaFAGBgZV5BweHpFRtItANtzT1JsEMFLcpA+PHJSiqhpZsM+E8YUiJ0XRUJCbv7X30VHABlx09Jq624ho7OQWN7I4EsVCgqq3D6KixxIXh6GXGd2K3Ca0w1siJMXIJLE6fqoCrKAgT0pLSyQPulood5pqwCMO2CaCr6enRzrgVqDfju1g+wKBceWe4RyVv81GrpcNUTMvN09yc3IkJydbLZw0wlAnTMR7sL2GWz6iOfblIAVswM2yKxBA7ND9AwNqrKDhohdcxQcuRlGRQBxHxw4EAWk4i+nQprOTa+RDl8rPszo2TfiGm6RAZ+P1UIBG2lw+f2KCxpmxKZBxIOiHkaYLFlAPgMj2mnaFgpp/m5SUiM2hIicHCQe2NIizNNgQfNxnZqQr92Mb7RIZBWzAPYRO7HjUgcgVuFEko9OZBg/6xKgzqYhI3xnOUWwjENmJWcKBwk6tzmlYGlNdqSq2pUJUo3Oa4mMmxDlyFoqN81GMLknL6AAGCraXznQvgGgMOfQBhhczONCdQNBR9KQumYZ3oNXUCRGY70VRVH/T8KKccHaDRXj9S+n3sgec6Uzch2/j4xMKJOpEjPRgaBU5BK2LdFCzA3P0Z7FEw2nroukkfCaNExQZ2QlzYJCgcaIgvyDIKTLNrY9lTwNOR2en9MKtQPGTYCR3NnQJHzR4ngOKoRUbbayeObk56minvknuRxDyvRMTLWc9nxW6PZYXfsyVLnvATYVKjUH3wojPUX8YDmgvjB70ixFUFMuo9wRgZifHo5hoOmVohzSdkHtyAxobGOlBX1cGOiCNHhQTU5zgCjDzLwYHNDk2aTBGNwLdFTgewsBCNwUHGQKQXDyUa4e+M/svxU+Hw9LtKF7SrUBxNFldGSnKFcnJSQ/daGkFGM1g9ZgxsKDVL0nAsXOoDgUONT5ugUT1GRxTr+I1gobgYQiVH2Cj3kWQ0bpI8ZBgY0c0ozm/CoFkRmjzlSgmknOpDwt7ioMEUgrEKzqXNbRKLX0Qw9DpQnUl84zFtOf70rhCRzwtnNRRjbHFD3qMgk7073Eg4mYK6WIGHHOOgCItKCZT1CQnTAfYKE4TcI6gxVV1RBhiCFaH6o0EMK2xMMyoLmkZmsKBbuqJp/2SBJzqW+wcGL2po7DD8Fj1LYzWo9S3YPCgoYOdBFACkKb9VA8aeQ1X4wc2Iz7BRh2MhoS8vBy16uXAqkdOZp4Tjx1FPYJKG1FgUYTuhh/RA+c69xpMDVCSDmYQ4vvO9K68x9xnQMmBh6AiIOmC4GDEASodU4wsYKYpKElHAtYC4PQ3iieQhbZ1wQBnCG0q5wfgOfMxrG9rRWRY16w7oVnJpFrbLE41jsgK6lYT2FQM4kgb5FQccfm35h7lZLhGLse/Uashfk+gMl4LHaFNu8w+tL3sSASWBv+ic7BjsFNYRgKXgosjNjflbkGwzdT5zPPjaU+aUqQeHQXXp+GIUkHQiERLrTEcjYwM49inEoL1Dacd+aRnOHfnbwt45GR0M1hcznA1nqP7weJ8PLZASi5I14SeV04IKYPcERzTPIPXEqA7Jgb1RtKb30OfGayXdZvBwlyf728WE8BZHyQwrfNA5CCBWcxIyU4+SZDxHI8ncQwgKUAABgKL/wcADoKJ162/xz08TzEGeoYRCQ1gCBoVB/Hh2Qn4PP27YP2GgKY9vGYIbc4ZoutH50fGh+AxTeFJDn5MiogpKg4RaHREZ2KjxY4g4/3LsZDWlB4sa+cQRNChoNWTrhE/vpWl7/J7juNe61tbIr35TqHfx5wLp2Xo9+HAZ4DmBMB4bBmkoDPiWhKAmKz6JM8TZAA1pRcYrnjMb0rg0ofI+YIKSB6jUv0dPNb7rX94Bc9K0Lr4bHJk9g/T9vD2Pux3TADHTk95v6m5GQ5Wjx5b4heBQ/GLzmELcASeIos7HX2mf041lIAM/iAheJ9VCNTgkTnAT3Z4C8Tmr4K3B3e8xo9pAGaumvP8e34sFWUg0qiZPisDRg7L2EHO5oShw1jbeL9+yKD1zTxvOe4NXbmfGlRBb+rADF+jDkj3CUVSSx+kYWpY9WfS34AplHY8FzqIhXZsc8y9BVDtSAoY059CukbwPJ8OCyn+1buD3Un7Q/AE6yNnJXjZ3QhSclcesy7q5vQ9MhChfMUKNYKFtjG0/Q87nhPgDJdpaGyS1rZ2GRzoR/gSdafRewDAFzMbG6Mvir0h3sMayGu8L/TvQ+/nNXM9/LxFREv0oMiR7OQoaAXnEmAU/7jnRhHFiWtmIqcRD/mboyhHNLtETgHjv6QIqtIJBmW1COM3raGWOmAMWhRZp/2dxihjrMG8ZoDNFph+Y/pReKvM9dDz5lzo34Qes6/wHnMf9wZQOFQgWgagFI07LUVsa3n5Cu0X5r7Q+h50PCfA0aLHaPer169Lc3OL1hHa6AdVGn4+9G9CX5j3mWsqgmI04stb50ggvUMfF3qeYoIl7xNsmAkdtJRRMae1jGCiIs6IDuOoJajssjAUYEdXVQDg05kNUCP8NGoxgACblwEFcM3wGu/jRtBxgNeCfqAykO6DA3hwUCeXtfrCtNTD+kK32b4ln0Hgc/BdubJctm7epLGu7EuRljkBrh25Nc5frJYB+GooQrCoaIFGsZiX1B8z/MORgRtfgJs5nj5vsXkqyVbsHu8LmuHBeXhOWT9EOzVWqH+LXMuS5wkiKs78j+Ign2vkdlOHnsMXMkCfoZn2qXmggOm8po+Y36b/GI6GPj5tHOO0o6A7R/2iAXBL6PYmNtTikryHdgC6fqxrUxwzCFpTh3ktM6ib36H70GvmmHuCjIHlu3Zs14m9oX/zsONZAY7EIcAaIUqePXdBRx9TCad20PeknR0ciASzrEUEl7Ikcys6ucXGpzu/1fHNi5nztDyRY+lvvGwSgKTKb4gYQLGQoGW9FA8NgKcqsw/ilgIECLkbgUV7gFqpYVSbjlXF+aBhhoYaNdDob2PRxt78HZ5lSUvomCiW3kl+if/UiGdxMcvuAMaB/kbwaugegyHAgdkPWdjX9u7ZpdyOFmv220eVWQOOIUF19Q1y+cpVrYgdnBWuX7dW1q1do6Zy0zDT+dlAu9gUWEwUIJiNjkhQG2DzHDfCkjonc8s0t7RIR0enAs5w5m1bt0hlxSoNQJ83wLGRLa2tUl/fKLfv1Cj96KBk8O06AG51VZWKfoawhmNF0iDzN/bepsBCUMAAh3WZY+7Vqk7xDJDjMfXIm7duy/UbN7VZxAALmUtFxUrkjCmd4nx64QH/zIrDsbLGpiYF3N3aOm0oZVrOm9qwfq1UVVU+oDr7tE2B+KUApbnqS1fUTmEMOKvR1wm4leXlCwc4ApCWv/y8XABunQ24+O1TdssfQoErV6/LpctXVNS0AfcQQtmXbArEggI24GJBRfsZNgUipIANuAgJZd9mUyAWFLABFwsq2s+wKRAhBWzARUgo+zabArGggA24WFDRfoZNgQgpYAMuQkLZt9kUiAUFbMDFgor2M2wKREgBG3AREsq+zaZALChgAy4WVLSfYVMgQgrYgIuQUPZtNgViQQEbcLGgov0MmwIRUsAGXISEsm+zKRALCtiAiwUV7WfYFIiQAjbgIiSUfZtNgVhQwAZcLKhoP8OmQIQUsAEXIaHs22wKxIICNuBiQUX7GTYFIqTAogIcc5rkYUE+O8VChF/Pvi3uKLBoAEfKMYNxTradRCjuepHd4IgpsKgAx0SY2VgjbQPS5NlZuyL+hvaNcUSBRQU4ipRcv3o9snYxdZhdbAosNQo8VsA1tzARbIPcqbmrdGWavCwsrbtx4wZZu2b1UqO1/T42BeSxAq6ltU0BF5p5mYvGbwLgmI3WLjYFlhoFZgLcmtVVmgiWa8aZ1P4Pe+9ZZ142gLtTU6MLdjDVuQ24h5HavhbvFLgfcJNgLmsBuFVIdV4yv4BrbSOH49oCd2zAxXtPstsfEQUuX74qFy9d1tT+JvOytbbAAgCuDSue1jU0yO3b5HCTuj5bRka6ipRcQccuNgWWGgWY5vxitQU4pvdPwOpUa6E+Va5aJaXzzeHuBxwXG0+TLZs3qvN7qRHbfh+bAgTchYuXlBAGcFwtqoKAwxLE86rDhQOOCyLSNbAFy7Bu2rje/jo2BZYcBaohTp6/UK3rIFKq4/Jr69ZZHK5kvgHX3tGhOhzXzGLlBBxdA1z3eNOmDUuO2PYL2RS4WH1Jzp2/qKvrGsAxlJHLVRUXFc0fh2NlXAG1vqERvolrNuDsvrgsKHAB69lziW2zki853NYtmyFSrpzfFVAJOE9Pj3I4yrUsbAQXtmcDqMfZZW4UII0DQ8MS8I7IhN8v4yMjMo71pSe5DC6WxtU9jqm5J4LuGF4lEd8gEe6ZJOjSSWnYIOLrBsnDLnOnAMXJs+fOqzRnnrZ921blcHm5uSpimvMP2s/KD2cBrheAq9cVIYl0ruPNbQcasHXr5gfVZ5+fgQKTsHgRQBMEE5a2ncA2PuYXf1eXjHZ3S2B4RPwY4Px9vTIxOmptvlGZBBAlEYBLT5cE0h8AcyDax4mPn5KTK06E2iW7s7G5JQFgTEgCICH6J2BLxP0Eq10ip0A44IiDHdsJuAqdKRPJktqzBlxvb5/UIbSLci0rooWGDdi1czsasS3yt1jmdxJsY0OD4uvsFG9Ts4zU1oqvsV7G2prA0SzupoAcx1rT41hXmuDEpnvQW4CZhEQLPPwOCQBggiNJuV2CI1G5XWJmjjhLSsW1cpWkV1ZJ2opyScnLkyRwQxt0kXfAmQC3c8d2qYTjOweB+/MKuP7+fgWcMZOysgBG6D27dynoIn+N5XcnOZm/r09G29vF39YKLtYho10AXHunjLa2ir+zQwKeLgALIiMWdcdwBk5GUGF7WCEAJ8e5Orz+HSAKAIKjpaRKcn6BOKHYuwi8wgJxFReLs6BInMUl4iooEEeQSz7s8cv5GpmJ0eFoIGThud27dijg3JQigIFHlVlzuIGBARhNGmC1qZ6qYwyi0N49u7URUyftA4sC+Dj8QORMY0NDMnDzpvR8dEL6PjwO0DWAmw3jgwEcEP0kiXuC69EfMDLyou4AgDg+Zul+k2PiyM6V1E07JPfQE5Kzew+4Xpk4UlNRd1JEHSeyepfGXfxu9LsZK6UBHAe2Pbt3CkO7srKyIqLbrAE3PDysHO7M2fNTVLUBN0WK+w4CoNdIS4sMVF+UwSuXxN/RIn5Yev09fdDFoI9RTATAEhLIzQC0CEbL+yp52AkFO0HPesA1AeykzEzoedDxCvLEVYpOs2WbZO7YKa58iJvQB+1iUYBgY9+uvsRIk0v3GE327d2tHC6dEkIE32zWgPN6fTCaNMhHp05rq1gZG2VEyki87kv9g9KaOA4jhw9iorehXgZrbsvAxYsyfOOGTHgHrNdPdKrBI+YAexRxAUC2DyZQgDtRHDn5krF5q7h37oSet1pSy8sBwlJtWyQd6VHVxfN1As7n88klxFJevnJ1yi3Adzq4f59yuNRU1/wBjhWNoiPV1dXL8RMntSIDuF07d8jOHdu0Ucv9QwVgyh/1eKTt6E+k9/j7MtpSD+YCDgaRkVzGKrESG4OPi3pHvQ//E3yTAbgYHJK2fpvk/dbTUvKZ55XTJSZDzF3GhYHKI/iWnC1w9dp17duqHoAmhw8dUA7HoI9Iyqw4HB9MAwkB9/6xD6cAx3MEG30TlHOXK5ejiX8Q1sbBa5el/+wp8dbWiQ8GkgmfF9wEOhJN8ouqULcEx5sA6IB/R5YbxpUySa+qkmzoeBmbNksqjCwJsEQvx8J+PQSfKMF2/cZNBRy5HsuTTxySysqKe8RMnn9QmTXgWCHdAu+9f0yfTXCxYdu2btGNSYWWG+A46gVgTPJChOw9e1r6zpyU/lPH1VKohhAF2mPkaNTj8L/F0vQAP639VAfhPbCOTo7DQorDvE89K7mHn4R+t1VS8vPFgUnGy61QVRoYGJRr128IQxkZ5GEA99STTyiHM9Enj6LNnABHHY4cjh2N4iMBx+BlRpukpaWqI/xRDVhK1/kRek6dlNajb4qv5qqMwWk9OQ6AGWXa7B/XS6N9k7BUCkQk5WZEFIwodB/cUwi6IBAdGVniWrVaMvcdlqKPPy3urVvvuXU5/PD7x6S/vw/c7Zbcun1nCnDs8x976ogCLlLmMmvAEWQNiKX84PgJfD+IIigEHFMsEHScGxcp6uP9o9Hk7odfsvf0KWzgaufOSqC/V6NGEpLhXF7oYsRDWiQJHmLeiSgUiIoORKHQ55aUjtAvuAHUSU5XAPQ0iozsROpoxzsx4mUM1lW1oCanSvqqCsnauFGy4Wt1ZGTqvQv9ao+jPj8ienoQ6HHz5i3N4cOIKhaCjByOsZSR2itmDThW2NjYJMc+/EitkypOAXCMnuZsATf8ElP+Ct68RAvf2+/pkaFbN6X5tVdl+OZ1xD0OQU+DYYTm/YUqypVQGZkTVC3qiQzfosGD8ZWJGTD/Qy9zIdIkBY5uJyJNGALmgPk/AQp/EjYN/0KbJxHRMjHK+E2vjPZ4YGVtkWGk0hgfHJQUOM9LPvc5dZwnQU+PtKMtFBnmo55R0KIbxi9yt7t3a1Vy43uzf1OHW7myPOJq5wS4pqZmOXHytFosyeW4MWPXhg3rJRehLgxmXsqFYOM7d/7qLen86ZvibayXcXAELYq1BQQc2mGJiwFJLkY0CcTAtDVrJL2iQtLKyiQRAc0Mcp5ExEqiEwYtgsWRDCskdG2cp/+PLkCyQ74XOaMCL4DYTlikGThNAE4gxnMCdTkLC8UF8HG0X+qg88IlwPmfNTV3pQFMxsQN0zJ5+OB+KS9fYX3zCP6dE+CYKu/0mbMwmXqVy7HzVVVW6LTzQoYPRWgqjaCdi/IWf2+P9J4/L13/8hvpP3lCozi0oQtlzaOljFwMYFJulZVpgcmdg0gSOK8hOjrgH0om9yK3xfchYIx+RnARbIku6NtpGQj/yocTvEADnx2YbWBFu0yTfmIsoLMWRvHeSTCeJMNpvhwAR5dAI5hLLazyLejzfGdyN9op9u/bKyvKSqeJ9IijOQGuFag/h+kKgzCZ0i9HwBHtTATLRqQyVGiJFuo3g9evSe23voWA4zsygY+iYVkLZRhhPQBcImcI5BVK+pYtMOOvVhCwbRwMhpHgabSuVvzNTeBSnNpDsFGvo6GEhi66KMDtUtNV3EzbsFmyEIzrXr9BUktK1CJpiZn3uwPIBbmRuy11DjcEqaW2tg42iybhxGsCjtwtE3aKPXt2Ib1CScS9fE6A6+jolOrLl6Wvt1+G0eEIOFbOGbDM85AOxXyplm7EQXZ/8L70Hf8ABpL+oO403yKkJeYlQgxMysq2jCDQlRPBnSaGhwD6IViuECYWgA4GfZpi4ATEIYqEAr3MCuviF6GixxIESxLESYzYNKbQGOLITJW0dRvFDcskjSQuiI8zFQO4ma4tpXODg0PITlcjTRi4uro8CjimE8mCRMHg5RL4KCMtcwJcF8ze16/flE7M26KfgmbxIoiSVCKZIJN5Kpda0egRvHfbT38invffk7GOdnUaw2Q1v6+K55s4SxUBMwE0fPREiosAix/tCHR3IWQMOiRFTSpk0NfUyf6otpFb8W/o+MagCc1UUpDYNGPbLsndf1CyEPKVhlCvxeewn1+Sm6ezb99AsDlzsfb09CpHZ+xkbm62BnkUPWBAMn8fup8T4Fg5LTdsSG9vrz43H4GvK6Ckb1i/VjIRHLvUykhzs3SdPCmet47K0OWL6PB4x0d16BgQgQaOxBTM4E7HIMaZBADImKcTXI3RK8QXwq9iaBWdHCOnHJGM7fsl7+OflBWf/7y6EWLwKnH3iP7+AY0yoTjJYzIWzg4oKS6UjRs2aHqFSF9qToDr6+OcuHrNbeKBaZyyPBtSXFSIaJPNwjlCS6aAC5C79V04K03fe0V8TU2IKqH5Hx2d+tR8FepIAJtOMiWwTVVoD/Uy4bQbFrYhlu1Ap6LVMwkzyDO2bpfiz3xeMiFeMsRruRX2cyYPomuABhQCjhNOyVjWrl0Ni3xOxCSZE+CI9iaM+FQoO7u61RFIvY1cbveunZK9hABHkWvg5g3xvPu2tL72D9CHqPdEFrAa8deY6Uaa6yEyKpgo+sFMryLjTPfOw7kJ/4i6ALL2HJSS33lOsnftAfgJfIP86UpprGFRQ8sM16fvjK+jHkhvJ0+dVSmOTnACLj8/VxPAci5cNIxlToAbgCO0FeLknTt3pQMpAuh55zSFPDhV98J6kwOz8VIp7EwNr7ws3e+9gxQIdehVQf1oIV4wtPMCdAtatD7odxKQin/7F1L82RfUd3dfIDPu8w/0qzmGhhf2haVivaTqdOIjRBFhlj6jqYytYg18zmWwxmdFoTrNCXCchNrR2QWF8pYCz/gnuE7coYMHoFRGzmoXtBNFWdkYA5KxlkLjK9+WfoRuTQbQ6QmCUCBE+cx4ul0zhPmGpOSlr0rhZ35XMioqNDLlnncA4MYwAPu5IeFRGowuKVGIWvc8axH9oCWWouSHH56UPlij+Vut8UhtvhEBHjQS0oASaZkT4DgJlai/fPkKRMuWKSeo250lRxDykg9OtxRGuSFMtfEgKLn75z9BiNMtOItB4GUCNnYkxopO+r2S/fQnpeATn5L8gwclGbr6PYUdESFQQ3V14kFMKe/JWr/+nlvi8Qe5WSeYyrHjJ+Bvhs6O767+5hVlsg3T0CjFUaqLtMwJcJRnh5HC7fyFizpVhxyOIwDdAU8eOSSFiFrguXgv3e+8LfX/79uImeyG2R2GCuowy6mg000iQiUdxpOcJ56Sss9+ViNbwklAPbfv7Fmpf/k7Uv6HX5b8p54KvyXufnNqDv3NxxEzTAc4+zMBx0xdtFPQZhFNCOOcAMeKGdjJ8K6aYFAnR4QMsFjOhC2CtTKaxiy2r8FZ0KMQjzp/+TNp+Pb/gtqG2NDlBjZ+FAIOFktXxRpxHzwkq176kgZAz/S9PMePS83fflNKXnxR8jGdJxWDrkbgzHRzHJzzYoBta++QU6fOaHCHARyjqZgwi9wtmlkxcwIcuRkBRoWS/jg2hr/TEIe3f98e9cAz3ixeyziiNPoQSdP5619I549fh6MZU1IcSzsge8Zvxek+AJyzdIVk7d0vlX/8x4g+KZrxVs+xY3LnG/8dwDwseU8+KXm7d2sW6BlvjoOTzE5HP/NFrJozAvDRGERGs2ZNlRxAHCUZSjRS3JwAR3oRdB9hxgABZ+RbxlAy1UIZktBQn4vXMgYlufmNN6Tnww+Q+OcKwIaojiUgIkf9PYKA4ywE9559Uvlv/kRnCsz0nB6k/bvzd38rycj87N61W1Z+6Usa3znTvfFwjmto0PXF1Ao+ZLs2fZzT0A5hpkC01tg5A45EY6o8Ao7Ip9nUWrZqo3Dd47y83Hig631tpBuAeUhq//f/lIEL5zAXjE5u6KOxMJZgkOLUF/yDeoNmfg3DWqTJegyHKysX994DUvG1r80YX8nBt+f4Man55jcwK2FUMhFQXfXn/w5z57AcL32JcVgYoN/Q2Kjz4Kg+EWAs6xFJdejA/qjfKCaA47pZd2ruTk3TYST1urVrZBViKouLZxY9om7pAv8BTdwjdXel9ht/LYOYXJqYEsO4UHZgWP0mJ+AoNqBLRlwkrZ+LsQQB56qCDnfgMHS4lzS/SXhTqU543ntXav7rXyMKp1syMOug8q/+o6bdS47CVxX+3Mf5m5OsmbuH8+BoQKH4SJ2N/Zs5KaMtMQEc2S1nwnrgIGSjCDiCjZacaGbDRtv4+bx/qLEBYVznpf2172lOyYSU2Mx8YIyiIyNN3IeelLRVFeJEiBAj+gcw1cfzzjsxj4mMCY2CRpOM7bsl+wislM89h3aH+VjB3cZhte5++zdy52/+s1pzUwHQ4t//suTs2QPfXWVMmrLQD6mtrZO7tfXCNe0pvSUDbBkId1uDjGbbtm2JujkxAVwNuNtdTM7jrFg2yokZxYUFhbJ6daVwBng8lt5z56QdnWfg2HvIkNyNnCBzCONCZzSSo7MwT9LXrZOCTz8n6Ws3iBPhb972NunGJNaW737HChdbbHoip/YEfJL9sWck/xOfnNEPR3HSjwG3619+JXV/9zcaHOAshpEFboTiT35KcvfujcdugDwmt+XO3bs6S0ABB9E4H2pSFayU1OOiLTEBXH19owYxc1asaVRWFkaB1as1oVC0jVoM97f//OfS/E+vYsGNFnAgKMsY2WZbNOUcuARL8e+9KMXPf04neHINN6791n36NDjDr8UD9wMX3phLXbNt48P+TiNNRoel6MWXpOi55yUTqRuYgCi00IUycPu2dL/zG2n9/ssYYLCEWaZbnOWYjPzFL0rxs78TenvcHFNdunW7RjMvs287MBiWIMqkqrJCp6BF+yIxAVw7HIOUdW+B4EwpRjmX5lJO0WEm5ngqHKmpi7S+/k/S9Mp3NHOVcqdZTH1hJyRnSMpwS9rKCsk5cFCy9+2XjA0bNaMxjTC0hDZ+/3uwhB4XX0MdDDMA9izqmk8aW4AbkvKv/6kUff4L4kJ0BRd/DC00MnW+/750v/u29L77a1yygq45paj8q38kZS/+vgZha6qH0D9c5MdnkNHgBtLjsU9wS0ZSpsqKCmHQcvmKsqhbHxPAMcasqakFudevaKoFWnLYcZkyj/64eArvYoKcMfhbWv7xe9L88v+VBJe12GHElKX4CCMDS4ITCnaGS1zlq5Gzfy84GyI0II4Yi52uO4Dlqu5+83/omgOLDWj6EnyfBMAHa82t+tO/kCJwZw6o4d+UPstGZC3zfPCu+JDagQEC7AOTvmEp/9rXZcUffhW0iJKW2oDH84+2He0/dfoMEsDe1HfmOapLnAO3cuUKjaSKtnUxARzDu1qQbZjuAS56YJyDDO4k4PiBjDk12gYu9P3jEB9HMHu67QevYfs+nN1YhohcJ8IyOcZVTH16dxp0tLzfflayt2DGNIwGXIlUOUPQtTDc3Cz9l6ql7dXvIi9KDQB6r5gWYZXzehu5WzIMJKkbNknZ770geYcO3wc2NmB8ZFhu/Zf/pG4BZDZSkJLDT/gGZMWXvyalf/BVDWbW5ZHntcWxeThdXDQAsk+HZlumQZA+ZnK3aKblmFbFBHAUI9tgxTlxEnn0EdDM0Y/yLifn7UG8GR3h0YS/mMY9jn2Aa7fVYLrR0Tek62c/BodDdMkjAMeOpekJIHsm5+ZJCvxVTElAs3jGToT/YNImjSPhpefUKWn7xc9l8OJZzN72QHdbfL4qui/SqlZLAabl5FIchnUuvNCF4sVSXPV//9/UspsIqYCIo+5KDlf4uy9ICUTR9MpKYTaweCgEG2fDcMFRhi2y/1KkpI/54P69UoqgjmiCls07xwRwbAgDPJkUlo1kIeDoFuBaA9mYrsORIR6KZlCurpauX/5Uet7+FYwYGZbDO7TxFLNMoXiFY6YQ4RK+qRsx0/3gk5KLkCZOUZlxnTX8PXWetjePSuM/vKIZv8hJtPBhLEEuaP14TP+inZPjfkSX7JaKP/tLSSvFoo0z5KkZqq9HusBz0vmjH8hIzW3QLAgqcjjMSs95+tNS+Ny/kpwdO2YceB7T2z20Wp0Jg4mnV65eUx+cARzDFhmYz8RBlNyiLTEBHCvtwozvk1grrh8JVzg6kCVzch5Np0yyEi8ZvPwgcjc4T/ev35K+Y+9q57knnEudwBi5J2C5RB6RJHeepK1GwtVNm8SNzYVOybAmTl8h2O6bqAlaUXcbgQje8eY/S9vrrzJrnVr1SEeti1EnYUYJXlvQwvdEUiEnBo3cw0dk1b/+I0lG4qJ7aBFskAcGn+YfvC4jd25KANO1ptK7YyBmaj73wSckF9N6Cg4flhRke46HwtVy2qFa3Lp1Bz649im9lYH5RwA49ulwPTaS94oZ4DgrlnkfPEiNzcSw5HqcnMd0eauQez1eYip98Ll1vA1L23tvy+D5M+g8mOuENHIsFB1pDncWQkTMc0N8zBVnfomk4h1TkUKcIhMjKh71IZgbhXPsek+fwITWj/BkjpRB1gb0BRBG5mtpsowvj4nTqSsD3C33mWcR9f+MFBw5okljSQdTSA9OOO186xfS9N2X4eyG7kqDUTD8SZfAwjMyduyWnKc+LsXPPKPriZu/X8x7rmHPJbW5YE1nMDUek79mIzb4IEK6mEZkNiVmgKOl8irYL6cyMOkKSzbMx6UlxTozNl5mf3Nmd/PRo8ik/KF4b9/AiI7ZAUEz/eSoD+njEE/4W5+QnJ27JBMO7BRMsg03kT/qQwRgBR2uq5NRcFMuRRxaxgHG4VvX1Sc3OQbdcBZiS+jzZncM7sbcKZN+qfr3/0Hyn/ltcWIhkHBuTcskfW+dv3xT2t941TIwheqhKg34hQlm3YeOSNnzz8dNEiIPpmXRHdCGeFrm7qHRjzO7mctkJ5LlRpM4KPQbxAxwgxjpatGJmJ2WaRfYQMq7XGOADWTq83goXNut6Uc/koFTJ8R7F/pICOASwd3cO/fIiq/A4oa8+snQZzQvZJRciJyBQGMolBpcDGGgM/Vfuya9Jz+Snrd+BjvMhPquzOUF2VNvQ/iZE++XtmmbrHjhBXFv22G5MsLecxQTcptee0360F5vPaysXMAk9B4F3JikrlmnYiVT7TGjczwU5ug5f6FamQfnxNElwAiTsrIyWbcOMaXhM94jfKmYAY5iJOPNGOZl0i2QBVN3O7B/n3K6CNv0WG9TwP3whyrq+ZDCXAEXlPaSIUq698BCBfM4dSyuTMOc/knIzR8pl6OO6IeeQ6DxI5pibCVcX64PKQoGz5/FdfRf5qBcqMIKtVJByvOdUvCZz0n29u0zciVaJrmiTv3/+ZauHKR/F95OPIuc0lW5RrL2HZCVX/iCpKLDLvbC78LkWCfhg2O/pgGQKlIxBiE6vLk8FZdjm02JGeA4daGvr1edhMaMygYRdB/DGlrRrDAymxeJ1d9MA+6kKOAoIrHjwIDgqlqLbQ2MJKth+PCpvpa3f792yGRkqoqk9Fy4IL2wglKPsxZFtP6K4hozKw+dgWulod4S6SJ5YCzvwSDA4sjLl8JPPysVf/J1DDgw4BidLKSu/lu3pAecresnbyD8rW1mH2IQcCmrKiUT8+hW/cFLarkNecyiPCS4mpqaYXU/AQOgZT3mOeah5MRTqkmU3mZTYgY4WiU5GjDahEuzGr8bTadMt8DZA/GQbmFGwJGy6DxcMYaZj5M4ix0zv9PWrJWVX/kKxKTSqeiRB30EugEoRrYd/WddbQePwzND7oYoRmlsDAl1rSWvQi+G3DePhxQlk1xO5Wz5Tz2tUf7h1TFvCd+l45e/kPajPxJfc5MwWGAm66UOVFMcbj843BfjgsOxHzdiDtypM5gHiX5NIxj3TN+/eRMWpISba7Z9OWaAIxtmoy5crJbqS1cUcDxHXY4LHqxaGR+WSjWa/PjHWJsbOtydW5ZeYowmeD9BqoFJ/6jm9+CC8zSXc4HDRxWm2huGv6rl9X8UD1I2JDhg/aTzLqws+EKOrB/fiUBypLskFQMjQ7Gytu+Ejno/1+agMYLO2PbDH0jHz47CcjltxQ17FbVYMjUDdbgszKMrpw5XGvnSTvc9b4FO9GK103qs7lt96RL6NFYoQh+mWMmVfbcjUxfXr5+ND47Njxng+DAC7GL1ZeVy/E02zMbSF0e5txis2OgqvL4Yixf541sxevd9eExGrl22dLipYGIaFLhA4aAUv/AlRM5/Vi2V4ZHzM73XCCIx2pH9q+/9d2T4Kp7L3ChkaeFlpnPh98T4N0XbydEhyT7whBTgnXKQGiEF06tmEiUJtib43AbOnUGwdW0YfcIaFmqlhC+O2b4We6p0dGFYJtvgDmjUkC72aRM5xZAuZupin55t+f8AAAD//5J3RpEAAC0YSURBVO2deXBd133ffwAe9n0hSJAECIAA912kSFGSZVmyZFuVXXuaxk4b23VTTyfpNDOdSScziafjJn90Om3HnUk6rZt0GmfiOHbiekls2ZKsneK+7wtAEARAAMS+7/1+zsOhIAggAOK9h/eAd6TL9959D/ee+zvne3777yRMqFkI25Wr1+zKlWvW09trIyMjlpiYaOvXrbWK8g1WVbXREhISQni30F9qsLXV7r32mnW8+br1njpuCSlppocI3mh83Cwp0RIz0qzsq//Kij/9kiVnZ1tCUtJDOwKJuy9dtNvf/lPrv3nTxjq6gteMAlpMjGqMkgOWWlpqRc+9YMWfeslSCwstKU3PPa31NzRY5+lT1vQ337XBhrs2MTRsGtDgMe237qPoNTE8aFmPPW4FH3/OVj//vKWtWjXTL6PmHGN18+Ytq71dZ3cbGo3PgUCSjmTbuWOb7dq5Y1F9TdAFQwq4ujv1dvNWjTU1NtnA4KDmZ6Ll5+dbRcUG271rZ9QDbqi93Vrefdfaf/lz6zrytiWkZjwA1IQWkEBenqVv2mKlv/4lK3zqqXkRf3RgwDqOHbGbf/SHNtrbbwnJ6fP6u7D+iGHnSBi35FVFlv/si7bq6Wcsf9++j9x2QsAZ17Pff/cdu//G69b1zhs2Njik50j9yG+nnpgYGxMo+y3vY5+wohc/Y0WHDlmK5kI0N+Bw7vwFq62ts46ODgMcKSkplpebY5s3b7JN1VWL6n7IAdfc3GKA7lZNjfX19VuSVv9AIGCVFeV2+ImDUQ+44a4uaz992lp/9hPreP0XAlzmB4DT5Mmo2mTFv/Yly39sv2Vt2DAv4neLq7W986Y1/d//PTlRP8o95nWhUP4IMIwMWFpltWWLA5W89LJl6nkC4tjT22hvnw00N1vj975j7W+8ZmMDI8GfzMGhg4Drs8IXX7Liz37B8rZvt+ScnOmXj6rPAO7I+8espva2jY6O2rgWm7S0VFu7dq1trKywstL1i+pvyAHXpQnb2HTPzl+4ZD09PQ5wPET5hjJ76qnDFhAAETOjtY329VnPrVt274fft9Yf/60lpGUJcAF1d8LGB/ssd+8+2/Bvf88yysosJTd3Xo/R8sYb1vqr16zzzddsfHhUnCF5Xn8Xrh85MTIlYMmFRZb35MfEqZ+xXIFhJrBNaNL1ih6tr75qHUfesv5b1y0hoAVjDrDR94mxUZsY7LXVX/h1W/NPvhgEdEZGuB5r0dcFXKNaiN5994jdrrvjmMOYPmeqz9XibGVl6614kSJxyAE3KFHjflubHT123Do7uxzgWClYGQ4/ccjS09Mcx1s0dcJ0gfHhYUOsbPjuX1jDX/65JablfAC4oT7LP3TYqr/xx040SpwPcLTY1P3ld6z1F6/YYF2N2ZiEFOmBS9N0b/4fHbLk4lWW/fjTVvKpT1vBgQMzd0d9H+7stPa337Kab/0XG0dnW8BiCeDGB7tt3W/+S1v3G1+x1IICS5R4Fq0NmwNq0PvicHfq77p5CuCys7OcOlRSssZyF8mhQw44VgmA9s5771lbW8eDVYLO7tu7x8nC6elRoMPMMuroK6MiesNf/B+78+3/IQ73gUgJZyp46mmr/r3ft6Qscb45Jh8i1Zgmac23/rMA9zNN9MmbzoM7zNK9RZ12HGe439I3b7ec/Y/bmudfsPSyDZYivXR6QyoZ10LZ+P2/sbY3ZEC6fCn4kzmeeep1nEgpqaDs679t677yNQvIEDMXzab+faTf98rQ13q/zS5evGTNLa2OWQC4/Pw8e+Lg41ZYWGCpqQ/XW+fqc8gBxw27u3vsyNFj1tp638nBdLqoqMCqq6qcxTJ3nqLYXJ0P1/csGo1//Vd258++LWPBsESjcUvQf+kbN1rBM89a2W9+eUYr3vT+jGoABzRwdX/yX639rV+JW0o/WhKwTegZxiwpM81Siost77CMI48fsrzdeyxphgkE2Aals/VevWJNf/sD6z53RovFiLoua2ziPK3MuoZIJgtoipX91tdt7Zf+WVSrEoxde3uH7A93nMGkXQYT7A9Y1QvFmZ968pAxbxerDoUFcKwUp8+et3v3mmU46TMAlyWOsGZ1sW3Zskmvq6fPzaj7fO9n/2B3v/c9G7p728a7ZcZXK3z587bquU9a4cGDmkhz62ED9+5Zx7lz1vKDv7LuM6cFuMylARzcarDHMjZvsaLP/poVqf9Z5RWz9oUF5/6bb1rd//qfNtLSZGP9WFbRY+cJNv0S3S8xI91S15fb+i9+0dZ85iVIGNXtnhaZq1ev2z0Z/pjDAA4LZbHE74OP77ecGQxKC32gsABuYGDQbspKeUfWyiYZUFglUjRB0zUA+x/b5wwoC+1opH/ffvKE3fvlL6z73bdsuKlBelyClXz16wLcC5azadMDy+XD+tVbW2stb79tHa/93PqvXQ2a0SPF4QQyxGMbH7NE+ZDynv6Y9M9DlrN7n/OFBbQAztTgyi2vvWrtcgF0nzrh3AE2Lm41X842edGJEemJhUWWI4PMmhdetIL9s+iJM3Viic4xX0+dOeuYxBD6qhri5DpZKHds32aZmYs3+IQFcMNSPltaWuRArLHrN24+YM08AK6B6qqN7hyfo7X11tVZ56mTdk/Gk74bV6XsJ8k6+e+t6JOftnSJZfPRRbqvXbOmV16x7iPv2ODtGln3xBUjATiAJutIgsRF/F5p60pt9cv/2LL37FXfZ3A8T4Jz6P59Pet1a/jB96330gUbk5XZWWgXCDbGdGJowNLlZljzG1+xvAW4UJZqPiCF3bpVa+/L2Of0V9GQc+vXr7MKPUd5eZncA4t354QFcHS0V76bq9eu25mz5yxZ3I2HwFr5xMEDijipsgxxu2iOOhmVGNV/u9Zu/advSoc5JcClWtUf/JGtev5TFmClmwdwui5ftoaf/tR6Tx61oTt1EQPcxPCA+jdhqRuqrejZ52yNfGwpWqmTZN6eKSoGTjgmQ1GrOFvTD/9OYnSdjcmH6iyS83jOmUAyPtRr2Vu32cbf/w+WUV5hgSh2BzA3+/sHFLBx094/esLNV56Jebx1y2bn7C6QHpfsxOqZnnb+58ICOB5gZGRU8vBVO35SuossWx5wsGYciKsU3YCMHK0NIwOGg5r//t+s88T7NiEAVn3jP1rR8y9aANP2PNSZrkuX7O6PfmR9Z07YUL38OuHkcAKNs0LKFJq+odwyt2yznF17LXvbDsuulgis8KSZuDJAG7zXJKPOW9Zx8rizRo4PDUoU1cg8AmcjegUAJ2VlWO6+A1b5u//O0qSzzwT0aBl7gNXW1u6CNfAfE6hBg0GgAgE6nN+LNZhwzbAAjgvTrl2/YadOn3ExlaOjimzQYJSKRcOeKysqHqwkwV9H378jcuLXy3DSIT1uQA7fqm98U4B7wQLzMJjwNA843AlxuPowcDjR0/nVJsbFgZMtMTXFAlnplnvwSct/+llFduyw5FkswlhescD2ayHoPntG8ZHfs8HGBoFlLChGPiJnU2iG8/NlyPWQL/2tVAaT2foQLSOO/81ZJ2/fsduKofTWSebroccP2LZtW0LW1bACDufhlStX5Qhvt0GtpIiQKKHIxbt2bF+0TyNkVJjlQqz+nRcuWMsrf2/3//7vrPoP/1iAk0ip1W4+IqWLWHldsYe/etUGbipCI3V+ERqzdOcjp+HCNia3xeigpVVts+zdj1nxMx+z9NIySy4odGLcbJxlVCLjgAxazT/5obX/6pc2It8pIFyMGEkHcR+MD/VY8Re+pEDof2R5O3fOy4XykYeL4ImhoSG7cPGy1d+9q/jJTjdP4XIZEoP37NphGzdWhqw3YQXcfTkRg3GVtfLNdbuVA31u7doSO3jgMfdA0azHMaGJOmn+6Y+sXpH+VX/wTWelTFK0zHwAR/whYuW9v/6OdZ8+IbeALIOPyjn8kE+Kjsh8gfxCS12zxjIUNpexcZNlbtoqvWmrJWfKKS8RcrZG1H/fjWsyCp2w7pOnrL/mpvqVqP8X4Geb6eL0TdyWvm341//Gij/zsosumQ30M10i0ufgYljVjx0/YQ0KuIfb4RYBbKtlYNq8qdrWKdslVC2sgMNw0irL17nz5+UEb3sQKrNaVr4n5UjMll8jeVJeDtUDheM6LT//B6v9k29Z+e/8rhU8/XFLzpqfPw3Dy5AcqHV/+i0X9Cu/QBBwCwEdYuOUliC9SthQ2lCiZVTvsJzHDmoReM7SiookTs5s6nd/rusQtkbmQtvR9xVM/ZZ1vvGKuJqulbx46xv3mJCImihLXnJhsVX89u/IwPTJKT2PzrdBA1+vvfPu+/K/NTumwLlcZQdgTS9VSCKO71C1sAKO1aKnp9dFneAERzbmYRArMZ7gAOfBor31yLx//8i7lrmxWhY3GSTWr5/RADH9OeCQpLU0/vj/2f3Xf2l9F85KR2KCzzM8yHOzsRFsEdLR0i1jy1bLkm6Wq9ys1OISS1lVbCmaEESMzMpJ9MdjAluvjFjNr79m/ZfP24Ac+mPdskS6cJAQxHY6QPdZRkWVFX7qs1b09NMy1lRPJ0nUfSajpU2xv/jfMJz4OVq8qtD27tljBQrnIng5VC2sgIM1o7sdPXbCJfMBNs5liUNsKCu1Ck3e1Yo+ifZGys5AU5ORSRDIzLQcTaRZJ/cMD4PxpOvMKes8Kn9cfYMNK4RoYnhILAHxa4YmDpiQGLAkBc0GcnJldMixgIwfyRIh0wX6LDnes6qqnY42V8QLfUYs7r9y2TplHGk/fsxGW5sUeTIgsXN+ovEMPfzwKVYDHQnyVeYeOGSlX/0tS9eiNN9sig9fLLKfUHvu1NfbDfmMp2a3rC0psScOHZCzO/OB1TIUPQsr4OggTvCzCvPCgMID0QgAzc/LdebWcmWCx0LD1N0tDsHEytmyZUGA4/mY9B0SrdvEYbqOvifucl8GhmA0A5ZG1yZdDYAtIZCuRNetlrljl+Xs3CX9TNxVWdko8/PSe9VP+uyytBVedu+737G+64p24e+TJNouIAh5snezv8jYgu6WuqHSij7xnJV/7WvzCn2b/YKR+war5GVVKGjT+GA8gcNB41ItGE888bil4gIKYQs74PBlkMxHflG9QMdkwZ9B2jrZA9u2bgnh44TxUprAg+J0AC5V0fXzmvRTujOuwRzS3w8rvnKktUXxiX3KSugXpxl0GQUYU5Jk/UQ0TJLomKjXQK6c1XC4vHzlqmUFHddwPx0Pa2PS0wZ1j45jx6xHESMDt67ZkCySo73iavjW+Ps5rvGw60//Dt0tIWHM1nzxy7bqE89bzg5l9ocS0NNvGMLPl2VFPy1xEr8x0hetWPrwhg2ltlVzEyNfKFvYAcdDEIUN6M7LxJ6Axq+GePnYvj22XboccZahcCqGkjAzXYs+01gFF9PgPOPDIwKawKb8QcAIADzgEuU+SJJfbSGgwNoG0IakjwzK54cVsv3oMVkgb9hoW4v0xpmjTBbzHCw++O0CcnKnyvJc9i++brlK+8FKupC+L6oPj/jHzEukr4uXLtvp02cfjCljjGWyoqJcMZQlD84/4m0+8mdhBxx3hMvdqqm1t995zwGLFZpzZA5slj5SICNKqFeSjzxptJ1gstInvbqD96LLA+61QA7EROlvbLT7Cpbuekf5a+dP67paGEip4VoLvB7dmbOxcMjnlr13v6363D+1gsfk6pHuE5Z7zdmZhf0Ag167fG7XFH5ICCKLKIsW8/KQwg83VlY6W8OD8VjY5Wf9dUQAx4MQiX30+EkblrEA9s25kjWrlbZeapUK9cqI4qTUWam3xF9AQ9wO/cpK6Ll43vquXbVBOW+HmmXg6eyQnkY41yTgQtzXCUUOIZ6mrF9rhSoStOZzn3fVvqI5ZnIqCfolDdTU1DpVh4wWAAe4OAiwp8oclbpCvU5FBHA8KD4OvPntUk4xxfJgWIBwLu7ZLcNAjsrNhfrpplJ4ObwXwMZVtgDRkcI+Iyp/MCDxsfPiReuRb416I7SEQIpEyNDqHh8in/pBC2jMXEWuZz5uRYcPf+gn0fyBhYok6bPnlLOpeYnrirmHMQ8XwP79+1wIYjieIWKA65TBAC5Xo9X4/v2gv4MHQpw8fPiQXvNDLi+Hg2BLeU38esM93danMoSd585a7/GjNlBX6yL9SficoF4KTRJkyJdmd2H9o8lK+FagoEgB0lut7J9/2bJktcVdEisN8ZuM7iNHjjqxEgCi0+XJ9UIUFKXwiooKw/I4EQMc/jhWEhyMd+82OHDxkGSC792zy4mXRJ7EYhtR2BoRHNQGoUhOqDg1ICJaheK0Q/IDDjU1SlxstEG9DjY1u4DoUSynas7UH+biRF6MTNI45apEQ5E4W570tpT80EViRGL8mYdwtjNnzrmCxRjs0N0IxNi+basyvIvcvAxHXyIGOL+KUPMPA4r/TFIf8jJl9FhdYrERMzkkUOCcplAOzmh/OPM4JnKJLNOBCA1c08ID93KRKXAqHVguKW0w3N5m3ddvWI+K+PRfvWzDjXXuu4QAkSX402BnYW70k67K14YzPkP+wTUvf85Wv/himG8cnsujsxHjW6N5SJUuAAfXYw4+fmC/qywXLiNexAAH6ZhgFy5eUpGW285VMK7POBnhcphid2zfGh4Kh/mqowIHuXMkcI7IuY/fLEvRKGkKLKbwaaIMQpQOZ2A96ODubtHRQI8P9NtIV7eLQBlqaZbho976lSk/2n7Pxro6xT0FPnFQQDgxaXByQHZYiwDgWAxUNDZ5XZllK8durcCWqSRiQspisVGO/7oWsS7pcXA2xoV5SJ7mgf2PSfr6YJxC/XwRBRydx/mNd5+aJ2OKUPA+LRzgiJY8OASIpQZwECvb3z9ivVpMsBwmJWkxIT9Nme2J6XJaAzr2KcAwpN+PM4kVaTIuqy0Jn6TLjGgCALyRtvs2pMj1sZ5OfScDk8nSCE2c1THILSNFH/S1xLQUlUMvtlwFSucflL6tOpaBrNgT/1nkANi58xcN0PGZg/mGzlZZXh7S3LeZxijigMM6BOhOnDr9YHXBJ7JJHAHAUaglXOx8JgKE+lynwreaXv2F9bz3hg3ekeisZ0P8S0zJUBUrGRYAjorycJ66++OqEzlByL5gRVBAUBfDyriwKlmhfg4nQyJJjg3Jqb3Wsp981ko++aLl7doV+ltF6IrMMyzkZxRqeP3GDTfPWCxZ5Lds3uSiS8JdUS7igGOFQYY+duKUq46E7MyxRik7FRXl7qFj1XjCvAkGOjda9/mzClY+YuzC4zgTpnrVRXEiJROZwGViEMd9dVj+elLPIxonEroZt/xIwwqpBWCcDAVldsjHlnfwCZVr2GPpJWtjIiD5I480eYJY3rq6eqfS3FORK+/sphQeZfCoRhDuIsURBxzPTqDoebF1qtz6gGYS/oqUCoFPDvbudZ3ZiBfN5zF+EPXRffastWs/gUFtezTU1mpjKkFHW1BB1Ug9KFzXcVqFrsnEn6Itq9LWlVjhsyoLuGefZYjLLSRDIlLdnu994GSk38DdKMXfL4MUDWkqR4agg4ougbuFe94tCeAossneW7fY1kp5cl5no1DLU4efcNZK2HwsN2cQkZED3azxJz+2NgFv4Mo5cTSlsSSp5DfPhz4XDU2TMejHUxkMMdf06p0C2vO29vNfcBXKCKQO90QMNxnQ1RqlF7/97hGXMsb9OIfvjTL82BDI0wx3WxLABWXpPnn6LygP6dYD1k4Zsp2qdVKmNBTquMd6I0gZbtd3+7YrY9CrgOJeKev9NbdstOM+EdwSHRU+RDB0pMEHyLi/REcNgMo1FFlG5UY5sTcr126T3ldZZkWF65uziMb4YBDhRIoYVbmYfywgqDJsMoP+RnXlcIuTkHBJAMfqz0HNykuXr7oH99YifHGV8stVV1fF+BB/uPskgvbLed2tCBGOofoaV7hnrH/QxiXesHEGzXESwBdqAIreIrqjO/dJFIdNlBifpN1ck5WbmFpaqarMe9xBAHIsRY7wPHO1Gzdvuj0D2EqNuQadmYOAjY1Cka68xXyuay3m+yUBnO8w3O3GDe09pronU/0hVVWVbrcS/7vl8Oq4nUCFLw1f3YCCjMkE7z5/zvrPq5Rge6seUxMBZ7YOJ3LKiBKaFhQZjVINOgQ3VfVaZRnyqeXs2m2527a5DG22T3bio8C4HLjaVNpRdYCdeeFuNNQYgi62bpb/V1KVsxCHitxTbzzt/ZICjvR2XASXJWYNyLHLCsPqg7Vo797drshQmvSH5dbQl4alxw5p0wjCtQYbFeEvh/ewFp4RiT7Dogu+uPGBPnG+Qff4StvVK4ea44CT74NnPvgX6yeHQkP4j+xxaqHgR0tR8d0U1ftP1aaCqcWrLbVknY61lqoyFykKPgiC/INLLYd3g1rgMMwRxlWvkEKAxhwjUJl5VlFRvuhdTRdCpyUFHCntbGl1XC6CLjmOacjV6G8+3CtP8YnLvcHdKcEwqHCjPpVXH1BQwGBtUM8bH+iedJILPgQnIxrS8OdNb5NiIxuPBCstC6ZpEhuz8iyterOiQ6otU3pahkR2tzniTNeYfs0Y/8xehRR5JQGaBd67Aqirg0W8RNFAZKpEqi0p4FhpcIRTRq+5RRtJSM9BrsYvkp2dqYzwfW4/uUgRY6nuwzOjw41PZn+PqcCPK70g3W6sr9ftQgogh5Uw6aJTtLPLmMoaTG/kviWJdmzgkaJFK1kTKUVlGihElJimSBdFu7hscukrcxUfmn7tWP2MZfK0uFu3uJwvRgyXy9dCfuiQNlksiGyWypICjkFElKxTvZNalZlukO8KYqDQ8rpPYiUBpcRaOmNCrI76I/bbgVBSABkD6H348VyAs/QQb2SZemlHN/mV2J2V/bpJBg2oaG2SwLbSGosYgcnMrVMqoYAUwQLPeaQmyieQGcB2wpFsSw44CIFfjmIuJKh6/xvEqara6ERLZO1IWJAiSfj4vcJLAeZPS0urEyUvXb7yYCFnvhGkzNxig9DFbiG80KdYcsCx4kCEq9duqKDLJZVgUHEd/ENqyNb45IixjOX4yoUOSvz3i6cA1kiClKk5iR5HQwIAiHt273QVuTDIIUlFsi054PzDkpR6Xb6SZlnuqPUOcTjWqO7Jgcf2WZZYf6hrBPp7x1+XFwWGqDLd0+sC5Kn4zaLOwaKdq0UcUXLjxsoleeioARxiJSIA0SfEWiJawvkItyFXbr3EShTdeItTYC4KdKjWCws426WxG46fS7nKTdwsvxtFXgtkLFmKFjWAo5IXoDt5+rTjcr6yV4rqM7KZ+c6dO5w+txREit8ztihQq3zLCxcuOsskKoqXltgElA0W81Q6PtK6m6dg1ACODuGXIzGQYkNkEnhCIQ7gM9lULR+SLG+Rlrs9seKv0U0B9DOyAK4reomKXMwfL07miLutV0m/vZpHodir+1EpEVWAw1iCCEAIDgRDFABcEBIxgJ1TcRMs1er0qESO/11kKMCCTUl9OFy9Ipi8k5t5hc5WWbFBft11S2qAiyrAsRoNyalLCYbTCmweVXq/36qYGpYUjoXT4TuJc7nITOJYuQugohqXrzXpa58yTzjYybS8otyyNI+Wcu5EFeD84JIjd0U71bCJI9EniAZwuTxFtWOxLCpSKolqhcRbnAKeAswTjG44uamB6rkb4iPGkt1yBaxft9b/fMleoxJwyOGIlmTnNmm3GURLAIcouW7tGjkuK12J9CWjWvzGUUcB9H5UkUbqd0pKgoth5abG5FYVqiWbO5Ixk7MRKCoBh3gA0dhtp+7O3QcxlpQvS9POMpvkJti8qcopv/EIlNmGdmWcp/IbuhsuADbmGGRHIp1DKsLv5jJPFDiBsS0agieiEnBMFfQ5IrzR5yjayWcaq1ZlRblLHMTMu5QWJ9eh+D9LSgHARq0SNlW8pSwLpCHfiorIOil3VQQAYDS0qAUcxEEuJy3+5KkzDmicQ7QkmLlYYMOAEok6FNw33qKTAji5zylYAv2tR35cREnmCADbt2e3qsCVOd0/Drh5jB9cDUKeO0/0ibZlkm4HQSEeVsvdcoZTACbSEd/z6Hr8JxGgQLdyKCmZQDVvrJLMFw50ffQ1fG6EBk7lehHo1kNvEdUcjp4TfYLVEhnd7+MFUSFiqQrABBNVNwiED33O+JfLjALMgVu3aqV21Lp5MSq9n4UY7sYWaBUVwUxuHN7R1KIecOhsBDNflpuAPQkwpmBUgbipKiVeqcpSu3Zud6ta3IASTVMrfH0hE6C/f8BtF4yTm88AkDmBBFRZWW67duxwrqNoMJRMpUTUA853FuNJjY4G1bOEwDSAh8iwRdsWrylZbdnS7eJt+VOAKgF3Gxrs5s1bqhTQ+iBXkgW3UBuMUISKalzR2GIGcKTHk2rx/tHj1iddznMzREt2raRU9boocGxG4yAvtz6x6LJ9NTo9EhCNVyzWGEqImcxVgddobDEDOGTzLu0sQ3AzuhzWKW9AAXxuMwbtF05BT0SLeFt+FEBsxIiGm+iqfG5IOJzjQLrBTUQFZVJvok2U9KMRM4Cjw/hcqGF582aNC1D1xOY7fC5lpWUCXrUrQuQ5IN/FW+xTAHANK7GUygB36u+4bat5Ku8GwIC2Ufr8WkUiRaKC8qNSNKYAB8AQHa5rs0JWOIJVGYggR5uQdWq1i5nDN4eYGW/LhwKoEYT74XNr1uaXGnQ37ow9i+uO7duUya29xqViAMJobTEFOE9Edj8ho5eqzTg7ITrAY2+5YhU53aSwL+oNMhBx8dJTLTZfWWQZW9SIa1poWyVSeh0eNYOQLfYHqKgot7XyyUZ7i0nAMQD4506cPK3N0VucqAGwGBwGgQiUalmq2Gcumle7aJ8c0dA/4iKpnExZfFJv/CLKWCeJkxUWFdp+1S9FqsFNFO0tJgEHsZHn2fKKeMuamtoHogTfFYj465Wwyp7h8VjLaJ+CD+8ftSXZSxA3AEYzFlYWVRZd6txskKGM4AfGORYW15gEHEME0XsVa8mOltev35CY0Sf/XHCDdFZBCg5t2RLchoh8qHiLPQpQ/r5FEgxBDx0dXQ8skgALbrZZ/leqADC+jHkstJgFnCcu9eKDafW33QoI4QFjilIz8mUe3qJUnoqKcrf6xfU5T7XofkVKYQyJLLqqxbRDcbTDCnYAaJzPUMl23D8sqOu0M2sstZgHHKFe6HMXL11WqfQmVzqdAWBwAJ9TqCVyrFYCInuAxVv0U2BQeyxgiSRsi2wRxEdAyILJuFIxmT3dcG6nq5R7LLWYBxzEZkAYHDgdmb++cZ6yDICtemOlU6zjOp2nTnS+ElFEUAO+VgxinXo/VVxcXVyslJtSZXFv/tD56Hyaj/ZqWQCOxwJcAO69I0fde/+owZCfVDdAZUSiyG0Qb9FLgZbWVi2ad52fFfB5sCFKwuUOP3HQJSCTghOLKsKyARyDQX4Ug1WrPbWpa+llfl7JmSvfoK2M5S6IlnT76J32ke8ZAekYweBs7OfW26vNKAUyQMViSlAyC2a5uBu733ggRr6ni7vjsgEcZICbEf51WfuGw+0YQIDovyuRaFm5kfCfEhd7F02Jia6TK/QfAEXUEPparTakbG5u/VDSaLpM/oANN096eoZC97Qtc4y2ZQU4wMVBjQsGj0xgQMhqyHk4HUr2LmWKUzINx3i8LT0F2CMQnyqlNBAjGSvP2Riz6qqNrgAw2SCcj0VR0lN5WQHOPxRWrnZtCMJuPESX4zD1IggDuErRCaXaBouBZLX03/m/j79GhgJwNmr/k7WNKnBPlknARkOcpIwGkf+UuF8l3ZsirrHeliXgGBQiFNg//ObNW47bMYA0Vke4Homr1ERxgc5LXI3XdWyF/QOwKBLVroDk8xcuulxHL4mQXJWghZF4WBzbSCOAbzm0ZQs4AIYijmh5Wy4D6qIQDuYHNTkQsDTES6Xil5Wtd6FBsSyqxNJkBGyMTb0C0Nk0kURSxgb6w/XIZaMqW0VFuUK3yixFUSXETS6HtmwB5wenS2WvScOvqal1qyn6ggcWA8/quX79OlcwlDyqaE1c9M8T668shICrXgshiyEHjbHgSElJ0XZSudp8Q8YtRf9jkVxObdkDjsECZDU1t61O289SpoHmQceKisl5547t0hMKnSElIYFSfO5n8X9CSAEAhVEEnfrU6TPWIpHfNw+4VUokXr9uvTZO3OTSrfz3y+V1RQAOUFHliRy6WzW1CoTtMLal9eIl7gEU8kpVe0KEwWcXdxmEdooDKMRIyiNcU9Y2PlPGgAbXCwSS5B/NlIGk0vlLKfa7HI1ZKwJwfuqQMdzQ2OjEGN6z2npOx6ATNkQBGvx0Odk5MRen558z2l7J4kBPa2lpkZRx14mT9NFzNRY3diVdJ9F+g6zH1CZZrm1FAY5BZJUlU7y2Llhyj1UUVwEtGAaW5uqi+DAwD0j3g/g/j0QBnNoEI7MbUreSST29WeSQPrAUQ28Sh1Olwy3ntuIAxyCTQUxgLNEobQoBI2WfVZbvACAmaCLS14nTrZFpOr4X3aNBgKifzs4uZ41slGTRKd2NRY1FDFpDcwxV+NnY4RbgeTA+2h2j/69WHOD8kFBMFEcrOsV9Ke/47Xxj1aVENg5yVl5e+Rzndp5Cc7+iMxPpT6Y2aVPkLU7VychXzJUYWayFrUr7/RUWFsx90WXwixULOPQHgMUGfnC6G9dvGjEOflLwPastm0JslDFlx/bt7nMcdPOb9USO3JbYjg90RFzNcy5oTkNfxqlN1jYGE//9/K4eu79asYDzQ0aAMxnFGFOamprlq+twgw/gaEwG/ELk1OGzI9SInLo48DwFP3iFZlgfiYvE/dKm8Dqi/jnvxUgXrpWf74IN2JUUMXIltRUPOAYbRyyKPVvWImIOym83Jh2DiYKuwWRB3yD2kgDaAk0YQJec/MHmfytp0kx/Vmg0Oorrpc+JjzcUw9rd3esyN7zEAA0JKoCzEdlDaYSsrOURrjWdHg/7HAecqAOwEHUAHXuKk96DNY2JhKjjuRmTJ1/crkw5WSj5cLt4M+deQSemDD16MfobNKVBOwwlRJDg5ywT3ZAWCBpfKWLk1DkSB9wUauAvovpXQ0OTxMsmFxIG9/PAA5SYrRExV6mIDdnj+IxI+YEDrrQGkNoljhMkTgl6srW9CAktABsHZQuL8XFKOsiXdLASOZufG3HAeUpMe8WQwibtRLNPzdHyYiYp/ljWNqsqGKFhuA4CAVbt5R0T5p8fQ0i/dh2lLujdu6TWtDiREa7luVtSUqJE73RXT6ayssIBbSUuTFOnVhxwU6kx5T2bQHb3aEtbmbQJCWNrWyaLn1C8+owDOB3RKQTbRvNGElMe75HfIgVQJQ1zP8YRfJosSJyHm3lAwvWLCgtd2fnggpQp+sVLz8cB95CphwiJ1bL5XovT7TrkxCVECRHTN97jo8OQQkpJgbgelcLSxAGXy2oOiKAFei0hcWTUk9gLbRAraYANWmAYYY+HVUVFLuewVOFaSAMrUV/zc2TqaxxwU6kxy3v0ODZtJ1GSVd3HYDLJaEw0JiVGFayYiJkYVChWlKjf+N/NcvmoPs2zASqiRmqVmX1bla6J8ud5py8oExPjrlYkAeDlqgVatEKc2QsZwDjg5kEtP+m6ZImj9DY5XB2dHc4aN3XlBlhwNlZ4jANUB8b8TQHa6ZNzHrdd0p940RB/GvmErRhE5LPEAkk8Ks1zNWgAFyvfUCYLZLHj9iw2sbC5RqSJHAfcAimOWMWWt1jkcJhjlcOAwAT1E5D3vh4HZQJI92GHToCIedz7phZ467D/nH4jOgKq/oF+92wADgsk1kj/jL4jAI2KWll6PvZyYFMNDEmAL95mpkAccDPTZdazTDoOjAUYUq5cva6Eyi4ndgGkqeKjn8BMxtVriq2yvNxFVrD6R2MDbBRgqpfVsb4eo0jDA33Vc3KeCY7PweJRpnQaQrSIOUV89r+LxueLhj7FAfeIo4BYhQEFtwEbROKLwpiAvkfzwGNiIlphvcxUgiWxmQTtEtZEkuVS73cAyMiIJ7iYEuNE92OFJIMCvdU/i+fevPIsGIgQHwnNIncQLh5vc1MgDri5aTTnL7DWsUMnLgQiLoJm8hEXHsYE5fDcjpCwXIEumI6S7yYqURdwCw5+G+7GosCBKX9gcMD1mf6zcFD+gEY/4Fb027+nf5kZ6r84Nv0nfQmrZJyrzX/E4oCbP61m/SVcgsk7NDTozOV3JI4RIkYZOCajFzWZvHx2E1gTOk2cAi63tqTY7U9O1Ir/ftabheALTPrNyr6Gq3VKHO6THsozjKt/9JHmgY+Fkv4jBrP5IVZY5/YgllR+Sf+7EHRrRVwiDrgQDjPiI0YU8sCwYra3y2eliPlgGbgRNzn9BGViM5HhGtkypmQKeIQ8YWzBwJItLpiWmqbvgxzE/91Cuss9EH3Ry3p6e6xH3BdLIzGjvCJK8h3cjuv7g+cA+PQN/2J+fq44cbZcHQWOO8Ol+T7eFk6BOOAWTrM5/8JPdHQ6ttFqk6jWIyCOjkrM1J7V07kIE5yD84Xy3+E8x3GMQx3LJi6FQFJAAE3URE+afP0gqJoOjY97Y8aY7jOm+4y6ewGqHulkcLX7sjayyQkNcAF4mu8PIPIHoGIBwNRfoqK58QRcR6pF/xMH3KJJOPMFPOjQ5wgTwyCBjoc7AT3JT2xe/YTnSg5cCoFKAlh6JTMacY4JnyMuk5Wd6cTQTJ0DMPw9DU4FuMhH88YPDB9BXW3EcbogEIMJoPwNoPNg55X7UMynpKTEmfcRHVNTUh2XjTU/Is8XjS0OuAiMCnpQv8DQLo6HzgTgsARyDp8X+pMHHSCgAQAaoHJWTgUBUykazoNlE/8XBgt+/4EOGQQdumOfrkt0iNPNdC1/XXfRyX8AK9fDEIJIm52V7Yw4xD5idVzucaFTaRGp93HARYrSk/cBSHA9uB1+PIwXcEAfk8jPZgKH50QA0x+Ahd8CLM7xnsNzz+mP5kHNeac/CrA4qnFRlCoplNqcgDjewkeBOODCR9tZrwzXoWgRQHFZCeJ4cD4K1FLZCtHQg8ODx3/2r1yc7wAY1/ONzzRePUj9ZzgWIiNhZ/gCEVEBLbX72ah+qojqLhL/J+QUiAMu5CRd2AUBBQ5mIlcAHToYlk7AOCIjy8jwaPBVboeHcUEPRF4BTkBHsqyMJMxi6STcCiMIuiAJtFgdMcgA2niLHAXigIscree8kwcNBhDnWlAUS7uMLe2ychLDOT3yY+oF+VsOABwEV5aL1i8qKnQWTzbF8FEtngtO/fv4+8hQIA64yNB5QXdBRPTRIEPasBBu5z7rdWho2BlbEDspdAR4cEDjM8O4Ath4zwHA8OVxns9wvnhbWgokaCAn4ory0g7CfO4O93K636Rls7evV58nASdDh7dcoqdhwo+LivOhauR/8/8BEdXsT+10DEEAAAAASUVORK5CYII=;" parent="VzEyl7pLeXNEImk8ZBch-118" vertex="1">
          <mxGeometry x="50.00323529411753" width="20.56" height="20" as="geometry" />
        </mxCell>
        <mxCell id="VzEyl7pLeXNEImk8ZBch-121" style="edgeStyle=orthogonalEdgeStyle;rounded=0;orthogonalLoop=1;jettySize=auto;html=1;entryX=1;entryY=0.5;entryDx=0;entryDy=0;endArrow=none;startFill=0;" parent="1" source="VzEyl7pLeXNEImk8ZBch-119" target="VzEyl7pLeXNEImk8ZBch-104" edge="1">
          <mxGeometry relative="1" as="geometry">
            <Array as="points">
              <mxPoint x="760" y="1070" />
            </Array>
          </mxGeometry>
        </mxCell>
        <mxCell id="VzEyl7pLeXNEImk8ZBch-127" style="edgeStyle=orthogonalEdgeStyle;rounded=0;orthogonalLoop=1;jettySize=auto;html=1;endArrow=none;startFill=0;" parent="1" source="VzEyl7pLeXNEImk8ZBch-125" target="VzEyl7pLeXNEImk8ZBch-104" edge="1">
          <mxGeometry relative="1" as="geometry">
            <Array as="points">
              <mxPoint x="370" y="1069" />
            </Array>
          </mxGeometry>
        </mxCell>
        <mxCell id="VzEyl7pLeXNEImk8ZBch-125" value="OT-KALI" style="sketch=0;pointerEvents=1;shadow=0;dashed=0;html=1;strokeColor=none;fillColor=#505050;labelPosition=center;verticalLabelPosition=bottom;verticalAlign=top;outlineConnect=0;align=center;shape=mxgraph.office.servers.server_generic;" parent="1" vertex="1">
          <mxGeometry x="360.00000000000017" y="1001.7" width="20" height="39" as="geometry" />
        </mxCell>
        <mxCell id="VzEyl7pLeXNEImk8ZBch-128" value="IDMZ" style="rounded=0;whiteSpace=wrap;html=1;rotation=-90;fontStyle=1;fillColor=#FFF0CC;strokeColor=#F1C40F;" parent="1" vertex="1">
          <mxGeometry x="970.07" y="846.88" width="172.88" height="29.89" as="geometry" />
        </mxCell>
        <mxCell id="VzEyl7pLeXNEImk8ZBch-129" value="MANAGEMENT" style="rounded=0;whiteSpace=wrap;html=1;rotation=-90;fontStyle=1;fillColor=#F0F8FF;strokeColor=#2980B9;" parent="1" vertex="1">
          <mxGeometry x="972.27" y="1017.93" width="168.49" height="29.89" as="geometry" />
        </mxCell>
        <mxCell id="VzEyl7pLeXNEImk8ZBch-136" style="edgeStyle=orthogonalEdgeStyle;rounded=0;orthogonalLoop=1;jettySize=auto;html=1;entryX=0.5;entryY=1;entryDx=0;entryDy=0;startArrow=none;startFill=0;endArrow=none;" parent="1" source="VzEyl7pLeXNEImk8ZBch-147" target="VzEyl7pLeXNEImk8ZBch-104" edge="1">
          <mxGeometry relative="1" as="geometry" />
        </mxCell>
        <mxCell id="VzEyl7pLeXNEImk8ZBch-131" value="HMI" style="verticalLabelPosition=bottom;sketch=0;aspect=fixed;html=1;verticalAlign=top;strokeColor=none;align=center;outlineConnect=0;shape=mxgraph.citrix.tablet_1;" parent="1" vertex="1">
          <mxGeometry x="546.93" y="1175.21" width="32.43" height="42" as="geometry" />
        </mxCell>
        <mxCell id="VzEyl7pLeXNEImk8ZBch-138" style="edgeStyle=orthogonalEdgeStyle;rounded=0;orthogonalLoop=1;jettySize=auto;html=1;endArrow=none;startFill=0;" parent="1" source="VzEyl7pLeXNEImk8ZBch-145" target="VzEyl7pLeXNEImk8ZBch-104" edge="1">
          <mxGeometry relative="1" as="geometry" />
        </mxCell>
        <mxCell id="VzEyl7pLeXNEImk8ZBch-132" value="SCADA" style="verticalLabelPosition=bottom;sketch=0;aspect=fixed;html=1;verticalAlign=top;strokeColor=none;align=center;outlineConnect=0;shape=mxgraph.citrix.tablet_1;" parent="1" vertex="1">
          <mxGeometry x="771.0699999999998" y="1173.53" width="32.43" height="42" as="geometry" />
        </mxCell>
        <mxCell id="VzEyl7pLeXNEImk8ZBch-140" value="LEVEL 2 - SUPERVISORY CONTROL" style="text;html=1;align=left;verticalAlign=middle;whiteSpace=wrap;rounded=0;fontStyle=1" parent="1" vertex="1">
          <mxGeometry x="341.03000000000003" y="1130" width="249.03" height="30" as="geometry" />
        </mxCell>
        <mxCell id="VzEyl7pLeXNEImk8ZBch-141" value="SCADA" style="rounded=0;whiteSpace=wrap;html=1;rotation=-90;fontStyle=1;fillColor=#FFF5F5;strokeColor=#C0392B;" parent="1" vertex="1">
          <mxGeometry x="984.91" y="1174.44" width="143.75" height="29.89" as="geometry" />
        </mxCell>
        <mxCell id="VzEyl7pLeXNEImk8ZBch-150" style="edgeStyle=orthogonalEdgeStyle;rounded=0;orthogonalLoop=1;jettySize=auto;html=1;entryX=0.5;entryY=1;entryDx=0;entryDy=0;endArrow=none;startFill=0;" parent="1" source="VzEyl7pLeXNEImk8ZBch-142" target="VzEyl7pLeXNEImk8ZBch-147" edge="1">
          <mxGeometry relative="1" as="geometry" />
        </mxCell>
        <mxCell id="VzEyl7pLeXNEImk8ZBch-142" value="PLC" style="image;aspect=fixed;html=1;points=[];align=center;fontSize=12;image=img/lib/azure2/other/Defender_PLC.svg;" parent="1" vertex="1">
          <mxGeometry x="759.2199999999999" y="1300" width="40" height="40" as="geometry" />
        </mxCell>
        <mxCell id="VzEyl7pLeXNEImk8ZBch-149" style="edgeStyle=orthogonalEdgeStyle;rounded=0;orthogonalLoop=1;jettySize=auto;html=1;endArrow=none;startFill=0;" parent="1" source="VzEyl7pLeXNEImk8ZBch-144" target="VzEyl7pLeXNEImk8ZBch-147" edge="1">
          <mxGeometry relative="1" as="geometry" />
        </mxCell>
        <mxCell id="VzEyl7pLeXNEImk8ZBch-144" value="PLC" style="image;aspect=fixed;html=1;points=[];align=center;fontSize=12;image=img/lib/azure2/other/Defender_PLC.svg;" parent="1" vertex="1">
          <mxGeometry x="550.06" y="1300" width="40" height="40" as="geometry" />
        </mxCell>
        <mxCell id="VzEyl7pLeXNEImk8ZBch-146" value="" style="edgeStyle=orthogonalEdgeStyle;rounded=0;orthogonalLoop=1;jettySize=auto;html=1;endArrow=none;startFill=0;" parent="1" source="VzEyl7pLeXNEImk8ZBch-132" target="VzEyl7pLeXNEImk8ZBch-145" edge="1">
          <mxGeometry relative="1" as="geometry">
            <mxPoint x="767" y="1181" as="sourcePoint" />
            <mxPoint x="668" y="1097" as="targetPoint" />
          </mxGeometry>
        </mxCell>
        <mxCell id="VzEyl7pLeXNEImk8ZBch-145" value="" style="sketch=0;pointerEvents=1;shadow=0;dashed=0;html=1;strokeColor=none;labelPosition=center;verticalLabelPosition=bottom;verticalAlign=top;outlineConnect=0;align=center;shape=mxgraph.office.concepts.firewall;fillColor=#DA4026;" parent="1" vertex="1">
          <mxGeometry x="652.7460774058578" y="1132.684449339207" width="29.911861924686196" height="24.62555066079295" as="geometry" />
        </mxCell>
        <mxCell id="VzEyl7pLeXNEImk8ZBch-148" value="" style="edgeStyle=orthogonalEdgeStyle;rounded=0;orthogonalLoop=1;jettySize=auto;html=1;entryX=0;entryY=0.5;entryDx=0;entryDy=0;startArrow=none;startFill=0;endArrow=none;" parent="1" source="VzEyl7pLeXNEImk8ZBch-131" target="VzEyl7pLeXNEImk8ZBch-147" edge="1">
          <mxGeometry relative="1" as="geometry">
            <mxPoint x="579" y="1181" as="sourcePoint" />
            <mxPoint x="668" y="1097" as="targetPoint" />
          </mxGeometry>
        </mxCell>
        <mxCell id="VzEyl7pLeXNEImk8ZBch-147" value="" style="image;html=1;image=img/lib/clip_art/networking/Switch_128x128.png" parent="1" vertex="1">
          <mxGeometry x="640.0541176470588" y="1168.0014285714283" width="55.29411764705882" height="56.410714285714285" as="geometry" />
        </mxCell>
        <mxCell id="VzEyl7pLeXNEImk8ZBch-153" value="LEVEL 1 - PROCESS CONTROL" style="text;html=1;align=left;verticalAlign=middle;whiteSpace=wrap;rounded=0;fontStyle=1" parent="1" vertex="1">
          <mxGeometry x="345.97" y="1270" width="249.03" height="30" as="geometry" />
        </mxCell>
        <mxCell id="VzEyl7pLeXNEImk8ZBch-154" value="AUTOMATION" style="rounded=0;whiteSpace=wrap;html=1;rotation=-90;fontStyle=1;fillColor=#E8F8F5;strokeColor=#1ABC9C;" parent="1" vertex="1">
          <mxGeometry x="991.81" y="1308.11" width="129.94" height="29.89" as="geometry" />
        </mxCell>
        <mxCell id="VzEyl7pLeXNEImk8ZBch-155" value="" style="rounded=1;whiteSpace=wrap;html=1;" parent="1" vertex="1">
          <mxGeometry x="330" y="1400" width="688" height="110" as="geometry" />
        </mxCell>
        <mxCell id="VzEyl7pLeXNEImk8ZBch-158" value="LEVEL 0 - PHYSICAL PROCESS" style="text;html=1;align=left;verticalAlign=middle;whiteSpace=wrap;rounded=0;fontStyle=1" parent="1" vertex="1">
          <mxGeometry x="343.97" y="1400" width="249.03" height="30" as="geometry" />
        </mxCell>
        <mxCell id="VzEyl7pLeXNEImk8ZBch-159" value="I/O SIGNAL" style="rounded=0;whiteSpace=wrap;html=1;rotation=-90;fontStyle=1;fillColor=#FDFEFE;strokeColor=#7F8C8D;" parent="1" vertex="1">
          <mxGeometry x="991.81" y="1438.11" width="129.94" height="29.89" as="geometry" />
        </mxCell>
        <mxCell id="VzEyl7pLeXNEImk8ZBch-162" style="edgeStyle=orthogonalEdgeStyle;rounded=0;orthogonalLoop=1;jettySize=auto;html=1;endArrow=none;startFill=0;" parent="1" source="VzEyl7pLeXNEImk8ZBch-160" target="VzEyl7pLeXNEImk8ZBch-147" edge="1">
          <mxGeometry relative="1" as="geometry" />
        </mxCell>
        <mxCell id="VzEyl7pLeXNEImk8ZBch-160" value="Sensor" style="image;aspect=fixed;perimeter=ellipsePerimeter;html=1;align=center;shadow=0;dashed=0;fontColor=#4277BB;labelBackgroundColor=default;fontSize=12;spacingTop=3;image=img/lib/ibm/users/sensor.svg;" parent="1" vertex="1">
          <mxGeometry x="546.93" y="1435.06" width="39.89" height="39.89" as="geometry" />
        </mxCell>
        <mxCell id="VzEyl7pLeXNEImk8ZBch-163" style="edgeStyle=orthogonalEdgeStyle;rounded=0;orthogonalLoop=1;jettySize=auto;html=1;entryX=0.5;entryY=1;entryDx=0;entryDy=0;endArrow=none;startFill=0;" parent="1" source="VzEyl7pLeXNEImk8ZBch-161" target="VzEyl7pLeXNEImk8ZBch-147" edge="1">
          <mxGeometry relative="1" as="geometry" />
        </mxCell>
        <mxCell id="VzEyl7pLeXNEImk8ZBch-161" value="Actuator" style="verticalLabelPosition=bottom;sketch=0;html=1;fillColor=#6ABD46;strokeColor=#ffffff;verticalAlign=top;align=center;points=[[0.085,0.085,0],[0.915,0.085,0],[0.915,0.915,0],[0.085,0.915,0],[0.25,0,0],[0.5,0,0],[0.75,0,0],[1,0.25,0],[1,0.5,0],[1,0.75,0],[0.75,1,0],[0.5,1,0],[0.25,1,0],[0,0.75,0],[0,0.5,0],[0,0.25,0]];pointerEvents=1;shape=mxgraph.cisco_safe.compositeIcon;bgIcon=mxgraph.cisco_safe.architecture.generic_appliance;resIcon=mxgraph.cisco_safe.architecture.actuator;" parent="1" vertex="1">
          <mxGeometry x="747.32" y="1430.05" width="50" height="50" as="geometry" />
        </mxCell>
        <mxCell id="VzEyl7pLeXNEImk8ZBch-164" value="OT" style="rounded=0;whiteSpace=wrap;html=1;rotation=-90;fontStyle=1;fillColor=#FDF5E6;strokeColor=#D35400;" parent="1" vertex="1">
          <mxGeometry x="-37.24" y="1171.57" width="661" height="29.89" as="geometry" />
        </mxCell>
        <mxCell id="AVaXKjLe-Aqcqu84f5md-3" value="" style="edgeStyle=orthogonalEdgeStyle;rounded=0;orthogonalLoop=1;jettySize=auto;html=1;entryX=0.488;entryY=1.004;entryDx=0;entryDy=0;entryPerimeter=0;endArrow=none;startFill=0;" parent="1" source="VzEyl7pLeXNEImk8ZBch-28" target="AVaXKjLe-Aqcqu84f5md-2" edge="1">
          <mxGeometry relative="1" as="geometry">
            <mxPoint x="667" y="575" as="sourcePoint" />
            <mxPoint x="667" y="500" as="targetPoint" />
          </mxGeometry>
        </mxCell>
        <mxCell id="AVaXKjLe-Aqcqu84f5md-2" value="" style="image;html=1;image=img/lib/clip_art/networking/Switch_128x128.png" parent="1" vertex="1">
          <mxGeometry x="640.0541176470588" y="513.5914285714285" width="55.29411764705882" height="56.410714285714285" as="geometry" />
        </mxCell>
        <mxCell id="AVaXKjLe-Aqcqu84f5md-6" value="" style="endArrow=none;html=1;rounded=0;entryX=0.5;entryY=1;entryDx=0;entryDy=0;" parent="1" target="VzEyl7pLeXNEImk8ZBch-66" edge="1">
          <mxGeometry width="50" height="50" relative="1" as="geometry">
            <mxPoint x="675" y="520" as="sourcePoint" />
            <mxPoint x="680" y="610" as="targetPoint" />
          </mxGeometry>
        </mxCell>
        <mxCell id="AVaXKjLe-Aqcqu84f5md-9" value="vmbr1" style="text;html=1;align=center;verticalAlign=middle;whiteSpace=wrap;rounded=0;" parent="1" vertex="1">
          <mxGeometry x="595" y="526.8" width="60" height="30" as="geometry" />
        </mxCell>
        <mxCell id="VKOAm4PS5T9e-uiGa1T0-2" value="&lt;br&gt;&lt;div&gt;vmbr2&lt;div&gt;vlan6&lt;/div&gt;&lt;/div&gt;" style="text;html=1;align=center;verticalAlign=middle;whiteSpace=wrap;rounded=0;" vertex="1" parent="1">
          <mxGeometry x="687.3199999999999" y="564" width="60" height="30" as="geometry" />
        </mxCell>
        <mxCell id="VKOAm4PS5T9e-uiGa1T0-3" value="vmbr2 vlan5" style="text;html=1;align=center;verticalAlign=middle;whiteSpace=wrap;rounded=0;" vertex="1" parent="1">
          <mxGeometry x="662.8" y="667.75" width="60" height="30" as="geometry" />
        </mxCell>
        <mxCell id="VKOAm4PS5T9e-uiGa1T0-5" value="vmbr2 vlan4" style="text;html=1;align=center;verticalAlign=middle;whiteSpace=wrap;rounded=0;" vertex="1" parent="1">
          <mxGeometry x="672.9499999999999" y="870" width="60" height="30" as="geometry" />
        </mxCell>
        <mxCell id="VKOAm4PS5T9e-uiGa1T0-6" value="vmbr2 vlan3" style="text;html=1;align=center;verticalAlign=middle;whiteSpace=wrap;rounded=0;" vertex="1" parent="1">
          <mxGeometry x="662.8" y="1026.45" width="60" height="30" as="geometry" />
        </mxCell>
        <mxCell id="VKOAm4PS5T9e-uiGa1T0-7" value="SW5 vmbr2 vlan2" style="text;html=1;align=center;verticalAlign=middle;whiteSpace=wrap;rounded=0;" vertex="1" parent="1">
          <mxGeometry x="662.8" y="1204.33" width="60" height="30" as="geometry" />
        </mxCell>
        <mxCell id="VKOAm4PS5T9e-uiGa1T0-8" value="Note: The switches are simulated using the Proxmox bridge vmbr and VLANS." style="text;html=1;align=center;verticalAlign=middle;whiteSpace=wrap;rounded=0;" vertex="1" parent="1">
          <mxGeometry x="750" y="1540" width="267.56" height="30" as="geometry" />
        </mxCell>
        <mxCell id="VKOAm4PS5T9e-uiGa1T0-9" value="&lt;span style=&quot;caret-color: rgb(0, 0, 0); color: rgb(0, 0, 0); text-align: start; white-space-collapse: preserve; background-color: rgb(255, 255, 255);&quot;&gt;&lt;font face=&quot;Helvetica&quot;&gt;10.21.6.0/24&lt;/font&gt;&lt;/span&gt;" style="text;html=1;align=center;verticalAlign=middle;whiteSpace=wrap;rounded=0;" vertex="1" parent="1">
          <mxGeometry x="874.56" y="526.8" width="60" height="30" as="geometry" />
        </mxCell>
        <mxCell id="VKOAm4PS5T9e-uiGa1T0-10" value="&lt;span style=&quot;caret-color: rgb(0, 0, 0); color: rgb(0, 0, 0); text-align: start; white-space-collapse: preserve; background-color: rgb(255, 255, 255);&quot;&gt;&lt;font face=&quot;Helvetica&quot;&gt;10.21.4.0/24&lt;/font&gt;&lt;/span&gt;" style="text;html=1;align=center;verticalAlign=middle;whiteSpace=wrap;rounded=0;" vertex="1" parent="1">
          <mxGeometry x="371.42999999999995" y="807.3199999999999" width="60" height="30" as="geometry" />
        </mxCell>
        <mxCell id="VKOAm4PS5T9e-uiGa1T0-11" value="&lt;span style=&quot;caret-color: rgb(0, 0, 0); color: rgb(0, 0, 0); text-align: start; white-space-collapse: preserve; background-color: rgb(255, 255, 255);&quot;&gt;&lt;font face=&quot;Helvetica&quot;&gt;10.21.5.0/24&lt;/font&gt;&lt;/span&gt;" style="text;html=1;align=center;verticalAlign=middle;whiteSpace=wrap;rounded=0;" vertex="1" parent="1">
          <mxGeometry x="375.06" y="538.27" width="60" height="30" as="geometry" />
        </mxCell>
        <mxCell id="VKOAm4PS5T9e-uiGa1T0-13" value="&lt;span style=&quot;caret-color: rgb(0, 0, 0); color: rgb(0, 0, 0); text-align: start; white-space-collapse: preserve; background-color: rgb(255, 255, 255);&quot;&gt;&lt;font face=&quot;Helvetica&quot;&gt;10.21.3.0/24&lt;/font&gt;&lt;/span&gt;" style="text;html=1;align=center;verticalAlign=middle;whiteSpace=wrap;rounded=0;" vertex="1" parent="1">
          <mxGeometry x="379.99999999999994" y="972.55" width="60" height="30" as="geometry" />
        </mxCell>
        <mxCell id="VKOAm4PS5T9e-uiGa1T0-14" value="&lt;span style=&quot;caret-color: rgb(0, 0, 0); color: rgb(0, 0, 0); text-align: start; white-space-collapse: preserve; background-color: rgb(255, 255, 255);&quot;&gt;&lt;font face=&quot;Helvetica&quot;&gt;10.21.2.0/24&lt;/font&gt;&lt;/span&gt;" style="text;html=1;align=center;verticalAlign=middle;whiteSpace=wrap;rounded=0;" vertex="1" parent="1">
          <mxGeometry x="379.99999999999994" y="1145.21" width="60" height="30" as="geometry" />
        </mxCell>
        <mxCell id="VKOAm4PS5T9e-uiGa1T0-15" value=".1" style="text;html=1;align=center;verticalAlign=middle;whiteSpace=wrap;rounded=0;" vertex="1" parent="1">
          <mxGeometry x="623.76" y="614.27" width="60" height="30" as="geometry" />
        </mxCell>
        <mxCell id="VKOAm4PS5T9e-uiGa1T0-16" value=".1" style="text;html=1;align=center;verticalAlign=middle;whiteSpace=wrap;rounded=0;" vertex="1" parent="1">
          <mxGeometry x="666.76" y="600.38" width="60" height="30" as="geometry" />
        </mxCell>
      </root>
    </mxGraphModel>
  </diagram>
</mxfile>
